<svg xmlns="http://www.w3.org/2000/svg" viewBox="0 0 279.2 273.11"><defs><style>.cls-1{fill:#fff;}</style></defs><title>Asset1</title><g id="Layer_2" data-name="Layer 2"><g id="Layer_1-2" data-name="Layer 1"><g id="Layer_1-2-2" data-name="Layer 1-2"><path class="cls-1" d="M279.2,8.51A2.22,2.22,0,0,0,279,9c-1.14,4.59-3.42,6.57-8,7.3-6.65,1.05-13.29,2.22-19.93,3.35-5.28.9-10.56,1.86-15.85,2.69a1.87,1.87,0,0,0-1.62,1.46q-4.34,11.25-8.6,22.48c-2.29,6-4.63,12-6.93,18q-3.87,10.11-7.72,20.23l-7.77,20.32L195,124.72q-3.86,10.07-7.7,20.12t-7.65,20c-1.93,5.08-3.82,10.18-5.78,15.26a1.1,1.1,0,0,0,.38,1.52l0,0c5.57,4.42,11.21,8.77,16.67,13.33,3.25,2.72,6.58,5.4,9,9a27.88,27.88,0,0,1,5,17.78,18.79,18.79,0,0,1-3.79,9.48c-3,4.17-6.58,7.54-11.5,9.29a4.59,4.59,0,0,0-.61.35,6.27,6.27,0,0,0,.74.35,14.51,14.51,0,0,1,7.07,4.11,16.64,16.64,0,0,1,4.67,12.17c-.3,7.47-5.51,14.22-13.35,15.36A15.16,15.16,0,0,1,173,266.6a15.79,15.79,0,0,1-3.19-10,15.24,15.24,0,0,1,3.73-9.89c1.27-1.45,2.7-2.76,4.2-4.27l-135.29.4c5.12,4.24,7.83,9.45,7.08,16.06a15.79,15.79,0,0,1-27.63,8.7,15.59,15.59,0,0,1-3.8-13c.72-4.82,3.22-8.52,7.29-11.62-.65-.07-1-.14-1.43-.15-3.89,0-7.79.09-11.67-.06s-7.1-3.91-7-8a7.77,7.77,0,0,1,7.38-7.59c7.85-.07,15.71-.09,23.56-.11l68.09-.17,73.21-.22a46.91,46.91,0,0,0,4.89-.17c5.26-.41,8-4.25,6.66-9.4a14.5,14.5,0,0,0-5.4-7.82q-8.3-6.54-16.53-13.16c-3.57-2.86-7.05-5.82-10.71-8.56-.82-.62-2.19-.6-3.31-.7-4.92-.41-9.84-.72-14.76-1.13-5.59-.47-11.17-1-16.75-1.52s-11-.88-16.49-1.32l-16.37-1.3c-5.86-.49-11.71-1-17.57-1.48-3.25-.26-6.51-.45-9.77-.71-4.05-.32-8.09-.7-12.14-1-3-.25-6.07-.46-9.11-.7l-12.8-1L18.58,176a8.52,8.52,0,0,1-7.95-7.91c-.36-4.08-1-8.13-1.44-12.2-.4-3.45-.76-6.91-1.17-10.37-.38-3.31-.79-6.62-1.18-9.93-.49-4.06-1-8.13-1.43-12.2s-1-8-1.47-12c-.4-3.31-.75-6.63-1.15-9.94-.48-4-1-8.06-1.46-12.09A116.5,116.5,0,0,1,0,77.8a7.55,7.55,0,0,1,7-8l.54,0c7.15-.23,14.32-.34,21.48-.51l16.67-.41,18.43-.46,16.68-.42L99,67.48l16.79-.42,18.42-.46,16.68-.41,18.31-.46c2.36-.06,4.73-.1,7.09-.18,8.09-.28,16.17-.56,24.26-.89a1.44,1.44,0,0,0,1-.73c2.46-6.32,4.86-12.66,7.29-19s4.81-12.45,7.19-18.69c1.57-4.09,3.19-8.17,4.61-12.32a8.9,8.9,0,0,1,7.83-6.42c4.37-.62,8.72-1.41,13.07-2.19,7.08-1.26,14.15-2.59,21.24-3.86,2.45-.44,4.93-.79,7.4-1.19a3.38,3.38,0,0,0,.69-.26h.88a4.12,4.12,0,0,0,.69.27,7.56,7.56,0,0,1,6.2,5.53c.17.54.35,1.08.53,1.62ZM137.32,78.57c0,.27-.06.42-.06.56v26.49c0,.92.45,1,1.15,1h24.75c.91,0,1.16-.31,1.16-1.2V78.93c0-.87-.26-1.14-1.11-1.1-3,.11-6.1.17-9.15.24-4,.09-8,.16-12,.27C140.49,78.37,139,78.49,137.32,78.57ZM132,79.76c0-.59.07-1.16-.86-1.14-5.37.14-10.75.23-16.13.35-3,.07-6,.18-8.93.23-.94,0-1.32.32-1.31,1.35q.06,12.38,0,24.76c0,1,.32,1.3,1.31,1.3q12.33-.06,24.65,0c1,0,1.3-.35,1.29-1.33V92.63m5.37,50.52c0,.28-.07.49-.07.7v25.41c0,.79.34,1,1,1.05,1.88.13,3.76.29,5.64.43L159.26,172a4.54,4.54,0,0,0,.21-.45q2.31-6,4.58-12a4,4,0,0,0,.21-1.38V144.43c0-1-.26-1.35-1.32-1.34H138.51c-.35,0-.74,0-1.18.06ZM99.46,93.05V80.83c0-1.47,0-1.48-1.53-1.42-3.7.12-7.41.28-11.11.38q-6.6.21-13.19.21c-.86,0-1.21.23-1.21,1.17v24.22c0,.89.25,1.2,1.17,1.19H98.35c.84,0,1.14-.23,1.13-1.11C99.44,101.34,99.46,97.2,99.46,93.05ZM53.61,137.81H65.93c1,0,1.25-.26,1.24-1.23V112.91c0-.92-.32-1.19-1.19-1.19H41.22c-.93,0-1.27.3-1.27,1.26v23.56c0,1,.36,1.28,1.34,1.27C45.39,137.78,49.5,137.81,53.61,137.81Zm64.76,0H130.7c.91,0,1.28-.19,1.28-1.19q-.06-11.84,0-23.68c0-.92-.33-1.2-1.2-1.2H105.9c-.9,0-1.17.35-1.16,1.23v23.68c0,.91.31,1.17,1.2,1.16C110.08,137.78,114.22,137.81,118.37,137.81ZM53.54,106.59H66c.88,0,1.28-.24,1.19-1.17-.06-.69,0-1.38,0-2.07V81.54c0-1.07-.32-1.4-1.36-1.32-1.55.13-3.12.17-4.68.21-6.64.16-13.29.32-19.94.42-1,0-1.24.34-1.24,1.27v23.23c0,1,.32,1.26,1.27,1.25C45.32,106.57,49.43,106.59,53.54,106.59Zm19,5.28a4.53,4.53,0,0,0-.09.74v24.22c0,.9.39,1,1.12,1H98.45a10,10,0,0,0,1-.09V113.33c0-1.57,0-1.58-1.53-1.58H74c-.48,0-1,.08-1.49.12Zm64.79,25.87c.32,0,.5.06.68.06h25.31c.92,0,1-.42,1-1.13V113.32c0-1.58,0-1.59-1.63-1.59h-23.9c-.46,0-.92.07-1.42.11Zm-18.85,5.35H106.05c-1,0-1.31.27-1.31,1.28.05,5,0,9.89,0,14.83v7.42c0,.62.1,1,.86,1.1,3,.2,6.07.44,9.11.67l6.17.49c3.33.27,6.65.53,10,.82.89.08,1.12-.28,1.11-1.11V144.27c0-.9-.28-1.19-1.19-1.18-4.12,0-8.22,0-12.33,0Zm-19.08.08a3.26,3.26,0,0,1-.46-.07H73.3c-.8,0-.86.39-.86,1v19.75c0,.85.32,1,1.08,1,2.28.14,4.56.37,6.83.58s4.81.49,7.22.72c2.2.21,4.4.4,6.6.59,1.73.13,3.45.21,5.23.32ZM195.58,77c-1.34.08-2.44.17-3.54.2-7.09.16-14.17.32-21.26.43-.95,0-1.24.3-1.24,1.25q.06,13.26,0,26.52c0,1,.3,1.25,1.25,1.24h11.34c2.14,0,2.12,0,2.87-2l9.27-24.17C194.68,79.38,195.08,78.31,195.58,77Zm-142,66.12H41.14c-.87,0-1.14.29-1.14,1.13v17c0,.71.2,1.06,1,1.06,1,0,2.1.15,3.15.24,4.11.35,8.23.71,12.35,1,3.22.26,6.44.43,9.65.75.92.09,1-.22,1-1V144.21c0-.93-.32-1.15-1.2-1.15-4.12.05-8.27,0-12.41,0ZM34.8,93.87V82.41c0-1.06-.33-1.35-1.37-1.33-6.72.19-13.44.33-20.16.47-1.39,0-1.43,0-1.28,1.42.28,2.59.6,5.18.91,7.77.57,4.86,1.16,9.71,1.7,14.57.11.92.4,1.31,1.41,1.3H33.46c1.1,0,1.35-.4,1.34-1.4C34.78,101.43,34.8,97.65,34.8,93.87Zm0,30.86V113.06c0-1-.35-1.33-1.32-1.32H16.35c-.71,0-1,.3-.85,1,.19,1.29.3,2.59.45,3.88.79,6.66,1.59,13.31,2.35,20,.1.88.41,1.22,1.36,1.21,4.62-.05,9.24-.06,13.85,0,1.06,0,1.3-.37,1.29-1.32C34.78,132.58,34.8,128.66,34.8,124.73ZM19.2,143.16c.11,1.15.19,2.19.31,3.23.47,4,1,8,1.41,12,.25,2.39.33,2.46,2.75,2.6,3.29.19,6.58.47,9.86.79,1,.1,1.29-.16,1.29-1.13V144.29c0-.87-.25-1.2-1.18-1.19-4.44.05-8.87,0-13.3,0C20,143.09,19.7,143.13,19.2,143.16ZM185.62,266.79a10,10,0,0,0,9.63-9.72,9.58,9.58,0,1,0-19.16-.22h0A10,10,0,0,0,185.62,266.79ZM24.21,256.93c-.2,5.62,4.95,9.82,9.47,9.84A9.88,9.88,0,0,0,43.33,257,9.56,9.56,0,0,0,24.21,257ZM182.23,112c-.25-.13-.35-.21-.44-.21H170.24c-.23,0-.63.54-.65.84-.06,1.52,0,3,0,4.58V136.6c0,.37,0,.9.28,1.07a2.36,2.36,0,0,0,3-.94c1.61-4.23,3.19-8.47,4.8-12.7C179.13,120.07,180.67,116.09,182.23,112Z"/><path class="cls-1" d="M190.57,257a4.93,4.93,0,0,1-9.86.19h0c0-3.07,1.76-5.12,5-5.21a4.74,4.74,0,0,1,4.86,4.63A2.54,2.54,0,0,1,190.57,257Z"/><path class="cls-1" d="M38.65,257.06a4.72,4.72,0,0,1-4.45,5h-.39A5,5,0,0,1,33.64,252h0a4.83,4.83,0,0,1,5,4.7C38.66,256.8,38.65,256.93,38.65,257.06Z"/></g></g></g></svg>