<svg xmlns="http://www.w3.org/2000/svg" viewBox="0 0 363.74 354.62"><defs><style>.cls-1{fill:#fff;}</style></defs><title>Asset2</title><g id="Layer_2" data-name="Layer 2"><g id="Layer_1-2" data-name="Layer 1"><g id="Layer_1-2-2" data-name="Layer 1-2"><path class="cls-1" d="M363.74,320.52c-.29,2.53-.4,5.09-.9,7.58a74.08,74.08,0,0,1-2.61,10.59c-3.47,9.7-10.66,14.69-20.8,15.67-8.06.79-16-.34-23.84-1.91-14.1-2.83-28.14-6-42.25-8.73a211.43,211.43,0,0,0-40.93-4q-52.2.07-104.42,0a207.67,207.67,0,0,0-40.45,4.47c-12.11,2.42-24.16,5.13-36.26,7.61-7.65,1.58-15.36,2.88-23.22,2.73a30.82,30.82,0,0,1-13.49-2.89c-6.52-3.27-10-8.92-12-15.65C.06,327.5-.22,318.7.11,309.87.82,291,5.18,273,14,256.3q29.61-56.22,92-69a5.81,5.81,0,0,1,5,1.13,108.36,108.36,0,0,0,50.58,20.31q46,5.87,83.17-22a4.19,4.19,0,0,1,3.25-.89c34.78,4.16,63.57,19.54,86,46.4C350.22,251.61,359.64,274,362.8,299c.33,2.62.46,5.28.7,7.92.05.55.16,1.1.24,1.65Z"/><path class="cls-1" d="M181.88,0c2.44.27,4.9.44,7.32.81,35.57,5.45,61.47,24.35,76.37,57,20.94,45.87,2.7,99.89-41.36,124.48-21.37,11.93-44.18,15.3-68.1,10.15a97.33,97.33,0,0,1-75.43-79.33c-8.39-51.31,25.17-100.4,76-111,4.52-.94,9.18-1.27,13.77-1.88.42-.06.83-.15,1.24-.23Z"/></g></g></g></svg>