<svg id="Layer_1" data-name="Layer 1" xmlns="http://www.w3.org/2000/svg" viewBox="0 0 425.94 148.89"><defs><style>.cls-1{isolation:isolate;font-size:115.38px;fill:#d0e06c;font-family:EdwardianScriptITC, Edwardian Script ITC;}.cls-2{fill:#d0e06e;}.cls-3{fill:none;}</style></defs><title>Letha_logo_3</title><g id="Layer_1-2" data-name="Layer 1-2"><text class="cls-1" transform="translate(74.31 139.87)">Letha</text><path class="cls-2" d="M425.47,0a369.42,369.42,0,0,0-45.85,31.3l.24,2,.23-.25c.32-.35.14-2.28-.24-2A369.17,369.17,0,0,0,326.8,82.89q-6.6,7.9-12.75,16.13c-.3.41.12,2.12.32,1.88l12.92-16a1.77,1.77,0,0,0,.21-1.27c0-.09-.21-1-.45-.71q-11.78,14.63-23.93,29-6,7.1-12.12,14.1c-2,2.36-4.1,4.72-6.18,7.06a18.13,18.13,0,0,1-5.89,4.91,6.74,6.74,0,0,1-7-.7,2.82,2.82,0,0,1-.92-3.87h0a12.61,12.61,0,0,1,3.08-3.31c.43-.36.07-2.25-.24-2-2,1.66-3.86,3.55-4.06,6.25a5.63,5.63,0,0,0,2.23,5.13c4.76,3.41,9.73-.73,12.87-4.25,9.28-10.38,18.27-21,27.18-31.74q7.65-9.18,15.15-18.5L327,83,314.06,99l.32,1.88A367.07,367.07,0,0,1,364.1,46.52q7.8-7,16-13.48l-.24-2-.23.25c-.32.35-.14,2.28.24,2A369,369,0,0,1,425.7,2C426.16,1.76,425.9-.19,425.47,0Z"/></g><rect class="cls-3" width="425.94" height="148.89"/></svg>