<svg xmlns="http://www.w3.org/2000/svg" viewBox="0 0 1169 647.99"><defs><style>.cls-1{fill:#ac0034;stroke:#ac0034;stroke-miterlimit:10;stroke-width:3px;}.cls-2{fill:none;}</style></defs><title>Asset 41</title><g id="Layer_2" data-name="Layer 2"><g id="Layer_1-2" data-name="Layer 1"><path class="cls-1" d="M826.31,305.6v19.74a18.24,18.24,0,0,0-.41,2.4A351.58,351.58,0,0,1,816.72,392,496.73,496.73,0,0,1,769.06,517.9c-15.21,28-32.9,54.2-55.45,76.89C698.48,610,681.76,623,661.52,630.84c-15.19,5.88-30.82,8-46.85,4.38-14.38-3.29-28.64-7.09-43-10.65-9.53-2.37-19-3.17-28.66-.23-14.63,4.45-28.6,11.06-43.89,13.35h-9.87a7,7,0,0,0-1.36-.44,72.2,72.2,0,0,1-23.28-6.78c-17.88-8.43-32.31-21.28-45.41-35.76C399.82,573.24,384.36,549,371,523.49A523.73,523.73,0,0,1,321.29,384a362.54,362.54,0,0,1-7-54.91,226.63,226.63,0,0,1,1.8-43.78c2.18-14.81,5.15-29.4,10.47-43.43,5-13.28,11.91-25.4,22.2-35.39,11.83-11.46,26.26-17.74,42.1-21.21,17.32-3.8,35-4.27,52.58-6,10.44-1,21-1.88,31.21-4.19,25.28-5.71,50.52-11.62,76.21-15.2,2.79-.39,3.34-1.64,3.74-4a403,403,0,0,1,12-49.89c6.35-20.57,16.15-39.61,25.92-58.64,2.32-4.52,5.75-8.56,9.14-12.41a10,10,0,0,1,10.66-2.84c7.93,2.28,13.64,7.71,18.42,14.12,1.9,2.55,1.21,5-1.51,6.74a48.4,48.4,0,0,1-6.3,3.31c-5.15,2.32-10.46,4.34-15.51,6.86a29.73,29.73,0,0,0-13.75,14.24,284.64,284.64,0,0,0-22.52,68.73c-.73,3.64-1.35,7.31-2,11.18l14.61-1.27a395.71,395.71,0,0,1,66.75-.5,270.18,270.18,0,0,1,55.36,10c33.72,10,63.12,27.05,86.74,53.43,7.53,8.4,14.59,17.19,19.86,27.21,7.88,15,11.25,31.24,12.87,47.93C825.67,297.94,826,301.77,826.31,305.6Z"/><path class="cls-1" d="M344.22,6.08c3.92.36,7.83.75,11.75,1.06a196.52,196.52,0,0,1,51,11A199.36,199.36,0,0,1,467.82,53a211.19,211.19,0,0,1,47.33,56,240.59,240.59,0,0,1,19.38,42.19c.23.65.35,1.35.64,2.55-2.35-.77-4.29-1.3-6.16-2-21.16-8-42.28-16.1-63.46-24s-42.78-15.2-65.07-19.83a166.19,166.19,0,0,0-31.26-3.4c-23-.37-44.15-7.17-63.73-19.22-16.38-10.08-30.85-22.62-45.72-34.66-11.18-9.05-22.67-17.69-34-26.52-.51-.39-1-.76-1.92-1.42,2.82-.94,5.31-1.83,7.83-2.59,17.61-5.31,35.44-9.64,53.79-11.38,10.29-1,20.64-1.41,30.95-2.11,1.55-.1,3.09-.3,4.63-.46Z"/><polygon class="cls-2" points="0 0 1169 0.99 1169 647.99 0 647.99 0 0"/></g></g></svg>