<svg xmlns="http://www.w3.org/2000/svg" viewBox="0 0 1436.75 796.41"><defs><style>.cls-1{fill:none;}.cls-2{fill:#ac0034;stroke:#ac0034;stroke-miterlimit:10;stroke-width:3px;}</style></defs><title>Asset 43</title><g id="Layer_2" data-name="Layer 2"><g id="Layer_1-2" data-name="Layer 1"><polygon class="cls-1" points="0 0 1436.75 1.22 1436.75 796.41 0 796.41 0 0"/><path class="cls-2" d="M436.45,683.21V667.76c.56-1.82,1.14-3.64,1.66-5.47a219.61,219.61,0,0,1,31.47-65.48Q500,553,532,510.25q33.4-44.49,68.4-87.76c16.37-20.34,33.76-39.86,50.89-59.58,3-3.49,4.55-7,4.36-11.6C655,335.22,654.31,319.13,654,303c-.39-19.54-.41-39.08-.64-58.63-.13-11-.44-21.92-.49-32.88,0-2.65-1-3.64-3.46-4.6-6.28-2.42-12.71-4.82-18.41-8.32-10-6.16-10.89-18.78-1.82-25.74A64.36,64.36,0,0,1,644.73,164c15.95-6.24,32.79-8.45,49.78-9.57,2.51-.16,3.48-.88,3.44-3.55-.15-9.44-.1-18.89,0-28.33A83.79,83.79,0,0,1,703,93.68c4.64-12.43,11.54-23.19,23-30.54a74.2,74.2,0,0,1,39.59-11.67c21-.31,41.95.23,62.9,1,18.35.63,36.75-.56,55,2.59,8,1.37,16.36.64,24.55.73,10,.1,20-.14,30,.12,22.93.61,42,14.8,49.42,36.51,5,14.45,5.9,29.51,6.35,44.56.41,13.91.07,27.85,0,41.77,0,1.92,0,3.44,2.67,3.77,6.23.77,12.48,1.63,18.59,3,4.74,1.06,9.26,2.95,12.77,6.65s3.54,8.11.29,11.79a22.8,22.8,0,0,1-10.55,6.58c-1.72.54-3.13,1.32-3.12,3.51.06,12-.17,24,.19,36,.42,14.19,1.45,28.35,2,42.53a12.55,12.55,0,0,0,3,8c13.59,16.35,27.27,32.63,40.6,49.19,21.72,27,42.42,54.72,59.6,84.91,8.5,14.93,15.34,30.46,17.79,47.68a16.65,16.65,0,0,1-2.93,12.46,34.47,34.47,0,0,1-7,7.46c-10.41,7.91-22.51,12.39-34.83,16.22-19.47,6-39.5,9.43-59.67,11.89-14.08,1.73-28.23,3.09-42.4,3.91-10.82.63-21.71.34-32.56.14a199.5,199.5,0,0,1-45.78-6.4c-3.9-1-7.8-2-12.41-3.22.93,1.48,1.38,2.3,1.92,3,21.29,29.27,40.94,59.58,57.78,91.64,11.29,21.48,20.06,43.87,23.57,68.07.94,6.49,1.49,12.86-1.18,19.13-4.13,9.65-11.21,16.72-19.75,22.43-14.78,9.9-31.07,16.66-47.75,22.51-26.92,9.44-54.83,14.85-82.87,19.59A970.06,970.06,0,0,1,726.52,783c-3.59.21-7.18.65-10.77,1H662c-.93-.17-1.85-.4-2.79-.49C645.05,782,630.88,781,616.86,779c-27.63-4-54.41-11.48-80.73-20.67-30.2-10.54-58.4-24.68-82.45-46.26-7-6.3-12.69-13.41-15.45-22.57C437.6,687.43,437.05,685.31,436.45,683.21Zm474-609.33c.8,1.19,1.12,1.76,1.52,2.27a67.07,67.07,0,0,1,11.66,22.16A100.81,100.81,0,0,1,920.81,167c-6.28,15.77-18.24,25.39-35.13,28.2a100.19,100.19,0,0,1-16.8,1.06c-25.49-.1-44.78-16-50.31-40.82-3.69-16.58-3-33.11-.27-49.69,1.71-10.28,5-20,11.2-28.48,1.43-2,3-3.85,4.75-6.1-4.26-.26-8.12-.63-12-.69-17-.28-33.94-.78-50.9-.52a101.93,101.93,0,0,0-21.44,3,37.81,37.81,0,0,0-20.46,11.84c-5.62,6.43-8.11,14.16-9.52,22.33-2.6,15.06-1.57,30.22-1.34,45.36,0,1.74,1,1.93,2.42,2a178.91,178.91,0,0,1,35.73,4c9.34,2.12,18.56,4.7,26.58,10.12,5.07,3.43,9.36,7.68,9.1,14.59-.21,5.48-3.06,9.56-7.16,12.8a47.21,47.21,0,0,1-17.92,9.23c-2.74.68-3.6,2.06-3.55,4.83q.45,20.86.57,41.74c.1,15.07,0,30.14.11,45.21.07,7.24.3,14.49.75,21.71.76,12.26,1.64,24.51,2.76,36.73a14.54,14.54,0,0,0,2.72,7.28c5.09,6.53,10.65,12.7,15.95,19.08q25.55,30.82,51,61.69c.69.83,1.43,1.61,2.15,2.41,4-6.5,7.41-12.92,11.59-18.79,12.67-17.78,25.46-35.48,38.53-53,17.75-23.76,36.28-46.9,55.91-69.15a17.45,17.45,0,0,0,2.83-4.88c1.32-3.17,2.48-6.4,3.57-9.65a17.67,17.67,0,0,0,1.28-5.62c-.14-7.53-.71-15-.85-22.56-.29-15.53-.44-31.07-.57-46.61,0-2.13-.76-3.15-2.8-4a52.69,52.69,0,0,1-10.22-5c-4.78-3.24-5.22-9-1.16-13.08a25.06,25.06,0,0,1,6.64-4.84c8.27-4,17.19-5.58,26.27-6.25,2.16-.16,3.54-.44,3.54-3.18,0-7.33.51-14.67.4-22-.17-11.05-.47-22.11-1.16-33.14a96.44,96.44,0,0,0-5.39-27.71c-4.22-11.3-11.78-19.13-24.1-21.17a125.76,125.76,0,0,0-15.64-1.32C922.75,73.71,917,73.88,910.45,73.88Zm-75.6,56.88c.78,6.7,1.09,13.49,2.43,20.08,2.49,12.28,8.81,21.92,21.65,25.17a61,61,0,0,0,17.27,1.55c15.48-.63,23.89-7.11,28.54-21.86a91.4,91.4,0,0,0,2.32-46c-2.27-11.33-7.34-21.28-16.32-28.82-4.59-3.85-9.35-7.87-16-6.93a100.91,100.91,0,0,0-13.15,2.6c-10.18,2.84-16.89,9.6-20.69,19.35C836.53,107.08,835.49,118.81,834.85,130.76Zm64.4-73.53,0,.24h35.27v-.24ZM933.5,72.31v-.16H909.61v.16Z"/><path class="cls-2" d="M436.45,683.21c.6,2.1,1.15,4.22,1.78,6.31,2.76,9.16,8.42,16.27,15.45,22.57,24.05,21.58,52.25,35.72,82.45,46.26,26.32,9.19,53.1,16.71,80.73,20.67,14,2,28.19,3,42.3,4.43.94.09,1.86.32,2.79.49"/><path class="cls-1" d="M910.45,73.88c6.5,0,12.3-.17,18.08.05a125.76,125.76,0,0,1,15.64,1.32c12.32,2,19.88,9.87,24.1,21.17a96.44,96.44,0,0,1,5.39,27.71c.69,11,1,22.09,1.16,33.14.11,7.33-.4,14.67-.4,22,0,2.74-1.38,3-3.54,3.18-9.08.67-18,2.24-26.27,6.25a25.06,25.06,0,0,0-6.64,4.84c-4.06,4.08-3.62,9.84,1.16,13.08a52.69,52.69,0,0,0,10.22,5c2,.8,2.78,1.82,2.8,4,.13,15.54.28,31.08.57,46.61.14,7.52.71,15,.85,22.56a17.67,17.67,0,0,1-1.28,5.62c-1.09,3.25-2.25,6.48-3.57,9.65a17.45,17.45,0,0,1-2.83,4.88c-19.63,22.25-38.16,45.39-55.91,69.15-13.07,17.49-25.86,35.19-38.53,53-4.18,5.87-7.61,12.29-11.59,18.79-.72-.8-1.46-1.58-2.15-2.41q-25.51-30.84-51-61.69c-5.3-6.38-10.86-12.55-15.95-19.08a14.54,14.54,0,0,1-2.72-7.28c-1.12-12.22-2-24.47-2.76-36.73-.45-7.22-.68-14.47-.75-21.71-.12-15.07,0-30.14-.11-45.21q-.14-20.86-.57-41.74c0-2.77.81-4.15,3.55-4.83a47.21,47.21,0,0,0,17.92-9.23c4.1-3.24,7-7.32,7.16-12.8.26-6.91-4-11.16-9.1-14.59-8-5.42-17.24-8-26.58-10.12a178.91,178.91,0,0,0-35.73-4c-1.43,0-2.4-.23-2.42-2-.23-15.14-1.26-30.3,1.34-45.36,1.41-8.17,3.9-15.9,9.52-22.33a37.81,37.81,0,0,1,20.46-11.84,101.93,101.93,0,0,1,21.44-3c17-.26,33.93.24,50.9.52,3.86.06,7.72.43,12,.69-1.76,2.25-3.32,4.13-4.75,6.1-6.19,8.52-9.49,18.2-11.2,28.48-2.76,16.58-3.42,33.11.27,49.69,5.53,24.85,24.82,40.72,50.31,40.82a100.19,100.19,0,0,0,16.8-1.06c16.89-2.81,28.85-12.43,35.13-28.2a100.81,100.81,0,0,0,2.82-68.64A67.07,67.07,0,0,0,912,76.15C911.57,75.64,911.25,75.07,910.45,73.88Z"/><path class="cls-1" d="M834.85,130.76c.64-11.95,1.68-23.68,6-34.88,3.8-9.75,10.51-16.51,20.69-19.35a100.91,100.91,0,0,1,13.15-2.6c6.65-.94,11.41,3.08,16,6.93,9,7.54,14,17.49,16.32,28.82a91.4,91.4,0,0,1-2.32,46c-4.65,14.75-13.06,21.23-28.54,21.86A61,61,0,0,1,858.93,176c-12.84-3.25-19.16-12.89-21.65-25.17C835.94,144.25,835.63,137.46,834.85,130.76Z"/><path class="cls-2" d="M899.25,57.23h35.29v.24H899.28Z"/><ellipse class="cls-2" cx="921.56" cy="72.23" rx="16.89" ry="0.11"/></g></g></svg>