<svg xmlns="http://www.w3.org/2000/svg" viewBox="0 0 1293.59 717.05"><defs><style>.cls-1{fill:#fff;}.cls-2{fill:#ac0034;stroke:#ac0034;stroke-miterlimit:10;stroke-width:3px;}.cls-3{fill:#001f2b;}.cls-4{fill:none;}</style></defs><title>Asset 37</title><g id="Layer_2" data-name="Layer 2"><g id="Layer_1-2" data-name="Layer 1"><path class="cls-1" d="M437.78,424.78v6.3c0,23.17-.07,46.33.06,69.5a59.18,59.18,0,0,0,1.37,12.87c5.83,24.94,26.8,41.17,53.23,41.2q69.75.11,139.49,0c3.42,0,5.33,1,7.09,4,14.47,24.72,29.13,49.33,43.73,74,6.43,10.86,14.21,10.94,20.56.21,14.51-24.5,29.1-49,43.44-73.56,2-3.49,4.26-4.69,8.26-4.67q68.75.21,137.49.08c33.25,0,56-22.67,56-55.86q0-106,0-212c0-9.84.14-19.67-.05-29.5A52.34,52.34,0,0,0,911,207.79a70.74,70.74,0,0,0-17.71-2.42c-12.44-.35-24.89-.11-37.85-.11v-5.92q0-35.51,0-71a50.37,50.37,0,0,0-7.84-28c-11-17-26.92-24.91-46.79-24.92q-200.73-.12-401.48,0c-.83,0-1.67,0-2.5,0-29,1-51.9,23.54-52,52.18q-.33,122.49,0,245c0,15.8,6.53,29.08,18.58,39.44a51.82,51.82,0,0,0,34.39,12.73C410.91,424.86,424,424.78,437.78,424.78Z"/><path class="cls-2" d="M437.78,424.78c-13.74,0-26.87.08-40,0A51.82,51.82,0,0,1,363.4,412c-12-10.36-18.54-23.64-18.58-39.44q-.27-122.49,0-245c.08-28.64,23-51.17,52-52.18.83,0,1.67,0,2.5,0q200.74,0,401.48,0c19.87,0,35.83,7.95,46.79,24.92a50.37,50.37,0,0,1,7.84,28q0,35.5,0,71v5.92c13,0,25.41-.24,37.85.11A70.74,70.74,0,0,1,911,207.79a52.34,52.34,0,0,1,37.45,49.53c.19,9.83.05,19.66.05,29.5q0,106,0,212c0,33.19-22.7,55.84-56,55.86q-68.75,0-137.49-.08c-4,0-6.22,1.18-8.26,4.67-14.34,24.6-28.93,49.06-43.44,73.56-6.35,10.73-14.13,10.65-20.56-.21-14.6-24.64-29.26-49.25-43.73-74-1.76-3-3.67-4-7.09-4q-69.73.17-139.49,0c-26.43,0-47.4-16.26-53.23-41.2a59.18,59.18,0,0,1-1.37-12.87c-.13-23.17-.06-46.33-.06-69.5Zm162.28,56.69c1.59-2.64,2.72-4.48,3.81-6.33q18.63-31.65,37.22-63.31c2.43-4.16,5.42-7,10.62-7q74,.15,148,.19c22,0,35.78-13.74,35.79-35.9q0-119,0-237.95c0-22.2-13.66-35.85-35.89-35.85q-199.46,0-398.91,0c-22.65,0-36.15,13.51-36.15,36q0,118.72,0,237.45c0,22.58,13.77,36.23,36.51,36.23,48.49,0,97,.06,145.47-.07,5.84,0,9.67,2.08,12.56,7.15,7,12.29,14.34,24.39,21.56,36.57C587,459.41,593.34,470.13,600.06,481.47Zm93,129.68c1.24-2,2.24-3.48,3.16-5,12.32-21,24.78-41.84,36.84-63,3.39-5.94,7.63-8.34,14.46-8.32q72.48.3,145,0a46.08,46.08,0,0,0,11.84-1.35c15-4,24.1-16.92,24.12-33.89q0-87.48,0-175c0-21.83.1-43.66,0-65.49-.12-18-11.86-32.09-29.3-33.45-14.06-1.1-28.29-.23-42.44-.19-.24,0-.48.41-1,.91v5.69q0,69,0,138c0,31.81-23.16,54.89-54.9,54.9q-69,0-138-.08c-4.3,0-6.8,1.07-9.08,5-14.28,24.65-28.88,49.1-43.4,73.61-6,10.21-14.44,10.14-20.53-.16-14.69-24.79-29.42-49.56-44-74.44-1.77-3-3.73-4-7.11-4-23.66.13-47.32.07-71,.07H457.49v5.28q0,34.24,0,68.48c0,22.35,13.83,36.14,36.16,36.14,48.33,0,96.65.11,145-.1,6.68,0,10.74,2.36,14,8.09,11.64,20.19,23.66,40.17,35.55,60.22C689.73,605.69,691.29,608.22,693.06,611.15Z"/><path class="cls-3" d="M600.06,481.47c-6.72-11.34-13.09-22.06-19.45-32.78-7.22-12.18-14.55-24.28-21.56-36.57-2.89-5.07-6.72-7.17-12.56-7.15-48.49.13-97,.07-145.47.07-22.74,0-36.51-13.65-36.51-36.23q0-118.72,0-237.45c0-22.52,13.5-36,36.15-36q199.46,0,398.91,0c22.23,0,35.88,13.65,35.89,35.85q0,119,0,238c0,22.16-13.75,35.92-35.79,35.9q-74,0-148-.19c-5.2,0-8.19,2.83-10.62,7q-18.54,31.69-37.22,63.31C602.78,477,601.65,478.83,600.06,481.47Z"/><path class="cls-3" d="M693.06,611.15c-1.77-2.93-3.33-5.46-4.84-8-11.89-20-23.91-40-35.55-60.22-3.3-5.73-7.36-8.12-14-8.09-48.32.21-96.64.12-145,.1-22.33,0-36.14-13.79-36.16-36.14q0-34.25,0-68.48V425h10.23c23.66,0,47.32.06,71-.07,3.38,0,5.34,1,7.11,4,14.54,24.88,29.27,49.65,44,74.44,6.09,10.3,14.48,10.37,20.53.16,14.52-24.51,29.12-49,43.4-73.61,2.28-3.92,4.78-5,9.08-5q69,.22,138,.08c31.74,0,54.86-23.09,54.9-54.9q.06-69,0-138v-5.69c.55-.5.79-.91,1-.91,14.15,0,28.38-.91,42.44.19,17.44,1.36,29.18,15.47,29.3,33.45.13,21.83,0,43.66,0,65.49q0,87.48,0,175c0,17-9.12,29.86-24.12,33.89a46.08,46.08,0,0,1-11.84,1.35q-72.48.14-145,0c-6.83,0-11.07,2.38-14.46,8.32-12.06,21.11-24.52,42-36.84,63C695.3,607.67,694.3,609.18,693.06,611.15Z"/><polygon class="cls-4" points="0 0 1293.59 1.1 1293.59 717.05 0 717.05 0 0"/></g></g></svg>