<svg xmlns="http://www.w3.org/2000/svg" viewBox="0 0 1140.24 663.33"><defs><style>.cls-1{fill:#001f2b;}</style></defs><title>Asset 8</title><g id="Layer_2" data-name="Layer 2"><g id="Layer_1-2" data-name="Layer 1"><path class="cls-1" d="M1140.24,226.83v18.7c-3.17,12.63-10.12,23.22-18.31,33-2.48,3-6.12,5-9.76,7.82-.31-3-.48-4.68-.66-6.36l-1.49-.72a63.43,63.43,0,0,0-4.68,6.24c-2,3.43-3,7.71-5.58,10.5A107.34,107.34,0,0,1,1043,328.11c-17.27,3.69-34.42,7.38-50.44,15.09-12.13,5.84-24.14,11.94-36.46,17.34-4.63,2-10,3.54-15,3.32-10.4-.45-18.08,3.12-23.78,11.72-3,4.52-7.52,6.95-12.78,8.19-6.91,1.64-13.77,3.48-20.64,5.27-3.37.88-6.53,2.09-7.8,5.84-3.12,9.25-6.92,18.32-9.22,27.76a155.34,155.34,0,0,1-9.39,28.1,27.9,27.9,0,0,0-2.17,14.51,140.72,140.72,0,0,0,5.76,24.59c7.63,23.65,16.34,46.95,17.5,72.22a29.17,29.17,0,0,0,12.08,22.8c9.7,7.27,19,15.08,28.31,22.87,2.26,1.9,3.82,4.62,6.27,7.67-4.14.6-7.22.82-10.17,1.58-1.15.29-2.87,1.84-2.81,2.71.24,3.46-1.74,3.76-4.17,3.44-3.95-.53-7.86-1.33-11.81-1.89-3.07-.44-5.16.49-5.53,4.07a3.83,3.83,0,0,1-2.14,2.77c-5.52,1.28-11.06,2.3-16.15-1.65-1.51-1.17-3.5-1.72-5.81-2.81v11.94a68.56,68.56,0,0,1-7.6,0c-15-1.75-30-3.93-45-5.35-12.62-1.2-24.07-5-33.56-13.46a13.22,13.22,0,0,1-4.12-8.18c-.35-6.33.49-12.72.76-19.09.68-16-1.13-31.32-11-44.83-2.46-3.37-5.07-7.8-4.94-11.66.28-7.8-4.1-12.46-8.28-17.9-8-10.4-15.24-21.3-13.87-35.47a24.61,24.61,0,0,0-.25-4.44c-.25-3.28-2-4.24-4.81-2.72-3,1.62-5.83,3.51-8.69,5.37-7.6,4.94-14.11,4.5-21-1.46-2.36-2-4.8-4-7.15-6a16.28,16.28,0,0,0-15.36-3.75A32.31,32.31,0,0,1,660.18,465c-9.89-4.18-19.13-2.38-27.43,4.37-1.27,1-2.56,2-3.79,3.11-5.45,4.8-9.75,10.07-7.46,18.11a15.46,15.46,0,0,1,.14,3.55c.63,13.68,3.27,26.69,11.7,38,3.52,4.75,6.44,9.95,9.54,15,3.65,6,7,12,6.72,19.43a15.84,15.84,0,0,0,1.44,6.9c5.4,11.69,11.37,22.94,24.41,28.06a14.93,14.93,0,0,1,5.31,3.18c4.25,4.42,8.64,8.81,12.13,13.8,1.82,2.6,1.74,6.49,2.77,9.72,1.71,5.39.53,8.08-4.77,10-2.42.86-4.89,1.56-7.54,2.39.51,1.25.84,1.9,1.06,2.59.69,2.12,1.33,4.26,2,6.4a56.17,56.17,0,0,1-7.62.68c-1.71-.07-3.37-1.05-5.07-1.55-1.19-.36-2.41-.61-3.7-.93.44,2.26,1.53,4.31,1,5.66-1.53,3.63-7.26,4.26-10.88,2.38a122.65,122.65,0,0,0-15.72-6.66c-1.65-.58-3.85.4-5.8.67.5,1.77.7,3.69,1.55,5.27,2.73,5.1,2.72,5.43-2.3,8.15H626.24c-4.61-1.52-9.19-4.24-13.84-4.35-15-.34-28.69-5.61-42.61-10C562.1,646.51,557.13,639,557,631c-.07-3,.32-6.07-.42-8.86-3.09-11.73-6.34-23.37-12.67-34a77.54,77.54,0,0,1-7.34-17.52c-4.31-14.61-8.8-28.82-17.29-42-11.23-17.37-14.81-37.36-13.12-58,.59-7.28,2.75-14.42,4.35-22.39-2.08,1-3.44,1.86-4.92,2.39-9,3.23-18,6.65-27.13,9.48-5.2,1.61-10.74,2.11-16.07,3.34a4.69,4.69,0,0,0-3,2.4c-3.47,10.66-5.9,21.43-2.76,32.69a41.69,41.69,0,0,1,1.91,9.55,18.86,18.86,0,0,0,7.63,14.95c10,7.6,20.36,14.76,30.53,22.16,1.82,1.32,3.45,2.92,5.57,4.73l-4,1.69c1.77,3.19,3.51,6,4.83,8.9.54,1.21.77,3.52.08,4.12a7.09,7.09,0,0,1-4.93,1.64c-2.29-.26-4.42-1.69-6.7-2.23-1.55-.37-3.25-.07-6.08-.07,1.76,2.45,3,3.44,3.16,4.57.4,3.06.33,6.17.44,9.26a54.87,54.87,0,0,1-7.72-1c-2-.53-3.67-1.9-5.56-2.75-1.48-.68-3.07-1.14-5.09-1.87.15,3,.68,5.29.22,7.33-.27,1.22-2.08,3-3.19,3-4.43,0-8.86-.64-13.3-1-6.21-.48-12.42-.9-19.59-1.42,2,3,3.19,5,4.57,6.94,2.51,3.47,5.36,6.73,7.59,10.36.85,1.39.39,3.58.52,5.41-1.66-.13-3.34-.16-5-.42-2.11-.34-4.61-3.34-6.08-.14-.67,1.44,1.18,4.07,2,6.13a5.28,5.28,0,0,0,1.13,1.35c4.3,4.91,3.9,10.74,3.91,17.3-3-.66-5.34-1-7.58-1.67-3.27-.91-6.46-2.19-9.77-2.93-5.73-1.29-8.3,1.58-6.5,7.06.46,1.4,1.21,2.7,1.8,4.06,1.76,4,.59,6.63-3.69,7.62a11.17,11.17,0,0,1-4.78,0c-4.76-1.07-9.44-2.51-14.2-3.53-6.09-1.31-8.75,1-8.7,7.18a40.38,40.38,0,0,1-.83,5.42c-5.48-7.26-12.32-5.41-18.65-5.84-1.89-.13-4.11-.22-5.57-1.22-5.5-3.77-11.76-3.49-17.92-4.11-12.13-1.23-24.69.07-36-6.24-1.45-.81-3.46-.68-5.21-.93-7.62-1.08-13.3-3.86-14.62-12.72-.89-5.93-3.36-11.64-5.24-17.41-1.5-4.64-2.78-9.47-7.73-11.93a3,3,0,0,1-1.13-1.79c-2.09-7.25-5.41-14.42-5.88-21.78-.71-11,.24-22.15,1.14-33.18,1.1-13.45-1.33-26.4-3.88-40.33-1.5,1.82-2.46,2.87-3.29,4-6.29,8.62-12.23,17.54-18.94,25.82-6.32,7.8-12.82,15.68-20.35,22.24-20.29,17.67-44.14,29.39-69.5,37.66-21.32,6.94-42.92,6.89-64.72.21-16-4.9-30.36-12.53-44.11-21.58a66.89,66.89,0,0,1-13.64-11.87Q21.09,534.56,9.31,518.88c-3.2-4.27-5.14-9.52-7.4-14.44-1-2.12-1.29-4.53-1.91-6.8V491.4a4.84,4.84,0,0,1,6.31-2.65c3.16,1.1,6.57,2.18,9.13,4.2,5.57,4.41,10.67,9.41,16,14.15,6.89,6.15,13.82,12.31,23.43,13.73,16.93,2.51,33.31.4,48.23-8.1,16.54-9.43,30.86-21.63,37.13-40.35,13.21-39.47,22.5-80,31.83-120.53,4.14-18,7.13-36.37,12.29-54.09,9.71-33.32,25.74-63.92,43.34-93.7,12.91-21.84,28.25-41.65,47.22-58.71a590.69,590.69,0,0,1,88.72-66.12C412.76,49.41,466,42,522,51.11c29.09,4.72,56.77,14.75,84.13,25.13,30.7,11.64,60.65,25.27,90.92,38,2.24,1,4.46,1.94,6.7,2.91,4.87-13.17,5.38-14.78,11.44-19.77,13.3-11,27.22-21.13,43-28.3,13.7-6.22,26.5-5,37.56,6.19,4.48,4.52,8.78,9.36,13.84,13.16,9.24,6.94,18.77,13.55,28.57,19.69,14.27,8.94,27.87,20.19,46.67,16.46a1.36,1.36,0,0,1,.45,0c2.73.47,4.19-.92,5.68-3.12,3.81-5.62,7-12.21,12.14-16.28,23.68-18.75,47.12-37.77,75.36-50,19.8-8.56,38.42-19.74,59-26.69a123.1,123.1,0,0,0,22.76-10.95c8.54-5,16.51-11,24.81-16.49,1.06-.7,3.22-1.44,3.7-1a4.86,4.86,0,0,1,1.25,4,23.37,23.37,0,0,1-3.59,7.45c-5.29,6.79-10.82,13.39-16.38,20-5.27,6.21-10.06,13.06-16.22,18.25a394.52,394.52,0,0,1-35.11,26.54c-14,9.31-25.63,21.09-37.79,32.37-.23.21-.22.67-.49,1.56,1.75-1,3-1.7,4.25-2.49,19.34-12.73,41-20,63.16-25.35,23.26-5.66,45.54-12.85,65.17-27,2.48-1.79,6.27-2.18,9.51-2.42,3.08-.23,4.14,2.27,3.11,4.85a18.94,18.94,0,0,1-4,5.78c-3.87,4.07-7.89,8-12,11.84-4.87,4.52-9.51,9.44-14.94,13.2-26.32,18.25-53,36-79.26,54.34-8,5.54-15,12.38-23.44,19.45,10.68,3.25,20.09,6.19,29.58,8.88,1.16.34,2.82-.4,4.05-1,12.43-6.35,22.27-15.12,26.72-28.88a15.09,15.09,0,0,1,1.26-2.27c2.57,1.67,5.06,3.21,7.48,4.87,9.94,6.83,19.63,13.7,23.69,26.14.94,2.9,4.86,5.24,7.91,7,4.87,2.76,10.5,4.24,15.2,7.21C1123.87,194.46,1134.53,208.82,1140.24,226.83Z"/><path class="cls-1" d="M626.24,663.33c-4.61-1.52-9.19-4.24-13.84-4.35-15-.34-28.69-5.61-42.61-10C562.1,646.51,557.13,639,557,631c-.07-3,.32-6.07-.42-8.86-3.09-11.73-6.34-23.37-12.67-34a77.54,77.54,0,0,1-7.34-17.52c-4.31-14.61-8.8-28.82-17.29-42-11.23-17.37-14.81-37.36-13.12-58,.59-7.28,2.75-14.42,4.35-22.39-2.08,1-3.44,1.86-4.92,2.39-9,3.23-18,6.65-27.13,9.48-5.2,1.61-10.74,2.11-16.07,3.34a4.69,4.69,0,0,0-3,2.4c-3.47,10.66-5.9,21.43-2.76,32.69a41.69,41.69,0,0,1,1.91,9.55,18.86,18.86,0,0,0,7.63,14.95c10,7.6,20.36,14.76,30.53,22.16,1.82,1.32,3.45,2.92,5.57,4.73l-4,1.69c1.77,3.19,3.51,6,4.83,8.9.54,1.21.77,3.52.08,4.12a7.09,7.09,0,0,1-4.93,1.64c-2.29-.26-4.42-1.69-6.7-2.23-1.55-.37-3.25-.07-6.08-.07,1.76,2.45,3,3.44,3.16,4.57.4,3.06.33,6.17.44,9.26a54.87,54.87,0,0,1-7.72-1c-2-.53-3.67-1.9-5.56-2.75-1.48-.68-3.07-1.14-5.09-1.87.15,3,.68,5.29.22,7.33-.27,1.22-2.08,3-3.19,3-4.43,0-8.86-.64-13.3-1-6.21-.48-12.42-.9-19.59-1.42,2,3,3.19,5,4.57,6.94,2.51,3.47,5.36,6.73,7.59,10.36.85,1.39.39,3.58.52,5.41-1.66-.13-3.34-.16-5-.42-2.11-.34-4.61-3.34-6.08-.14-.67,1.44,1.18,4.07,2,6.13a5.28,5.28,0,0,0,1.13,1.35c4.3,4.91,3.9,10.74,3.91,17.3-3-.66-5.34-1-7.58-1.67-3.27-.91-6.46-2.19-9.77-2.93-5.73-1.29-8.3,1.58-6.5,7.06.46,1.4,1.21,2.7,1.8,4.06,1.76,4,.59,6.63-3.69,7.62a11.17,11.17,0,0,1-4.78,0c-4.76-1.07-9.44-2.51-14.2-3.53-6.09-1.31-8.75,1-8.7,7.18a40.38,40.38,0,0,1-.83,5.42c-5.48-7.26-12.32-5.41-18.65-5.84-1.89-.13-4.11-.22-5.57-1.22-5.5-3.77-11.76-3.49-17.92-4.11-12.13-1.23-24.69.07-36-6.24-1.45-.81-3.46-.68-5.21-.93-7.62-1.08-13.3-3.86-14.62-12.72-.89-5.93-3.36-11.64-5.24-17.41-1.5-4.64-2.78-9.47-7.73-11.93a3,3,0,0,1-1.13-1.79c-2.09-7.25-5.41-14.42-5.88-21.78-.71-11,.24-22.15,1.14-33.18,1.1-13.45-1.33-26.4-3.88-40.33-1.5,1.82-2.46,2.87-3.29,4-6.29,8.62-12.23,17.54-18.94,25.82-6.32,7.8-12.82,15.68-20.35,22.24-20.29,17.67-44.14,29.39-69.5,37.66-21.32,6.94-42.92,6.89-64.72.21-16-4.9-30.36-12.53-44.11-21.58a66.89,66.89,0,0,1-13.64-11.87Q21.09,534.56,9.31,518.88c-3.2-4.27-5.14-9.52-7.4-14.44-1-2.12-1.29-4.53-1.91-6.8V491.4a4.84,4.84,0,0,1,6.31-2.65c3.16,1.1,6.57,2.18,9.13,4.2,5.57,4.41,10.67,9.41,16,14.15,6.89,6.15,13.82,12.31,23.43,13.73,16.93,2.51,33.31.4,48.23-8.1,16.54-9.43,30.86-21.63,37.13-40.35,13.21-39.47,22.5-80,31.83-120.53,4.14-18,7.13-36.37,12.29-54.09,9.71-33.32,25.74-63.92,43.34-93.7,12.91-21.84,28.25-41.65,47.22-58.71a590.69,590.69,0,0,1,88.72-66.12C412.76,49.41,466,42,522,51.11c29.09,4.72,56.77,14.75,84.13,25.13,30.7,11.64,60.65,25.27,90.92,38,2.24,1,4.46,1.94,6.7,2.91,4.87-13.17,5.38-14.78,11.44-19.77,13.3-11,27.22-21.13,43-28.3,13.7-6.22,26.5-5,37.56,6.19,4.48,4.52,8.78,9.36,13.84,13.16,9.24,6.94,18.77,13.55,28.57,19.69,14.27,8.94,27.87,20.19,46.67,16.46a1.36,1.36,0,0,1,.45,0c2.73.47,4.19-.92,5.68-3.12,3.81-5.62,7-12.21,12.14-16.28,23.68-18.75,47.12-37.77,75.36-50,19.8-8.56,38.42-19.74,59-26.69a123.1,123.1,0,0,0,22.76-10.95c8.54-5,16.51-11,24.81-16.49,1.06-.7,3.22-1.44,3.7-1a4.86,4.86,0,0,1,1.25,4,23.37,23.37,0,0,1-3.59,7.45c-5.29,6.79-10.82,13.39-16.38,20-5.27,6.21-10.06,13.06-16.22,18.25a394.52,394.52,0,0,1-35.11,26.54c-14,9.31-25.63,21.09-37.79,32.37-.23.21-.22.67-.49,1.56,1.75-1,3-1.7,4.25-2.49,19.34-12.73,41-20,63.16-25.35,23.26-5.66,45.54-12.85,65.17-27,2.48-1.79,6.27-2.18,9.51-2.42,3.08-.23,4.14,2.27,3.11,4.85a18.94,18.94,0,0,1-4,5.78c-3.87,4.07-7.89,8-12,11.84-4.87,4.52-9.51,9.44-14.94,13.2-26.32,18.25-53,36-79.26,54.34-8,5.54-15,12.38-23.44,19.45,10.68,3.25,20.09,6.19,29.58,8.88,1.16.34,2.82-.4,4.05-1,12.43-6.35,22.27-15.12,26.72-28.88a15.09,15.09,0,0,1,1.26-2.27c2.57,1.67,5.06,3.21,7.48,4.87,9.94,6.83,19.63,13.7,23.69,26.14.94,2.9,4.86,5.24,7.91,7,4.87,2.76,10.5,4.24,15.2,7.21,15.95,10.12,26.61,24.48,32.32,42.49v18.7c-3.17,12.63-10.12,23.22-18.31,33-2.48,3-6.12,5-9.76,7.82-.31-3-.48-4.68-.66-6.36l-1.49-.72a63.43,63.43,0,0,0-4.68,6.24c-2,3.43-3,7.71-5.58,10.5A107.34,107.34,0,0,1,1043,328.11c-17.27,3.69-34.42,7.38-50.44,15.09-12.13,5.84-24.14,11.94-36.46,17.34-4.63,2-10,3.54-15,3.32-10.4-.45-18.08,3.12-23.78,11.72-3,4.52-7.52,6.95-12.78,8.19-6.91,1.64-13.77,3.48-20.64,5.27-3.37.88-6.53,2.09-7.8,5.84-3.12,9.25-6.92,18.32-9.22,27.76a155.34,155.34,0,0,1-9.39,28.1,27.9,27.9,0,0,0-2.17,14.51,140.72,140.72,0,0,0,5.76,24.59c7.63,23.65,16.34,46.95,17.5,72.22a29.17,29.17,0,0,0,12.08,22.8c9.7,7.27,19,15.08,28.31,22.87,2.26,1.9,3.82,4.62,6.27,7.67-4.14.6-7.22.82-10.17,1.58-1.15.29-2.87,1.84-2.81,2.71.24,3.46-1.74,3.76-4.17,3.44-3.95-.53-7.86-1.33-11.81-1.89-3.07-.44-5.16.49-5.53,4.07a3.83,3.83,0,0,1-2.14,2.77c-5.52,1.28-11.06,2.3-16.15-1.65-1.51-1.17-3.5-1.72-5.81-2.81v11.94a68.56,68.56,0,0,1-7.6,0c-15-1.75-30-3.93-45-5.35-12.62-1.2-24.07-5-33.56-13.46a13.22,13.22,0,0,1-4.12-8.18c-.35-6.33.49-12.72.76-19.09.68-16-1.13-31.32-11-44.83-2.46-3.37-5.07-7.8-4.94-11.66.28-7.8-4.1-12.46-8.28-17.9-8-10.4-15.24-21.3-13.87-35.47a24.61,24.61,0,0,0-.25-4.44c-.25-3.28-2-4.24-4.81-2.72-3,1.62-5.83,3.51-8.69,5.37-7.6,4.94-14.11,4.5-21-1.46-2.36-2-4.8-4-7.15-6a16.28,16.28,0,0,0-15.36-3.75A32.31,32.31,0,0,1,660.18,465c-9.89-4.18-19.13-2.38-27.43,4.37-1.27,1-2.56,2-3.79,3.11-5.45,4.8-9.75,10.07-7.46,18.11a15.46,15.46,0,0,1,.14,3.55c.63,13.68,3.27,26.69,11.7,38,3.52,4.75,6.44,9.95,9.54,15,3.65,6,7,12,6.72,19.43a15.84,15.84,0,0,0,1.44,6.9c5.4,11.69,11.37,22.94,24.41,28.06a14.93,14.93,0,0,1,5.31,3.18c4.25,4.42,8.64,8.81,12.13,13.8,1.82,2.6,1.74,6.49,2.77,9.72,1.71,5.39.53,8.08-4.77,10-2.42.86-4.89,1.56-7.54,2.39.51,1.25.84,1.9,1.06,2.59.69,2.12,1.33,4.26,2,6.4a56.17,56.17,0,0,1-7.62.68c-1.71-.07-3.37-1.05-5.07-1.55-1.19-.36-2.41-.61-3.7-.93.44,2.26,1.53,4.31,1,5.66-1.53,3.63-7.26,4.26-10.88,2.38a122.65,122.65,0,0,0-15.72-6.66c-1.65-.58-3.85.4-5.8.67.5,1.77.7,3.69,1.55,5.27,2.73,5.1,2.72,5.43-2.3,8.15"/></g></g></svg>