<svg xmlns="http://www.w3.org/2000/svg" viewBox="0 0 1888.83 1047"><defs><style>.cls-1{fill:none;}.cls-2{fill:#fff;}.cls-3{fill:#ac0034;stroke:#ac0034;stroke-miterlimit:10;stroke-width:3px;}</style></defs><title>Asset 28</title><g id="Layer_2" data-name="Layer 2"><g id="Layer_1-2" data-name="Layer 1"><polygon class="cls-1" points="0 0 1888.83 1.61 1888.83 1047 0 1047 0 0"/><path class="cls-2" d="M710.81,707.71l1,.85c-3.19,4-6.57,7.78-9.55,11.89-16.92,23.24-30.19,48.61-43,74.22-35,70-64.6,142.23-93.3,214.91-.63,1.62-1,3.34-1.85,6.21,6.22-.43,11.43-.86,16.64-1.13,13.78-.71,27.56-1.44,41.35-1.95,3.26-.12,4-1.56,3.74-4.37-.34-4.13-1-8.31-.73-12.42a298.26,298.26,0,0,1,10.24-59.68c9.93-36.82,23.68-72.25,38.87-107.15,3.84-8.8,8-17.46,12-26.31a20.75,20.75,0,0,1,2.9,1.17c24.89,16,52.92,22.27,81.76,24.33,20.51,1.47,41.21.46,61.83.18A157.15,157.15,0,0,0,854,826.34c13.59-2.06,27.1-4.68,40.7-6.71A432.92,432.92,0,0,0,995.35,792.3c73.87-30.25,133.26-79,180.66-142.79,31.85-42.89,56.42-89.77,76.21-139.27,24.18-60.49,40.44-123.17,51.66-187.23,3.12-17.78,5.68-35.67,8.15-53.55,2.2-15.93,4.19-31.89,5.76-47.89,1.42-14.53,2.25-29.13,3.19-43.71,1-16.25,2.5-32.51,2.76-48.77.45-28.33.17-56.66.07-85,0-4.22-.68-8.44-1-12.65A13,13,0,0,0,1320.7,36c-3.82,12.34-6.69,25.07-11.64,36.93-18.46,44.19-48.76,79.53-85,110-47.66,40-102,68.7-159.53,91.43-41.28,16.3-82.94,31.59-123,50.77-53.47,25.57-104.54,55-150.9,92.18C754,446.68,721.57,480,696,519.58c-28.06,43.44-44.44,90.83-47.21,142.58a231.54,231.54,0,0,0,6,65.29c1.67,7.16,4,14.17,6.39,22.41Z"/><path class="cls-3" d="M710.81,707.71l-49.64,42.15c-2.38-8.24-4.72-15.25-6.39-22.41a231.54,231.54,0,0,1-6-65.29C651.56,610.41,667.94,563,696,519.58c25.57-39.59,58-72.9,94.57-102.26,46.36-37.17,97.43-66.61,150.9-92.18,40.09-19.18,81.75-34.47,123-50.77,57.56-22.73,111.87-51.41,159.53-91.43,36.27-30.46,66.57-65.8,85-110,5-11.86,7.82-24.59,11.64-36.93a13,13,0,0,1,2.06-4.57c.37,4.21,1,8.43,1,12.65.1,28.33.38,56.66-.07,85-.26,16.26-1.71,32.52-2.76,48.77-.94,14.58-1.77,29.18-3.19,43.71-1.57,16-3.56,32-5.76,47.89-2.47,17.88-5,35.77-8.15,53.55-11.22,64.06-27.48,126.74-51.66,187.23-19.79,49.5-44.36,96.38-76.21,139.27-47.4,63.81-106.79,112.54-180.66,142.79a432.92,432.92,0,0,1-100.61,27.33c-13.6,2-27.11,4.65-40.7,6.71a157.15,157.15,0,0,1-21.28,2.12c-20.62.28-41.32,1.29-61.83-.18-28.84-2.06-56.87-8.3-81.76-24.33a20.75,20.75,0,0,0-2.9-1.17c-4,8.85-8.18,17.51-12,26.31-15.19,34.9-28.94,70.33-38.87,107.15a298.26,298.26,0,0,0-10.24,59.68c-.25,4.11.39,8.29.73,12.42.23,2.81-.48,4.25-3.74,4.37-13.79.51-27.57,1.24-41.35,1.95-5.21.27-10.42.7-16.64,1.13.85-2.87,1.22-4.59,1.85-6.21,28.7-72.68,58.33-145,93.3-214.91,12.81-25.61,26.08-51,43-74.22,3-4.11,6.36-7.94,9.55-11.89Z"/></g></g></svg>