<svg xmlns="http://www.w3.org/2000/svg" viewBox="0 0 832.37 461.39"><defs><style>.cls-1{fill:#ac0034;stroke:#ac0034;stroke-miterlimit:10;stroke-width:3px;}.cls-2{fill:none;}</style></defs><title>Asset 24</title><g id="Layer_2" data-name="Layer 2"><g id="Layer_1-2" data-name="Layer 1"><path class="cls-1" d="M555,66l-.81,1.13c1.31,1.08,2.55,2.24,3.92,3.22,6,4.28,11.78,8.89,18.07,12.68,7.77,4.68,16,8.51,23.94,13,5.5,3.12,10.86,6.35,17.08,8,4.53,1.19,5,3,2.73,7.22-2.13,4-4.44,7.85-6.28,11.94A49,49,0,0,0,609.27,150c1.16,9.1,1.75,18.27,2.4,27.42.58,8.11.68,16.27,1.39,24.37.77,8.81.39,17.23-3.58,25.48-4.05,8.43-3.54,16.82,3.35,23.88,3.94,4.05,4.09,8.51,2.63,13.52-2.84,9.76-5,19.62-5.11,29.88-.05,7.59-1.89,14.72-7.86,20a81.2,81.2,0,0,1-10.62,7.8c-6.79,4.25-12,9.76-14.88,17.29-3.13,8.14-8.32,14.76-14.71,20.59a67.58,67.58,0,0,0-7.44,8c-3.44,4.32-2.63,9.48,1.72,12.81a18.69,18.69,0,0,0,3.3,2.28,20.85,20.85,0,0,1,10.94,12.7c1.55,4.62,4.69,7.55,8.22,10.34a5.49,5.49,0,0,0,3.07,1.15c5.26.11,10.53-.05,15.8.09,2.19.05,3.9-.93,4.07-2.75a3.54,3.54,0,0,0-3.35-4.17c-3.41-.32-6.27-1.74-7.76-5-3.23-7.12-6.31-14.31-9.58-21.41-1.86-4-.68-7.18,2.45-9.92.51-.44.95-1,1.45-1.4,11.64-10.37,23.19-20.86,35-31.08,8.55-7.42,17.32-14.55,22.58-24.91a13.45,13.45,0,0,1,2-2.23,50.57,50.57,0,0,1,.68,26.73c-2.49,10.39-2.63,20.57,1.64,30.65,2.34,5.53,4.84,11.19,5.88,17,1.36,7.66,1.33,15.57,1.94,23.37.08,1,.11,2.37.73,2.86,2.09,1.64,4.28,2.81,7.31,2.55,7-.59,14-1.38,20.89-.76,7.38.67,14.5-.16,21.71-1a4.19,4.19,0,0,0,3.73-3c1.58-4.39-.08-10.07-6.71-8.24-6.93,1.91-12.23-.08-17.47-4a12.16,12.16,0,0,0-2.25-1.27c-6.94-3.09-9.54-8.68-9.28-16,.21-5.64.47-11.28.49-16.93.09-16.67.07-33.34.1-50,0-.94-.17-2.38.33-2.74,2.05-1.46,1.54-3.39,1.23-5.18a335.48,335.48,0,0,0-12.21-49.49,15.43,15.43,0,0,1-.6-9.13c3-12.33,6.86-24.51,7.15-37.37,0-.57.65-1.22,1.13-1.68,2.87-2.74,6.34-5,8.58-8.21,7.08-10,11.17-21.51,15.72-32.76,1.77-4.39,3.45-8.82,5.26-13.48,1.39.78,2.47,1.35,3.51,2,5.37,3.29,10.72,6.63,16.13,9.86a3.65,3.65,0,0,0,2.81.54,68.46,68.46,0,0,0,6.5-4.22c-3.36-2.71-6.1-5.15-9.07-7.28-4.15-3-8.66-5.51-12.68-8.65-5.94-4.64-11.45-9.84-17.41-14.44-4.48-3.46-4.65-3.17-9.06.41-.71.57-2.22,1.24-2.66.92-4.11-3-8.07-6.29-12.33-9.69a10.86,10.86,0,0,1,2.45-1.41c4.3-.87,6.36-4,8.21-7.56s3.62-7.24,3.71-11.55a10.32,10.32,0,0,1,2.31-5.8c1.33-1.63,1.73-3,.66-4.6-1.39-2-3.11-3.85-4.54-5.87a7.81,7.81,0,0,1-1.54-3.43c-.36-3.51-.35-7.06-.64-10.58-.25-3.16-1.3-5-4.75-6.87-6-3.28-12-3.81-18.49-3.83A20.65,20.65,0,0,0,643,57.59c-5.65,3.3-9.71,8.26-14.23,12.8a13,13,0,0,0-4,9.7c0,2.87-.09,5.75-.31,8.61-.24,3.07-1.77,4.42-4.76,3.81a27.31,27.31,0,0,1-5.76-2.39c-2.59-1.2-5-2.85-7.72-3.63-3-.86-5.65-1.57-8.31-3.56-8.92-6.67-19.3-10.4-29.94-13.41C563.62,68.31,559.31,67.17,555,66Zm-62.5,37.42a6,6,0,0,1,.5-.93c3.48-4.21,2.66-7.89-2.08-10.34-1.4-.73-3.2-1.94-3.55-3.25-1.2-4.65-4.25-7.3-8.61-7.67-5-.43-10.05.09-15.08.33a17.75,17.75,0,0,0-14.28,8c-4.56,6.7-8.5,13.82-12.82,20.69a5.45,5.45,0,0,0-.56,5.6,3,3,0,0,1-.62,2.81c-11.27,8.25-17.45,19.74-20.35,33-1.93,8.84-2.8,17.92-4,26.91-.89,6.63-1.93,13.27-2.18,19.93-.28,7.44.37,14.91.37,22.36A16.67,16.67,0,0,1,408,228c-2.67,5.38-2.55,11.06-2.88,16.78-.36,6.31,1.86,11.29,7.08,14.72,4.67,3.07,6.38,6.81,6,12.66-.7,12.13-.25,24.33-.48,36.5a10.25,10.25,0,0,1-1.92,5.47,84.29,84.29,0,0,1-8,9.39c-8,8-13.32,17.17-13.63,28.82a26.54,26.54,0,0,1-1.37,8.67c-3.16,8.2-6.85,16.21-10.08,24.39a24.25,24.25,0,0,0-1.52,7.74c-.24,5.53,1,6.64,6.68,7.35,2.62.34,5.52.56,7.7,1.85,3.77,2.24,7.77,3,11.93,3.52,7.59,1,15.13,2.25,22.85,1.12,2.32-.33,3-1.15,2.73-3.25-.09-.75,0-1.54-.18-2.28-.43-2.35-1.56-3.52-4.21-2.84a6.62,6.62,0,0,1-3.54-.42c-2.05-.71-4-1.79-6-2.51-3.15-1.11-6.38-2-9.54-3.08-2.71-.95-3.84-2.84-4.08-5.87-.43-5.47,1.51-9.88,4.27-14.45,6.17-10.22,11.7-20.83,17.77-31.12a37.6,37.6,0,0,1,7.53-9.59,43.58,43.58,0,0,0,14.14-22.46,18,18,0,0,1,1.11-2.32,91,91,0,0,0,6.33,7.53c2.45,2.34,2.77,5,2.54,8.09-.59,8.2-.77,16.44-1.59,24.62-.81,8,1.76,15.28,3.93,22.7,3.38,11.5,6.09,23.14,6.42,35.19.06,2.43,1.35,2.5,3.14,2.52q24,.19,48,.47c2.16,0,3.65-.21,3.85-2.94.31-4.2,0-5.19-3-6-1.38-.37-2.93-.51-4.06-1.26a5.61,5.61,0,0,0-5.67-.58c-3.77,1.53-6.78.48-9.45-2.56a21.91,21.91,0,0,0-5.13-4.08,12.54,12.54,0,0,1-5.78-7.24,54.24,54.24,0,0,1-2.5-11.15c-1-13.54-1.72-27.11-2.39-40.68-.5-10-.67-20.09-1.17-30.13-.33-6.65-1.71-13.1-5.12-18.95-3.71-6.36-7.25-12.85-11.33-19-4.38-6.6-7.12-13.45-6-21.51.22-1.7-.08-3.48.21-5.15.74-4.16,3.27-5.37,6.94-3.53a83.71,83.71,0,0,0,9.31,4.48c3.61,1.28,5.31,3.79,6.19,7.21a6.73,6.73,0,0,0,.55,1.62c1.31,2.26.06,3-1.92,3.53-5.58,1.43-10,8.32-9,14.6,2.85-1,5.78-1.62,8.32-3,5.27-2.83,10.4-3.18,15.49,0,2.71,1.72,10.06.29,12.75-2.08,3.52-3.12,7.22-6.71,11.5-8.16,8.34-2.83,16.66-6.22,25.75-6.41,5.2-.1,7.73-2.07,8.52-6.47.56-3.14.38-6.41.54-9.75a8.57,8.57,0,0,0-1.59,0c-12.44,3-24.87,6.14-37.33,9.1-2.49.59-5,2.08-7.67.2-11.84-8.45-23.72-16.84-35.52-25.34a3.51,3.51,0,0,1-1.22-2.77,30.05,30.05,0,0,1,1.56-4.82c1.8-5.72,4.24-11.27,4.14-17.49q-.19-13.22,0-26.45a29.34,29.34,0,0,0-2.66-12.18,150.66,150.66,0,0,1-5-14.58c-.68-2.21.22-3.34,2.78-3.19,3.25.2,6.51.06,9.77,0,6.15,0,13.07-4.64,14.93-10,2.36-6.75.48-12.66-5.47-17.24A5.3,5.3,0,0,1,492.5,103.41Zm-166.92,220c3.83-.27,6.83-1.92,8.55-4.89,4.49-7.71,6.43-16,3.05-24.65-2.09-5.34-4.78-10.44-7.19-15.65-4.56-9.88-9.77-19.5-11.92-30.34a4.47,4.47,0,0,0-1.91-2.23c-7-4.83-9.1-11-6.24-18.93,2.63-7.28,5.9-14.41,6.25-22.28.32-7.08.22-14.17.26-21.26,0-4.34.55-4.82,4.87-3.7,2.66.7,5.21,2.24,7.88,2.44,5.24.39,10.53.17,15.8.08a7.24,7.24,0,0,0,3.26-.92c7.48-4.13,11.06-10.25,3.92-17.6-2-2.08-2.24-4.08-1.34-6.7,1.4-4.1,1.06-4.78-2.57-7.46-3-2.23-6.19-4.49-7.22-8.28-1.57-5.78-5.2-7.82-10.91-7.19a39.63,39.63,0,0,1-6.89,0,16.63,16.63,0,0,0-10.86,3c-4,2.81-7.77,5.85-11.68,8.74-4.92,3.63-9.89,7.19-14.82,10.8a57.08,57.08,0,0,0-5,3.84,67.81,67.81,0,0,0-15.25,20.63,290.18,290.18,0,0,0-11.7,27.71c-2.81,7.79-5.37,15.84-6.57,24-1.88,12.84-2.48,25.84-6.73,38.29-2.26,6.62-1.43,13,3.07,18.72,1.83,2.32,3.49,4.78,5.29,7.13,5.53,7.22,11.06,14.42,14.73,22.84,3.29,7.55,3.58,14.33-2.35,21.2-7.67,8.88-14.55,18.45-21.64,27.82-5,6.62-9.48,13.47-8.26,22.51a12.44,12.44,0,0,0,3.16,7.15,75.4,75.4,0,0,1,5.45,6.53c1.45,2,3,3.22,5.65,3.18q11.92-.19,23.86,0a4.49,4.49,0,0,0,4.63-3c1.82-4.05-1.44-8.42-6.22-8.9a145.55,145.55,0,0,1-14.4-2.23c-3.5-.71-4.71-2.24-4-5.74a16.1,16.1,0,0,1,3.42-7.6,147.68,147.68,0,0,1,13.54-12.8,70,70,0,0,0,12.39-13.46c3.24-4.61,6.7-9.07,10.31-13.4,1.75-2.11,3.88-4.09,7.27-4.25-.16,1-.22,1.65-.37,2.28-1.42,5.88-2.18,11.78-1.26,17.85.7,4.63,1.17,9.29,1.77,13.94,1.31,10.24,2.6,20.49,4,30.72.4,2.94,4.74,6.56,7.69,6.56,11.21,0,22.42-.05,33.63,0,1.88,0,3-.59,3.71-2.41,1.76-4.88-.76-8.14-6-7.58-1.5.16-2.83.29-3.62-1.43-.24-.51-1.08-.73-1.64-1.1-3.32-2.21-7.08-2-10.81-2-3.54,0-5.3-1.46-5.4-4.6-.24-7.18-.35-14.36-.41-21.55-.1-12.34.29-24.7-.3-37-.82-17.23-9.62-30.47-22.36-41.45-3.5-3-6.92-6.18-8.28-10.8-.41-1.38-.74-3.28-.11-4.38,2.58-4.62,6.32-8.29,10.77-11.66.6.89,1.11,1.55,1.53,2.27,2.29,4,4.52,8,6.86,11.95.66,1.12,1.41,2.63,2.47,3,6.35,2.28,10.27,7.23,13.87,12.44,2.37,3.42,5.11,6.89,4.85,11.4-.33,5.73-1,11.44-1.47,17.16C325.51,321.13,325.58,322.15,325.58,323.4Zm-170.5,70c1.3,2.72,2.46,5.24,3.71,7.72a4.35,4.35,0,0,0,1.56,1.94c4,2,10.3-.21,12.32-4.24a28.52,28.52,0,0,0,2.65-15.64c-.87-8.93-2.39-17.79-3.7-26.67q-1.4-9.36-3-18.68a24.94,24.94,0,0,0-1.4-4.2c-.58-1.57-2.06-3.41-1.66-4.64a11,11,0,0,0-1.2-10,2.06,2.06,0,0,1-.26-1.1c.13-5.93-.46-12,.6-17.74,1.34-7.28,4.07-14.3,6.13-21.45,1.38-4.81,1.67-5,6.42-3.18.44.17.86.42,1.3.6,6.73,2.73,13.2,1.8,19.15-2,5.07-3.2,5.81-6.55,3.46-12-.41-1-.73-2-1.22-2.9-1.51-2.81-2.22-5.54-.67-8.7.43-.87-.23-2.86-1.05-3.66a62.1,62.1,0,0,0-7.57-6.14c-1.85-1.3-3.91-2.9-6-3.11-7.46-.74-14.9-.59-21.89,2.86-6.09,3-12.27,6-19.26,6.11a29.61,29.61,0,0,0-18.23,6.69c-8.2,6.4-16.37,12.85-24.3,19.58a121.83,121.83,0,0,0-25.89,30.46c-5,8.33-5.46,16.53,0,24.8,1.32,2,2.51,4.07,3.68,6.16,1.92,3.41,3.9,6.8,5.61,10.32a5.51,5.51,0,0,1-1.29,7.06c-3.3,2.91-6.51,5.92-9.94,8.66-8,6.45-16.35,12.61-24.27,19.21-4.79,4-4.82,6.94-.88,11.82,3,3.77,5.62,7.7,6.55,12.58a3.38,3.38,0,0,0,1.93,2.11c7.36,2.6,15,2.75,22.61,1.73.7-.09,1.85-1.25,1.79-1.81a35.21,35.21,0,0,0-1.17-5.23,29.47,29.47,0,0,0-4-1.16c-4.71-.66-8.48-2.51-10.65-7.09-1.95-4.11-1.72-5.16,2.36-6.9.79-.34,1.6-.66,2.35-1.06,7.57-4.06,15.25-7.78,22.15-13.12,5.65-4.37,10.81-8.68,12.87-15.82a2.52,2.52,0,0,1,2.21-1.06c3.36.82,4.37,3.09,3.61,6.9-.63,3.17-1.8,6.5-1.36,9.56C110.9,381.8,113,392.5,115,403.21a3.19,3.19,0,0,0,2.06,1.87c10.76,2.76,21.73,3.29,32.77,2.74a3.72,3.72,0,0,0,2.49-2.4c.38-1.7-4.18-6.61-6-6.94-3.57-.66-7.13-1.36-10.7-2-1.44-.25-2.26-.83-2.08-2.45.59-5.42,1-10.87,1.76-16.26.31-2.11,1.89-4,2.17-6.16,1.16-8.71,2-17.46,3-26.19.32-2.76.81-5.51,1.23-8.26l.79-.11a19.67,19.67,0,0,1,1.5,2.26c2.74,5.69,5.64,11.3,8.09,17.11a239,239,0,0,1,8.83,23c1.07,3.46.62,7.63-.13,11.28C160.59,391.9,157.22,392.46,155.08,393.39Z"/><polygon class="cls-2" points="0 0 832.37 0.71 832.37 461.39 0 461.39 0 0"/></g></g></svg>