<svg xmlns="http://www.w3.org/2000/svg" viewBox="0 0 992 549.88"><defs><style>.cls-1{fill:none;}.cls-2{fill:#001f2b;}.cls-3,.cls-4{fill:#ac0034;}.cls-4{stroke:#ac0034;stroke-miterlimit:10;stroke-width:2px;}</style></defs><title>Asset 14</title><g id="Layer_2" data-name="Layer 2"><g id="Layer_1-2" data-name="Layer 1"><polygon class="cls-1" points="0 0 992 0.84 992 549.88 0 549.88 0 0"/><circle class="cls-2" cx="496.2" cy="275.39" r="273.93"/><path class="cls-3" d="M614.38,246.8c2.9,18.56,5.68,36.39,8.49,54.37a14.75,14.75,0,0,1-1.68.51c-3.63.58-7.27,1.09-10.89,1.71-1.35.24-2-.12-2.18-1.53-.3-2.28-.78-4.54-1.08-6.82-.2-1.57-.81-2.17-2.42-1.61-4.56,1.59-9.21,2.93-13.67,4.73a17.76,17.76,0,0,0-6.25,4.07,53.93,53.93,0,0,1-17.86,12.62c-7.46,3.38-14.52,7.68-22.64,9.52-6.22,1.41-12.26,3.66-18.83,3.23-4.57-.31-9.19,0-13.76-.25-3.3-.19-3.82-1-3.35-4.3.19-1.26-.26-1.79-1.41-1.84A48.94,48.94,0,0,1,501,321c-4.23-.67-8.43-1.56-12.63-2.4a2.8,2.8,0,0,1-1.53-.77c-2.32-2.87-5.18-2-8.07-1.34-1.61.38-3.23.7-4.85,1-2.58.55-4.52-.37-5.47-2.58a4.86,4.86,0,0,1,2.12-6.16,34.07,34.07,0,0,1,6.24-2.36c13.6-3.75,27.22-7.4,40.83-11.12a11.71,11.71,0,0,0,3.38-1.34c.6-.4.83-1.37,1.23-2.09-.75-.23-1.57-.77-2.25-.64-4.23.82-8.46,1.7-12.65,2.74-7.47,1.87-14.92,3.79-22.34,5.85-3.46,1-6.8,2.35-10.23,3.44-3.09,1-4.82.52-5.7-1.31a4.94,4.94,0,0,1,2.08-6.56c6.19-3.19,12.42-6.41,18.88-9,8.62-3.42,17.55-6,26.2-9.39,5.15-2,10-4.67,15-7.16,5.59-2.83,8-8.13,9.77-13.66a4.64,4.64,0,0,0-1.06-3.88,66.74,66.74,0,0,0-7.27-6c-5.32-4-10.81-7.87-16-12a17.49,17.49,0,0,1-4-5.24,4.13,4.13,0,0,1,.87-5.49c1.68-1.41,3.26-.78,5,.09,11.22,5.68,22.65,11,33.68,17,9.5,5.2,19.41,9.76,27.93,16.66a7.11,7.11,0,0,0,4.4,1.43c5-.25,10-.86,15-1.35a1.4,1.4,0,0,0,1.39-1.93c-.12-.56-.18-1.14-.27-1.7-.71-4.46-.71-4.43,3.84-5.2C607.66,248.07,610.83,247.45,614.38,246.8Z"/><path class="cls-3" d="M345.93,268.76c4.33-.8,8.69-1.63,13.07-2.35.37-.06,1.1.58,1.24,1a33.17,33.17,0,0,1,.75,3.82,15.21,15.21,0,0,0,2-.38,57.78,57.78,0,0,0,7.95-2.74,28.73,28.73,0,0,0,7.69-5,62.65,62.65,0,0,1,14.17-10.49,140,140,0,0,1,36.14-13.9,21.83,21.83,0,0,1,4.7-.51c5.67,0,11.35-.09,17,.08,3.89.13,4.28.7,4.11,4.52-.07,1.43.82,1.75,1.88,1.81,1.87.11,3.77-.08,5.6.19,3.83.56,7.64,1.29,11.43,2.08a5.3,5.3,0,0,1,2.87,1.4c1.89,2.23,4.09,1.87,6.48,1.34,2.18-.48,4.39-.83,6.6-1.15,2.76-.41,4.39.42,5.08,2.46a4.72,4.72,0,0,1-2.18,5.95,50.5,50.5,0,0,1-8.08,3c-13.59,3.74-27.22,7.38-40.83,11.06a3.65,3.65,0,0,0-1.77.74,10.84,10.84,0,0,0-1.21,2.32c.74.25,1.55.85,2.2.71,5.32-1.23,10.62-2.58,15.92-3.91a31.27,31.27,0,0,1,4-1.05c8.09-1,15.66-3.72,23.21-6.55a21.77,21.77,0,0,1,3.95-1.07c3.09-.51,5.39,2.06,4.13,4.9a8.85,8.85,0,0,1-3.68,4.24c-6.84,3.33-13.76,6.58-20.84,9.35-9.18,3.59-18.65,6.43-27.77,10.14a70,70,0,0,0-13.25,7.58c-4,2.74-5.49,7.32-6.71,11.77-.29,1.06.6,2.93,1.54,3.77,2.6,2.34,5.53,4.32,8.31,6.47,5.4,4.17,10.82,8.31,16.15,12.56a7.86,7.86,0,0,1,2.95,6c.14,3.27-2.22,4.93-5.24,3.71a6.28,6.28,0,0,1-.59-.27c-6-3.17-12.07-6.38-18.13-9.51-3.64-1.88-7.4-3.54-11-5.49-9.69-5.22-19.32-10.54-29-15.83a5,5,0,0,1-1.39-1c-4.54-5.12-10.39-3.43-16-3.1-1.47.09-1.4,1.15-1.2,2.23.55,2.82,1,5.66,1.64,8.48.31,1.44-.11,2.08-1.6,2.32-3.56.57-7.1,1.24-10.63,2-1.31.27-2,0-2.25-1.42q-4.73-25.71-9.51-51.41A3.93,3.93,0,0,1,345.93,268.76Z"/><path class="cls-4" d="M621.12,301.41l148.35-32.53a279.77,279.77,0,0,0-9.11-65.07l-147,42.95Z"/><path class="cls-4" d="M222.92,297.51l124.68-28.4,12,53L235.94,360a244,244,0,0,1-13-62.46Z"/></g></g></svg>