<svg xmlns="http://www.w3.org/2000/svg" viewBox="0 0 650.05 360.33"><defs><style>.cls-1{fill:#ac0034;stroke:#ac0034;stroke-miterlimit:10;stroke-width:3px;}.cls-2{fill:none;}</style></defs><title>Asset 29</title><g id="Layer_2" data-name="Layer 2"><g id="Layer_1-2" data-name="Layer 1"><path class="cls-1" d="M148.05,324.48v-.82a11,11,0,0,0,.75-.94q15.75-25.77,31.5-51.54c2.2-3.6,4.09-7.47,6.76-10.69,13-15.7,26.24-31.22,39.4-46.8,2.89-3.42,5.93-6.73,8.71-10.24,2-2.46,3.59-5.17,5.38-7.79l2.8,1.83c.43-2.63.94-5.05,1.2-7.49.35-3.33.58-6.68.73-10a5.33,5.33,0,0,0-.61-2.82,64.3,64.3,0,0,1-6.21-12.38c-.29-.85-.71-1.66-1.11-2.57-.73.32-1.37.55-2,.86a114.37,114.37,0,0,0-24.56,17.1q-10.2,9.38-20.36,18.79c-.33.3-.71.77-1.08.79-1.82.08-3.66,0-5.64,0,.34-.31.62-.54.87-.8,4.43-4.6,9-9.08,13.27-13.82,9.44-10.46,19.21-20.53,31.43-27.85a1.53,1.53,0,0,0,.56-1.3c-1.71-7.36-2.2-14.87-2.61-22.37-.39-6.88-.4-13.78-.92-20.65-.54-7-1.5-14-2.25-21a2.85,2.85,0,0,1,.22-1.54c1.28-2.38,2.56-4.77,4-7.06,3.46-5.57,7.44-10.74,12.67-14.77,1.72-1.32,2.94-2.55,3.39-4.86,1-5.28,4.44-8.8,9.23-11.08a2.15,2.15,0,0,0,.9-1,26.4,26.4,0,0,1,1.73-4c5.07-7.34,12.28-10.7,21.05-11.12a8.61,8.61,0,0,0,2.93-.84c2.75-1.22,5.41-2.68,8.21-3.77a43,43,0,0,1,5.82-1.43h5l6,2.12a1.2,1.2,0,0,0,.53,0l9.47-2.1h1.93c2.31.69,4.61,1.39,6.93,2.07a2.7,2.7,0,0,0,.94,0c1.78-.13,3.56-.32,5.35-.4,4.35-.21,8.71-.36,13.06-.57,1.54-.08,3.16-.7,4.6-.38,7.55,1.63,15.05,3.52,22.58,5.24a2.78,2.78,0,0,1,1.89,1.37q5.71,9,11.49,18c9.81,15.19,19.19,30.6,24.52,48.09a1.74,1.74,0,0,0,1.1,1c11.38,2.16,22.79,4.14,34.15,6.43,12,2.43,24,5.11,36,7.74,2.61.58,5.18,1.4,7.89,2.14-.91,1.2-1.66,2.3-2.52,3.3a1.46,1.46,0,0,1-1.22.39c-7.58-1.52-15.13-3.22-22.74-4.62-8.42-1.56-16.89-2.88-25.34-4.25-6.92-1.12-13.85-2.18-20.77-3.26-2.88-.45-5.76-.87-8.69-1.32,1.27,5,2.54,9.91,3.7,14.8a3.23,3.23,0,0,1-.33,2.13c-1.06,1.92-2.24,3.78-3.44,5.63a1.29,1.29,0,0,0,0,1.82c1.63,1.61,3.29,3.17,4.94,4.77a24.55,24.55,0,0,1,3.67,3.68c6.26,9.5,12.4,19.08,18.56,28.65a4.39,4.39,0,0,1-1.09,5.78,13,13,0,0,1-5.88,2.12c-5.38.5-10.75,1.11-16.22,1.69a33.16,33.16,0,0,0,0,9.49c.48,2.87,2,5.27,3.29,7.8a3.72,3.72,0,0,0,2.35,1.92c4.56,1.67,9.1,3.38,13.67,5a7.74,7.74,0,0,1,4.35,4c3.78,7.47,5.7,15.53,7,23.73,1.1,6.88,1.94,13.79,3.09,20.66,1.05,6.21,2.75,12.26,6.11,17.67,1.43,2.31,3.17,4.42,4.67,6.49,1.63-5.54,3.21-10.88,4.74-16.23a1.51,1.51,0,0,0-.4-1.13,5,5,0,0,1-1.34-4.84c1.08-3.59,2.23-7.16,3.58-10.66a5.19,5.19,0,0,1,5.58-2.9A112.21,112.21,0,0,1,496.37,253c2.11,1,3.87,2.2,4.68,4.47v2.21q-1.65,4.86-3.29,9.73a5.2,5.2,0,0,1-3.37,3.55c-.88.27-1.13.82-1.41,1.59-1.5,4.07-2.85,8.22-4.68,12.15-3,6.38-6.88,12.15-12.64,16.41-2.87,2.12-6,3.54-9.7,3.18-1-.1-2.07-.4-3.12-.53A36.38,36.38,0,0,1,446,299.29c-7.44-5.35-11.54-12.86-13.87-21.51-2.16-8-2.49-16.2-2.26-24.44a81.92,81.92,0,0,1,1.65-16,27.5,27.5,0,0,0,.06-12.82c-.78-3.14-1.87-6.34-4.11-8.59-4-4-9.19-6.38-14-8.72a6.94,6.94,0,0,1-.52,1.63c-1.15,1.86-2.56,3.6-3.53,5.55a9.59,9.59,0,0,0-.55,8.34c1.15,2.73,1.89,5.63,2.86,8.44a10.58,10.58,0,0,1,.1,6.49c-.92,3.27-3,5.85-5.07,8.41-2,2.4-4.23,4.38-7.4,4.9-1.67.28-3.38.3-5.07.45a72.46,72.46,0,0,1-26.41-2.5c-4.74-1.36-9.41-3-14.13-4.47-.44-.14-1.2-.17-1.44.09-1.73,1.89-3.45,3.8-5,5.85a14,14,0,0,0-1.34,3.28l12,.82c-.23.48-.4.89-.6,1.28l-10.91,21c-1.68,3.22-1.64,3.19,1.13,5.64,1.75,1.55,3.71,3,5,4.89,6.45,9.48,12.72,19.09,19.05,28.65l5.6,8.49c-3.28.3-6.37.54-9.46.87-6.11.64-12.21,1.36-18.31,2-7.07.75-14.14,1.46-21.21,2.17-2,.2-3.92.34-5.88.51H310.21a10.08,10.08,0,0,0-1.33-.26,87.33,87.33,0,0,1-21.26-3.31c-6.91-2.09-13.73-4.5-20.59-6.76-19.49-6.39-39-12.58-59.37-15.7a84.33,84.33,0,0,0-18.92-1.06c-7.87.57-14.51,3.43-19.87,9.32a67,67,0,0,1-7.42,7.17A23.72,23.72,0,0,1,148.05,324.48Zm108.7-273c4.67-2.3,9.1-4.47,13.52-6.67a1.19,1.19,0,0,0,.62-.8c0-1.67,1-2.69,2.15-3.62.86-.71,1.83-1.29,2.83-2C267.33,38.31,258.34,45.24,256.75,51.43Zm26.33-15.49a32.9,32.9,0,0,1,4.07-.29,32.85,32.85,0,0,1,4,.66,1.13,1.13,0,0,0,.41,0l5.28-1.47c1.75-.48,3.51-.94,5.27-1.41C295.32,31,289.07,32.54,283.08,35.94Z"/><polygon class="cls-2" points="0 0 650.05 0.55 650.05 360.33 0 360.33 0 0"/></g></g></svg>