<svg xmlns="http://www.w3.org/2000/svg" viewBox="0 0 2506.01 1389.11"><defs><style>.cls-1{fill:#ac0034;stroke:#ac0034;stroke-miterlimit:10;stroke-width:3px;}.cls-2{fill:none;}</style></defs><title>Asset 34</title><g id="Layer_2" data-name="Layer 2"><g id="Layer_1-2" data-name="Layer 1"><path class="cls-1" d="M1153,55h2a37.41,37.41,0,0,0,4,1.79c62.19,19.75,124.63,38.74,186.53,59.38q105.87,35.29,210.87,73.15c29.1,10.46,57.16,23.77,85.69,35.8,1.38.58,2.71,1.28,4,2,8.87,4.85,9.25,8.3.66,13.38A170.35,170.35,0,0,1,1623.56,252c-7.37,3-15.55,4-22.8,7.16a233.74,233.74,0,0,0-30.12,15.57c-49.7,31.08-99.16,62.56-148.76,93.8-2.54,1.59-3.32,3.3-2.89,6.09,1.9,12.5,3.12,25.14,5.69,37.5,4.35,20.94,6.53,41.78,1.39,62.87a24.24,24.24,0,0,0-.2,3.63c3.69-.95,6.82-1.83,10-2.55,11.71-2.68,18.12,1.14,21.06,12.82,2.88,11.39,2.77,22.66-1.31,33.91a72.11,72.11,0,0,0-3.66,15.5c-2.58,20.35-11.36,37.81-24.34,53.32-6.71,8-14.35,14.84-25.24,16.82-3.81.7-6.38,3-7.64,7q-5.71,18.35-12,36.53a11.85,11.85,0,0,0,.64,9.43c8.59,19.47,17.15,39,25.14,58.67,2.38,5.87,4.89,11.31,9.72,15.38,6.75,5.69,13.43,11.5,20.52,16.73,20.77,15.34,39.56,32.64,55,53.43a52.51,52.51,0,0,0,7,7.82q30.2,26.94,60.55,53.7c4.32,3.82,9,5.19,14.74,3.07,10.59-3.92,19.18-.94,27,7.2,9.44,9.85,20,18.61,29.47,28.46,7.1,7.4,14,15.23,19.51,23.84,6,9.35,10.66,19.6,15,29.84,17.84,42,30.92,85.78,45.32,129,14.06,42.25,24.18,85.23,25.69,129.88,1.21,36,1.81,72,2.75,107.92A42.72,42.72,0,0,0,1742,1333c-.34.67-.55,1.78-1,1.91a13.82,13.82,0,0,1-3.47.09H764v-28c.62-8.78,1.31-17.56,1.85-26.35a634.69,634.69,0,0,1,48.68-209.19c23.28-55.25,51.7-107.74,83.06-158.73,14.68-23.88,27.92-48.42,36.56-75.29A119,119,0,0,1,953.76,800c3.71-4.72,8.12-8.65,14.14-9.64,16.8-2.77,33.65-4.3,50.67-1.35a23.68,23.68,0,0,0,11.72-.72c12.15-4.52,24.36-9.1,36-14.85,17.9-8.86,35.1-19.12,53-27.92,7.34-3.6,11.94-8,12.83-16.14a13.82,13.82,0,0,1,.92-3.88c2.39-5.56.43-9.38-3.84-13.38-31.89-29.86-48.86-67.13-54.42-110.11-.73-5.63-2.45-11.75-5.63-16.32-8.39-12.06-12.61-25.55-16.28-39.46s-4.39-28.49-11.31-41.74c-4-7.59,1.48-14.14,10.39-14.4,3.75-.11,5.86-.93,5.72-5.41-.54-16.81-1.43-33.66-.89-50.46.5-15.6,2.38-31.17,4.17-46.7,1.23-10.74,3.23-21.4,5.12-32.06.91-5.13-.54-8.05-5.86-9.42-6.11-1.57-12-4-18.07-5.76-25.94-7.37-51.88-14.75-77.9-21.82-9-2.44-10.49-.61-8.76,8.46,1.87,9.81,4.3,19.57,5.34,29.48,3.31,31.82,7.32,63.48,13.93,94.85,5.52,26.21,9.16,52.8,13.87,79.18,6.49,36.39,13.22,72.74,19.78,109.12.37,2.07,0,4.27,0,6.41l-1.41.27a25.08,25.08,0,0,1-2-4.19c-1.13-4.17-2.15-8.38-3-12.62-3-14.34-5.76-28.71-8.8-43-.52-2.44-1.89-4.69-2.86-7l-2.11.36c0,2.65-.33,5.36,0,8,3.43,23.73,7.14,47.42,10.46,71.16,1.49,10.67,2.51,21.42,3.24,32.17.21,3-1.36,6.17-2.11,9.25l-1.81.15-6.63-12.28c-.52,3.17-1.07,5.45-1.25,7.76-.42,5.11-2.49,8.41-8.08,9a14,14,0,0,0-5.48,2.27c-9.76,6-23.79,5.31-32.91-1.31a22.85,22.85,0,0,0-8.47-3.85c-3.08-.65-4.41-2-4.32-5,.18-6.32.29-12.66.65-19,1-18,3.25-35.91,3-53.85-.45-38.81-2.17-77.61-3.29-116.41-1.19-41.31-2.26-82.63-3.43-123.94-.63-22.32-1.22-44.65-2.08-67-.39-10.38-.57-10.74-10.51-13.17s-19.89-4-29.86-5.81c-7.36-1.35-14.86-2.08-22.08-3.92-5.56-1.42-6.44-4.57-3.32-9.41a45.11,45.11,0,0,1,7.05-9c13.12-12,26.46-23.84,39.73-35.71q16-14.28,32-28.53c1.74-1.54,3.54-3,5.42-4.4,11.18-8.09,22.89-15.55,33.52-24.31C1027.05,142,1079,105,1132.25,69.75,1139.33,65.07,1146.09,59.93,1153,55ZM989.48,678.8c1.31-8.36,1.3-16.68-2.26-24.67C985.45,662.52,985.66,670.76,989.48,678.8Z"/><path class="cls-1" d="M1012.81,696.26c5.39-3.91,1.77-34.75-5.11-44.54C1005.92,666.82,1009,681.34,1012.81,696.26Z"/><path class="cls-1" d="M1012.81,696.26c-3.85-14.92-6.89-29.44-5.11-44.54C1014.58,661.51,1018.2,692.35,1012.81,696.26Z"/><polygon class="cls-2" points="0 0 2506.01 2.13 2506.01 1389.11 0 1389.11 0 0"/></g></g></svg>