<svg xmlns="http://www.w3.org/2000/svg" viewBox="0 0 1256.06 702"><defs><style>.cls-1{fill:#ac0034;stroke:#ac0034;stroke-miterlimit:10;stroke-width:3px;}.cls-2{fill:none;}</style></defs><title>Asset 42</title><g id="Layer_2" data-name="Layer 2"><g id="Layer_1-2" data-name="Layer 1"><path class="cls-1" d="M435.16,22.15c1.15-.3,4,2.06,4.49,3.68,2.54,8.5,6.11,16.8,4.91,26.16-.34,2.68,1.24,6,2.86,8.44a68.38,68.38,0,0,0,8.82,10.35c9.06,9,18.94,17.15,27.33,26.68,12.54,14.22,26.17,27.61,36.17,44,2.26,3.72,5.56,6.87,8.68,10,3.27,3.29,6.89,6.23,10.94,9.84.22-1.65.43-3.07.6-4.49s.33-2.93.5-4.4l1.26-.49,3.46,5.32c2.12-3.33,2.39-5.54.35-8a15.94,15.94,0,0,1-2.78-4.85,5.34,5.34,0,0,1,4.07-7c-.47-4.19-1.48-8.35-1.25-12.44.25-4.34,1.18-8.71,6.24-10.81,1.24-.52,1.55-3.29,2.39-5.28l4.36,1.24c.22-2.89.55-5.33.54-7.78s.85-3.37,2.75-5.17c5.8-5.5,11.19-.35,16.64-.45,2.75,0,4.11-.16,5-2.85,1.44-4.46,5.55-6.36,9.94-4.76,1.68.62,3.69,1.07,4.85,2.27,4.23,4.4,7.68,2.14,11.4-.69,4.8-3.64,6.48-3.49,11.55.66l-3.47,2.8,6.54,3c-1.52,1.35-2.95,2.18-3.7,3.42s-.58,2.66-1,4.85l11.29.95.42.59-8.81,4.25c1.84,2.58,3.36,5.22,5.43,7.31.64.65,3.63.33,4.09-.42,3.12-5.18,3-5.26,6.54-.26,2.25-1.33,4.31-4.1,7.35-1.33a2,2,0,0,0,1.7-.27,3.64,3.64,0,0,0-.08-2.54,52,52,0,0,0-4-4.45c2.66-2.14,4.58-.79,5.89.76,3.35,4,8.53,6.45,9.67,12.27.23,1.17,2,2,2.9,3.09,1.4,1.59,2.72,3.26,4.21,5.07-7.31,3.55-8.95,9-5.45,15.84,1,1.9,2.25,3.66,3.15,5.59a20.93,20.93,0,0,1,.48,17.44,17.78,17.78,0,0,0-.46,14c1.77,4.52,0,8.25-2.06,12.12-2.62,4.93-4.93,10-7.73,15.76,2.55.6,4.28,1.31,6,1.37a32.27,32.27,0,0,1,19.18,7.34c2.59,2,4.85,1.59,8,1.21a61.5,61.5,0,0,1,18.16.63c8.66,1.56,17,4.74,25.71,6.2a148.36,148.36,0,0,0,26.35,2.25,199.86,199.86,0,0,1,44.26,4.67c3.68.79,6.44.74,9.17-3.07s6.74-6.93,12.1-7.06c2.3-.06,4.54-.53,5.76,2.31.27.63,1.76.94,2.73,1,2.26.21,4.57,0,6.82.3,2.91.35,6.29.51,7.19,4,1,3.8,1.55,8.26-1.88,10.88s-7.54,5.11-11.6,5.59c-21.94,2.58-43.93,4.65-65.94,6.59-8.13.72-16.33.64-24.5.84-3.65.1-6.48,1-7.5,5.12-1.11,4.45-5,5.55-8.8,6.6a87.74,87.74,0,0,0-8.39,2.64c-7,2.71-13.89,5.56-20.83,8.37-10.12,4.1-13.9,12.92-15.84,22.56-2.19,10.86-3.83,21.85-5.18,32.84-1,8.41-6.11,15-9,22.59-1.79,4.71-4.32,9.15-6.24,13.81a5.66,5.66,0,0,0,.24,4.08c2.41,5.2,5.18,10.24,7.56,15.47,1,2.14,1.25,4.61,1.93,6.91,2.12,7.2,2,7-4.93,10-3.68,1.58-4.9,5.69-4.41,9,1.13,7.8,2.24,15.88,8.87,21.55a4.15,4.15,0,0,1,1.1,2.08q4.86,18.57,9.64,37.17c2.39,9.3,5.36,18.52,6.93,28,2.27,13.69,3.53,27.54,5.17,41.32a119.92,119.92,0,0,1,1.22,13.2A81.74,81.74,0,0,1,692.08,573c-1.14,7-2.73,13.89-4.06,20.84-.82,4.29-3.17,7.17-6.73,9.83-3,2.27-5.46,5.79-7.29,9.21a70.45,70.45,0,0,0-7.62,24.3c-1.27,9.64-5.35,18.08-13.83,23.82a29,29,0,0,0-6.28,5.62c-5.87,7.24-13.81,7.86-22.18,7.5-4.18-.18-7.45-1.68-9.53-5.57a82,82,0,0,0-4.64-6.85c-1.46,4-2.68,7.3-3.86,10.62-2.07,5.83-5.8,10.38-12,11-7.1.74-13.43-1.15-17.36-8.24-2.72-4.89-3.37-10-3.61-15.37-.41-9.44,3.49-17.69,6.43-26.28,1.49-4.33,1.85-9.09,2.34-13.7.72-6.92.71-13.94,1.75-20.8,1.1-7.2,5.52-12.18,12.78-13.84,2.32-.53,4.94.3,7.42.45,1,.07,2.5.4,2.87-.09,4.07-5.23,10.92-7.88,13.44-14.58a9.93,9.93,0,0,0,.64-5.84c-1.21-6.77-4.6-13.11-2.38-20.75,1.07-3.64-2.28-8.57-3.51-12.52-7.72,9.11-15.08,17.66-22.24,26.38-1.1,1.33-1.1,3.51-1.85,5.19-1.76,4-3,8.36-5.65,11.66-5.64,7.11-13.23,12.14-21.24,16.25-9.83,5.05-22.65,3.11-29.64-6.43a160,160,0,0,1-12.59-19.53c-1.46-2.76-1.12-6.83-.64-10.18.78-5.44.71-10.52-1.55-15.69-1.62-3.71-1-7.57-.06-11.7a166.8,166.8,0,0,0,3.53-25.39c.93-13.62,1.29-27.29,1.66-40.94.29-10.44,3.53-20.27,5.59-30.36a150.21,150.21,0,0,0,2.38-22.13c.48-9,1.79-17.33,10-23,1.06-.72,1.08-2.94,2-5.64-4.06,1.27-7,1.9-9.76,3.1-6.2,2.75-12.32,1.86-18.46.08-6.31-1.83-6.9-2-5.63-8.44,1.62-8.21,4.44-16.19,6.53-24.32,2.58-10.08,5.79-20.11,7.23-30.37,2.88-20.69,5.26-41.51,4.21-62.48a98.52,98.52,0,0,0-3-20.62c-1.09-4-4-7.86-6.94-11.08-5.28-5.87-11-11.36-16.81-16.74-2.81-2.61-4.21-5.62-3.79-9.23.73-6.23,2-12.4,2.69-18.63a13.61,13.61,0,0,0-.67-6.88c-4.79-10.59-9.9-21-14.94-31.51a15.86,15.86,0,0,0-2.13-3.39c-9.24-11-18.74-21.69-27.74-32.83-9.49-11.77-19-23.55-27.59-36a166.88,166.88,0,0,1-16.87-30.42c-2.05-5-.49-11.83.82-17.52.49-2.13,4.91-3.36,7.53-5"/><path class="cls-1" d="M1192.49,207.14c-2.4,3.85-4.68,7.63-9.69,8.93-1.14.3-2.16,3.56-2.11,5.43.21,8.55-4.69,15.59-12.9,17.93a14.26,14.26,0,0,0-2.62,1c-9.69,4.93-19.1,10.55-29.13,14.64-9,3.67-18.68,5.56-28,8.48-3.77,1.18-7.27,3.21-11,4.5-3,1-6.19,1.42-9.23,2.29-9.37,2.67-18.61,5.8-28.06,8.09-12.81,3.1-24.89,8-37,13.12a48.9,48.9,0,0,1-12.84,3c-12.64,1.65-23.07,7.14-29.81,18-2.73,4.41-6,9-5.06,15.2.45,2.91-.68,6.44-2.06,9.21-4.45,8.94-5.21,18.65-7,28.22-1.08,5.91-3.76,11.53-5.86,17.23-2,5.31-5.75,9.95-5.17,16.17.21,2.16-1.23,4.48-1,6.65.57,6.18.9,12.51,2.57,18.43,3.24,11.42,7.25,22.63,11.1,33.87,2.54,7.45,5.35,14.8,8.05,22.22,7.86,1.48,13.49,6,16,13.56,2.87,8.72,4.77,17.76,7.54,26.52a116.84,116.84,0,0,0,7.41,18.84c3.66,7,6.43,14.08,6.49,22.07.07,10,.72,20.15-3.22,29.74-3.62,8.81-7.18,11-16.36,10.39-.88,4.84-1.3,9.78-2.76,14.4s-5.13,7.06-10.38,7.31c-7.52.36-14.57.08-18.84-7.43-1.39-2.44-2.62-5-3.87-7.47-1.72-3.47-3.63-6.87-5.06-10.47-2.14-5.4-6.24-7.94-11.69-8.35a97,97,0,0,0-14.06-.09c-2.11.15-4.06,2-6.2,2.31a45.44,45.44,0,0,1-10.41.56c-9.64-.74-18.35,3.1-27.44,5.07-18.66,4.07-36.35,12.39-55.57,13.67-10.2.68-20.55-.54-30.8-1.36-2.48-.2-4.94-2-7.19-3.37a64.11,64.11,0,0,1-9.49-6.7,11.74,11.74,0,0,1-3.2-5.91c-.53-2.37.29-5-.13-7.44-1.91-11.18,4.15-19.59,9.73-28.07,6.1-9.27,12.78-18.17,18.88-27.45,3.29-5,5.89-10.48,8.84-15.73a453.35,453.35,0,0,1,33-49.88c1.2-1.61,2.32-3.27,3.18-4.5-1.91-2.84-4.11-5.21-5.26-8-2.45-6,.66-11.1,3.2-16.3a24.4,24.4,0,0,0,2.43-7.8c.7-6.1.22-12.41,1.57-18.32,1.07-4.63,1.47-8.4-.59-12.94-1.65-3.61-1.42-8.08-2-12.17-.05-.39-.13-.95.08-1.19,4.65-5.35.52-10.71-.37-15.83a54.19,54.19,0,0,1,1-24.68c2.48-8.58,3.32-17,1.05-25.63-2.38-9.1-.18-17.83,1.92-26.56,1.32-5.46,2.91-10.85,4.3-16.29a4.76,4.76,0,0,0,.05-2.72c-5-12.46-6.86-25.48-7.53-38.79-.17-3.41-1.43-6.77-2.23-10.14-3-12.73-6.21-25.4-9-38.18-1.37-6.4-1.79-13-2.9-19.45-.28-1.62-1.58-3.06-2.35-4.61-.61-1.24-1.54-2.52-1.62-3.82-.39-6.69-.35-13.41-.89-20.08-.19-2.36-1.58-4.61-2.41-6.91-.72-2-1.53-4-2.12-6-1.59-5.49-3.25-11-4.56-16.55a53.45,53.45,0,0,1-1.8-12.18c0-1.8,1.91-4,3.53-5.31C826,87.6,827,85.92,826,82.73a77.43,77.43,0,0,1-3.27-15.27c-.3-3.56,1-7.25,1.58-10.89.2-1.41.65-3.09.11-4.24-1.75-3.83-1.56-7.17,1.16-10.47,3.15-3.82,5.85-8,9.32-11.54,1.62-1.62,4.59-1.9,7.25-2.9-1.76-2.48-5.9-5.38-1.3-9.37h4.83c5,1.94,10,4.7,11.18,10,1.85,8.36,2.6,16.92-3,24.72a51.2,51.2,0,0,0-7.08,13c-2.33,6.81-1.8,13.52,4.13,18.85.77.69,1,2.1,1.25,3.22.51,2.2.73,4.47,1.32,6.65,2,7.34,4.29,14.6,6.06,22,1.86,7.74,1.65,7.73,9.3,6.84,18.33-2.11,35.86,2.47,53.49,6.38a11.77,11.77,0,0,0,7.47-.75c7.2-3.79,14.07-8.2,21.16-12.22a57.72,57.72,0,0,1,10-4.85c6.85-2.26,13.85-4.09,20.82-6,1.19-.32,3.47-.38,3.7.14,1.7,3.74,5.47,3.41,8.38,4.68,2.08.91,4,1.77,2.89,4.9l-11.08.53,0,.72,3.68,1.28-.1.89-7.36.6a15.22,15.22,0,0,0,1.71,1.18c7.36,3.46,15.4,6,21.91,10.62s11.26,11.31,16.78,17.11a3.59,3.59,0,0,1,.8,1.39c2.4,7.61,4.87,15.15,9.09,22.05.89,1.46.4,3.77.55,5.69-1.73-.58-3.46-1.18-5.2-1.73-.2-.07-.46.07-.75.12.48,2.91.95,5.82,1.43,8.72l-1.07.7c-6.72-6-10.14-16.13-20.71-17.76-1.08,2.56-3.95,5.1-1.26,7.89,3,3.11,7,5.25,10,8.39,4.18,4.44,7.83,9.36,11.57,14.19.47.61.08,1.89.09,2.86a8.52,8.52,0,0,1-2.86-.71,51.27,51.27,0,0,1-4.57-3.91c-1.68-1.49-3.33-3-5.09-4.62,0,2.33.74,4.79-.17,6.07-1.56,2.22-.59,3.56.23,5.39,3.54,7.93,1.57,15.52-5.72,20.86l-2.72-5.76H1005c-.22,3.08-.36,6.17-.71,9.24-.09.76-.86,1.44-1.31,2.16-.67-.55-1.64-1-1.93-1.66a22.93,22.93,0,0,1-.83-3.92c-.59-2.76-1.2-5.51-1.81-8.27l-1.2.2c2.22,7.09,4.28,14.18.61,21.49,4.48,1,8.23,1.87,12,2.56a7.6,7.6,0,0,0,3.56-.33c4.55-1.48,9-3.34,13.6-4.62,13.11-3.64,26.12-7.94,39.46-10.32,12.57-2.25,25.5-2.4,38.28-3.46,4.8-.4,9.61-.64,14.4-1.15,1.38-.15,3.22-.6,3.92-1.57,2.36-3.26,5.56-3.88,9.17-3.93,2.82,0,5.63-.18,8.44-.38,6.16-.43,12.11-4.52,12.8-10.13,1.11-9.1,7.49-14.52,13-20.59,1.15-1.26,4-2.48,5.23-1.89,3.73,1.86,7.71,4,10.33,7.12,4.06,4.79,7.07,10.47,10.52,15.77Z"/><path class="cls-1" d="M162.54,599a68.86,68.86,0,0,1,4.39-6.61,16.46,16.46,0,0,1,13.14-6c5.62,0,9.67-2.85,14.15-5.62,5.39-3.33,11.51-5.45,17.17-8.38a28.13,28.13,0,0,0,6.67-4.9c6.34-6.24,13-11.43,22.64-11.24a11.31,11.31,0,0,0,7.06-2.76c5.21-4.61,10-9.75,15-14.6,1.73-1.68,1.71-3,.54-5.2-2.5-4.7-4.1-9.89-6.75-14.49A86.76,86.76,0,0,0,247,505.88c-9.55-11-19.42-21.79-29.15-32.66a63.39,63.39,0,0,0-4.28-4.8C203.14,459,200,446.37,198.43,433.17c-1.45-12.54,1.19-24.45,6.29-35.92a84.49,84.49,0,0,0,4.73-12.77,11.25,11.25,0,0,0-.66-7.1c-2.22-4.66-1.48-10.86,2.39-14.26,5.63-5,7-14.78,4.24-21.7-2.55-6.32-4.32-13.05,1.66-19.06,1.51-1.53,2-4.19,2.73-6.39,1.89-5.42,3.66-10.88,5.54-16.31A55.73,55.73,0,0,0,228,273.61c-.57-4.28,0-8.73.31-13.09.71-11.22-1.23-21.59-8.08-30.94a102.84,102.84,0,0,1-8.86-15.53c-3.95-8-7.62-16.19-11.14-24.42-1.22-2.85-1.57-6.07-2.47-9.08-.81-2.71-1.81-5.36-2.75-8-1.1-3.09-2.87-6.09-3.21-9.25a55,55,0,0,1,4.4-29.29c1-2.32.78-5.23,1.08-7.88.53-4.82.84-9.67,1.6-14.45a17.63,17.63,0,0,1,2.42-6.71c2.42-3.74,3.3-7.71,3.7-12.06.25-2.76,2-5.36,2.56-8.13a54.79,54.79,0,0,0,.92-8.88,13.74,13.74,0,0,1,6.93-11.58,7.82,7.82,0,0,0,4.13-6.82c.33-7.83,4.19-14.33,8.13-20.66a11.24,11.24,0,0,1,6.38-4.2c8.13-2.1,16.4-3.7,24.63-5.42,3.61-.76,7.57,2,8.69,6.74,1.63,6.86,2.93,13.6.56,20.89a35.26,35.26,0,0,1-12.43,17.24c-3.3,2.59-6.28,4.85-2.86,9.37a2.65,2.65,0,0,1,.19,1.94c-2.32,10-4.74,19.95-7,29.94-.87,3.78-.72,8-2.39,11.34-4.47,9-4.19,18.63-3.45,28,.71,8.85,1.15,18.19,6.84,25.91.39.54.53,1.57,1,1.69,7,2,9.42,8.78,14.15,13.13a8.58,8.58,0,0,0,1,.65l.12-1.17a61,61,0,0,0,8.4.44,7.36,7.36,0,0,0,4.48-2.13,4.77,4.77,0,0,0,.69-4.1c-1.52-4.27-3.92-8.26-5.13-12.6-2.59-9.37-1-18.85,0-28.32,1.05-10,5.61-18.65,11.63-26s14.21-12.15,24.42-14c9.24-1.69,18-.75,26.57,1.33,15,3.65,26.95,12.35,30.95,27.77,2,7.73.76,16.52-.11,24.72a66.64,66.64,0,0,1-9.76,28.12c-1.71,2.77-2.51,6.18-3.31,9.39-1.85,7.48-5.1,14-11.15,19-3.65,3-6.66,6.45-7.45,10.85,6,.49,11.84.75,17.6,1.52a25.51,25.51,0,0,1,7.54,2.65c3.66,1.8,6,4.59,6.48,9s7.08,6.8,10.76,4.26a47.45,47.45,0,0,1,5.43-3.35,3.86,3.86,0,0,1,3-.35c7.91,4.26,14.18-.21,20.77-3.56,2.55-1.3,5.73-1.46,8.13-2.94,3.32-2,6.08-5,9.26-7.27,2.77-2,5.78-3.64,8.69-5.44a49.54,49.54,0,0,0,5.66-3.56q9.18-7.69,18.12-15.67a6.67,6.67,0,0,0,1.69-3.27c1-4,1.66-8.13,2.71-12.13,1-3.74,3.51-5.25,7.5-5.19a20.26,20.26,0,0,1,13.94,5.16,21.33,21.33,0,0,0,3.1,1.68c1.33.84,3.1,1.49,3.82,2.73a107.08,107.08,0,0,1,7.4,14.46c.69,1.78-.13,4.87-1.38,6.54-3,4.05-6.77,7.54-10,11.41-2.38,2.83-4.35,6-6.7,8.88-1.8,2.18-3.54,4.95-5.94,6C462.63,242.39,457,249,450.6,254.55s-11.9,11.35-19.73,14.8c-4.7,2.08-8.66,5.81-13.27,8.15a49.07,49.07,0,0,1-13.05,4.76c-9.32,1.71-18.8,2.52-28.17,4-5.53.87-10.95,2.36-16.45,3.47-5,1-6.72,4.93-8.3,8.95-3.42,8.71-6.74,17.45-10.07,26.19a8.1,8.1,0,0,0-.92,3.41c1.37,12-.82,23.35-4.65,34.68-1.77,5.24-2.15,11-2.85,16.56-1,7.85-4.55,12.88-13,13.65-3.06.27-4.87,4.31-3.61,8.46,1.52,5,2.4,9.74-.38,14.69-.59,1.05.17,3.52,1.13,4.64,4,4.7,6.35,9.74,5.47,16.12a5.62,5.62,0,0,0,1.77,4.1c5.62,5.18,7.24,11.72,8,19.07.81,7.94,3.38,15.7,4.23,23.64,1.24,11.71,9.47,19.48,15.17,28.62,6.15,9.85,5.9,19.41.74,29.26a14.65,14.65,0,0,0-1.85,9.46c2.53,17.91-6.24,29.79-20.32,36.29-17.89,8.27-33.15,20.52-49.3,31.44-8,5.4-15.6,11.39-25.24,13.74a7.67,7.67,0,0,0-2.58,1.09c-5.91,4.3-11.68,8.8-17.72,12.91-1.81,1.23-4.33,1.42-6.65,2.13-2.35,8.87-2,18-.74,27.43.81,6.11-3.1,11.1-7.09,15.56-.69.77-1.52,1.42-2.29,2.13h-8c-8-2.79-15.31-6.23-20.39-13.88-8.42-12.7-14.84-25.86-15-41.47A14.7,14.7,0,0,0,173.7,633c-2.89-6.25-5.93-12.43-8.94-18.63-.68-1.4-1.48-2.75-2.22-4.12Z"/><polygon class="cls-2" points="0 0 1256.06 1.08 1256.06 702 0 702 0 0"/></g></g></svg>