<svg xmlns="http://www.w3.org/2000/svg" viewBox="0 0 1488.33 825"><defs><style>.cls-1{fill:#ac0034;stroke:#ac0034;stroke-miterlimit:10;stroke-width:3px;}.cls-2{fill:none;}</style></defs><title>Asset 26</title><g id="Layer_2" data-name="Layer 2"><g id="Layer_1-2" data-name="Layer 1"><path class="cls-1" d="M103.77,414c2.16-.11,4.32-.32,6.47-.32,39.5,0,79-.09,118.5.09,4.65,0,6.56-1.32,7.78-5.92,6.53-24.61,13.45-49.11,20.25-73.64,1.89-6.82,5.49-10.18,10.65-10s8.88,3.9,9.91,10.69c4.5,29.62,8.87,59.26,13.33,88.89q9.3,61.71,18.64,123.43,5.71,38,11.36,76.06a6.53,6.53,0,0,0,1.85,4c.77-8.85,1.58-17.69,2.3-26.54q4.95-60.25,9.84-120.52c2.47-30.54,4.82-61.1,7.3-91.64,2.84-34.86,5.82-69.71,8.66-104.57,2.5-30.71,4.87-61.43,7.35-92.15q3.46-43.08,7.06-86.14c.51-6.13,4.3-9.87,9.78-10s9.49,3.17,10.14,9.47c2.05,20,3.83,40.12,5.69,60.18q4.37,47,8.71,94,3.68,40.05,7.31,80.1,4.32,47,8.71,94c.5,5.43,1,10.87,1.58,17.65,1.52-2.12,2.39-3.18,3.1-4.35,5-8.23,10.21-16.4,15-24.76,2.89-5,6.75-7.09,12.62-7.09q89.49.12,179-.1h6.88c-2.26-2.35-3.4-3.61-4.63-4.8-27.71-26.83-53.88-55-75.17-87.34-15.79-24-28.06-49.47-33.41-78-9.25-49.3,10.62-107.65,58.23-134.21,44-24.57,120.6-26.06,162.18,33.06.66.94,1.41,1.82,2.6,3.34,1.33-1.76,2.48-3.24,3.6-4.75,18.82-25.29,43.2-41.89,74.73-46.51,45.8-6.7,111.83,10.94,137.4,71.53,13.61,32.25,12.62,64.95,2.1,97.69-11,34.29-29.87,64.31-52.7,91.73-15.43,18.55-32.37,35.83-48.69,53.62a22.56,22.56,0,0,1-4.08,2.86c.27.55.55,1.09.83,1.64,1.51.1,3,.28,4.54.28,64.5.21,129,.51,193.49.46,8,0,13.12,2.32,16.59,9.76,3.92,8.39,8.86,16.3,14.1,25.78.61-3.44,1.09-5.42,1.29-7.42q3.69-37.29,7.32-74.58,4.29-43.24,8.67-86.48,3.66-36.79,7.26-73.58,4.61-46.74,9.23-93.47c.6-6.09,4.5-9.77,10-9.8s9.29,3.2,9.88,9.19c1.45,14.58,2.54,29.2,3.74,43.81q3.75,45.81,7.45,91.63,3.32,40.83,6.6,81.67,3.69,45.33,7.42,90.64,3.32,40.59,6.57,81.18,3.68,45.32,7.39,90.63c.55,6.81,1.07,13.61,1.66,20.42a20.17,20.17,0,0,0,1.89,7.67c2-13,4.1-25.9,6.1-38.87q10.5-67.85,21-135.69,8.49-55,17-110.06c1-6.69,4.27-10,9.62-10.19s8.79,2.63,10.64,9.2c6.65,23.54,13.35,47.07,19.8,70.66,1.1,4,2.65,5.58,7.06,5.56,37-.22,74-.16,111-.19v20l-121-.09c-8.69,0-11.18-1.86-13.51-10.13-3.28-11.64-6.53-23.28-11-34.93-.74,4.45-1.52,8.9-2.21,13.36Q1223.4,483.13,1210.75,565q-11.48,74.26-22.92,148.54c-1,6.54-4.94,10.3-10.26,10.17-5.57-.14-9.27-4.24-9.83-11.08q-4.52-55.27-9-110.56-5.73-70-11.54-139.92c-2.84-34.86-5.55-69.73-8.39-104.59-3.36-41.32-6.79-82.63-10.94-124.06a36.76,36.76,0,0,0-1,4.47c-3.13,31.82-6.17,63.65-9.33,95.47q-5.25,52.93-10.63,105.86c-1.46,14.58-2.92,29.17-4.27,43.76-.62,6.77-3.22,10.68-8.14,11.67s-8.82-1.24-12.19-7.35c-8.6-15.61-17.26-31.18-25.68-46.88-1.86-3.48-4-4.89-8.07-4.9q-107.73-.19-215.47-.74c-.5,0-1,0-1.5,0-5.17.26-9.28-1.5-11.18-6.56-1.81-4.82.16-8.59,3.74-12,11.93-11.38,24-22.62,35.51-34.45,25.75-26.49,49.22-54.81,66.94-87.43,13.51-24.88,22.93-51,22.44-79.86-.75-44.07-27-80-68.94-93.56-21.26-6.87-43-9.42-64.94-3.58-28.59,7.61-47.74,26.61-61.73,51.8-1.6,2.86-4.19,5.83-7.06,7.19-4.87,2.31-9.52-.27-12.58-6-8-14.9-18-28-31.86-37.93-21.41-15.34-45.62-19.55-71.25-17.21-23.23,2.11-44.18,10.11-61,26.75-22.45,22.25-32,49.89-31.41,81,.52,30.1,12.3,56.64,27.8,81.74,21.19,34.3,48.47,63.49,77.28,91.34q10.25,9.9,20.83,19.45c3.87,3.51,6.41,7.34,4.34,12.7s-6.52,6.53-11.74,6.53c-66.5,0-133,.1-199.49-.07-5.06,0-7.69,1.65-10.17,5.87-8.93,15.23-18.27,30.21-27.47,45.28-3.54,5.79-7.18,7.83-12.05,6.82s-7.34-4.4-8-11.21q-5.51-59.44-10.93-118.9-5.75-62.17-11.6-124.35c-.28-3-.54-6-.8-9l-1.3.06q-1.2,14.28-2.39,28.56Q368.81,305,365,352q-3.69,45.32-7.31,90.64-3.74,46.32-7.53,92.63-3.22,39.59-6.46,79.18-3.76,46.32-7.53,92.63c-.37,4.48-.64,9-1.26,13.42-.79,5.7-4.89,9.34-10,9.23-4.93-.09-8.93-3.6-9.78-9-2.13-13.48-4.1-27-6.13-40.48q-9.8-65.19-19.58-130.36-9.29-61.73-18.55-123.45c-2.05-13.59-4.14-27.17-7.19-40.87-.52,1.45-1.13,2.88-1.55,4.37-3.14,11.22-6.23,22.45-9.35,33.67-2.26,8.13-5,10.16-13.53,10.17h-130c-1.82,0-3.65.16-5.48.24Z"/><polygon class="cls-2" points="0 0 1488.33 1.27 1488.33 825 0 825 0 0"/></g></g></svg>