<svg xmlns="http://www.w3.org/2000/svg" viewBox="0 0 2134.45 1183.15"><defs><style>.cls-1{fill:#ac0034;stroke:#ac0034;stroke-miterlimit:10;stroke-width:3px;}.cls-2{fill:none;}</style></defs><title>Asset 31</title><g id="Layer_2" data-name="Layer 2"><g id="Layer_1-2" data-name="Layer 1"><path class="cls-1" d="M1314.25,707.43c-3.69-1.1-6.77.11-9.92.53s-6.39-.3-9.62.91c-1.91.71-4.3,0-6.45.17s-4,.75-6.09.93c-3.21.28-6.41-.28-9.63.91-1.76.65-4,0-6,.16s-4,.77-6.09.92c-2.33.17-4.67,0-7.32,0-2.4-2.82-4.9-5.83-7.47-8.77s-5.59-6-8.08-9.17c-4.86-6.25-9.82-12.4-15.24-18.17-.46-.48-1.27-.92-1.33-1.43-.22-2.14-2.26-2.73-3.28-4.16s-2.18-2.84-3.8-4.92c-4.61,20.39-9,40-13.54,59.84l-1.56.78c-5.42,2.61-11.16,4.44-16.68,6.83A71.63,71.63,0,0,1,1175,736c-5.9,1.84-11.47,4.51-17.21,6.74-4.62,1.8-9.16,3.77-14.15,5.84,17.73,10.52,35,20.76,52,30.88a25.65,25.65,0,0,1,1.26,5.1c.21,4.71.08,9.39,1,14.1s-.1,9.34.93,14.1c.94,4.36,0,9,1.08,13.57.58,2.36.08,5,.11,7.48,0,2.16-.42,4.46,1.55,6a16.72,16.72,0,0,0,2.8-1.74c2.75-2.55,5.56-5,8.36-7.5,5.23-4.64,10.53-9.18,15.84-13.73,6.06-5.19,11.85-10.69,17.6-15.91,5.63.06,10.42,2.42,15.57,3.26,4.81.79,9.61,2.43,14.4,3.67,5,1.29,10,2.61,15,3.69s9.75,2.82,15,3.35c-1-2.57-1.72-4.77-2.63-6.88-3.62-8.34-7.4-16.6-10.9-25-1.37-3.29-3.34-6.36-4.46-9.64a130.12,130.12,0,0,0-6.1-14.28C1292.77,741.94,1303.41,724.84,1314.25,707.43ZM981,450.15a66.54,66.54,0,0,0,.86,10.12c.85,4.77-.13,9.69,1,14.6.88,3.87-.12,8,1,12.08.62,2.15,0,4.64.14,7,.13,2.08-.23,4.12.49,6.28s.38,4.53.47,6.81c0,1.29,0,2.58,0,4.38,4.52-3.76,8.64-7,12.59-10.51,4.55-4,8.93-8.23,13.39-12.35a7.06,7.06,0,0,1,1.07-1c4.69-2.7,7.79-7.26,12.21-10.32a91.19,91.19,0,0,0,7.43-6.29l20,5.14q9.7,2.5,19.46,4.86c6.47,1.57,12.9,3.73,19.86,4.18-1.25-2.83-2.3-5.37-3.42-7.81-2.7-5.89-5-11.93-7.67-17.83-1.2-2.67-3.05-5.15-3.75-7.92-.89-3.53-2.82-6.52-4.05-9.85s-2.71-6.54-4.08-9.81c-.42-1-.85-2-1.13-2.61l32.65-52.56a35.09,35.09,0,0,1-5.4,1.3c-4,.25-8.15-.48-12.08,1.05-5.91-.55-11.66,1.76-17.59,1-.49-.06-1.15-.21-1.47,0-2.22,1.62-4.78,1.14-7.1.87-2.72-.31-5,1.07-7.6,1.13-3.2.09-6.4.41-10.33.69-1.37-1.72-3-4.12-5-6.2-3.45-3.64-6.39-7.68-9.56-11.54-4.64-5.65-9.61-11-14.45-16.53-.64-.74-1.31-1.46-1.94-2.2-1.24-1.48-2.49-3-3.71-4.47s-2.32-3-3.57-4.5c-.23-.27-.85-.21-1.63-.36.17,4.31-1.61,8.09-2.28,12.15-1,5.82-3.49,11.36-3.81,17.38-2.16,3.08-1.55,6.92-2.86,10.3s-1.41,7.08-2.16,10.62c-.61,2.88-1.39,5.72-1.94,8-1.88,1.09-3.14,2.32-4.56,2.57-4.36.73-8.06,3.14-12.18,4.46s-8.19,3.54-12.35,5.16c-3.16,1.23-6.31,2.49-9.48,3.68s-6.52,2.74-9.9,3.86c-2.68.89-5.11,2.5-8,4ZM883.54,618c-4.51-4.27-8.14-9.26-12.13-14q-5.17-6.07-10.22-12.26c-4.73-5.79-9.85-11.26-14.77-16.89-.76-.86-1.37-1.84-2.28-3.08a23.27,23.27,0,0,0-1.12,2.86c-.46,2-.24,4.43-1.35,5.9-1.45,1.91.59,4.44-1.62,5.87.16,3.87-1.57,7.39-2.25,11.1s-1.7,7.26-2.54,10.87c-1.14,4.87-2.29,9.75-3.2,14.68a54.68,54.68,0,0,1-2,8.06c-19.12,8.08-37.73,15.22-56.32,23.24L826,685.6a53.74,53.74,0,0,0,.85,8.29c.77,3.92.31,8,1,12.08.84,5.08-.37,10.43,1.17,15.54-.5,7.89,1.76,15.67,1,23.57,0,.26.25.55.44.94.42-.09,1,0,1.29-.3,4.69-4,9.5-7.83,14-12,5.1-4.78,10.47-9.25,15.79-13.77,4.86-4.14,9.42-8.63,14.42-13.25,2.15.42,4.48.9,6.81,1.34,6,1.12,11.91,2.68,17.76,4.25,6.3,1.69,12.73,2.87,19,4.69,4.64,1.35,9.46,2.09,14.14,3.3.85.22,1.45,1.39,2.29.23-2.14-5.17-4.19-10.32-6.4-15.4-2.63-6.07-5.49-12.05-8-18.15-1.08-2.56-2.46-5-3.37-7.59-1.75-5-4.06-9.65-6.15-14.53q16-25.66,32-51.47a5.06,5.06,0,0,0-1.11-.32,46,46,0,0,0-9.61.84c-3.57.78-7.33.17-11.08,1s-7.69.16-11.57,1c-3.24.74-6.71-.23-10.09,1-1.76.64-4,0-5.95.14-1.72.12-3.35-.26-5.19.79C887.89,618.69,885.5,618,883.54,618Zm606.14-228.91-56.27,22.8c8.57,6.06,17.56,10.6,26,15.95,8.66,5.47,17.64,10.44,26.46,15.61.53,4.34-.29,8.68.93,13.1,1.05,3.82.34,8,.93,12.07.8,5.58.79,11.36,1,17.05.26,6,1.56,11.95,1.37,18,0,.11.22.23.33.32.35,0,.82.15,1,0a112.45,112.45,0,0,1,10.51-9.58c3-2.24,5.55-5,8.36-7.47,5.51-4.82,11-9.71,16.58-14.39,3.35-2.8,6.53-5.81,9.35-8.33,4.15,1,7.73,2.07,11.37,2.78,6,1.15,11.71,3.47,17.83,4,1,2.06,3.29.42,4.86,1.64,1.35,1,3.56,1,5.39,1.35s3.41.59,5.08,1c4.7,1.21,9.39,2.5,14.72,3.93-1.14-3-2-5.49-3-7.88-1.42-3.25-3.64-6.28-4.34-9.66-.64-3-2.59-5.26-3.31-8.18s-2.36-5.67-3.63-8.47c-3-6.59-5.45-13.41-8.78-19.85a11.15,11.15,0,0,1-.63-3.18,10.83,10.83,0,0,0,2.12-2.31,76.21,76.21,0,0,1,6-10c2.31-3.52,4.53-7.12,6.73-10.71,5-8.11,9.76-16.35,15.19-24.2.69-1,2.22-2.61.73-4.42-.34.29-.69.84-1,.82-4.24-.27-8.37.73-12.55,1.12-3,.29-6.06-.41-9.13.86-1.85.76-4.29,0-6.44.18s-4.38.77-6.59.93c-5.68.42-11.38.7-17.07,1-.33,0-.78-.14-1,0-2,1.7-4.33.7-6,1l-39.6-46.92a22.47,22.47,0,0,1-.27,3.24c-.22.89-.91,1.72-.92,2.59,0,2.59-1.14,4.87-1.72,7.3-.8,3.34-1.61,6.67-2.32,10-.81,3.84-1.19,7.81-2.36,11.53-1.54,4.92-2.41,10-3.48,15C1491.4,382.27,1490.24,385.64,1489.68,389.09ZM1611.26,854a17.37,17.37,0,0,0,3-1.79,106.77,106.77,0,0,1,8.75-7.82c3-2.22,5.55-5,8.37-7.47,5.5-4.82,11-9.7,16.57-14.39,3.36-2.8,6.54-5.81,9.53-8.49,4,1.06,7.58,2.06,11.19,2.94,3,.75,6.09,1.44,9.17,2,3.24.58,6.36,1.66,9.61,2.28a91.74,91.74,0,0,1,10.32,2.69c3.54,1.1,7.23,1.7,10.77,2.95,2.29.81,4.86.82,7.8,1.25a30.43,30.43,0,0,0-.94-3.25c-1.62-3.83-3.68-7.54-5.09-11.37-2.14-5.81-4.88-11.31-7.26-17-2.5-6-4.79-12-7.71-17.8a53,53,0,0,1-2.44-6.86c.79-1,1.52-1.9,2.11-2.84,2.49-4,4.91-8,7.4-11.92s5.3-7.77,7.56-11.87c3.85-7,8.14-13.66,12.51-20.31.87-1.31,2.28-2.78,1.19-4.84-.48.3-1,.85-1.44.86-4.21.12-8.38.06-12.6.91-3.42.69-7,.2-10.58,1-3.74.84-7.67,0-11.59,1-3.35.86-7,.41-10.56,1-4.08.7-8.4-.33-12.38,1.34-3.48-3.89-7.09-7.3-9.94-11.27-4-5.64-9-10.44-13.19-16-3.08-4.13-6.93-7.63-9.89-11.89a75.91,75.91,0,0,0-5.64-6.67c-.27-.3-.85-.34-1.45-.56L1611,738.41a29,29,0,0,1-4.42,2.42c-9.08,3-17.67,7.22-26.57,10.65-2.73,1-5.29,2.58-8.06,3.47-5.83,1.88-11.28,4.68-17.76,6.82,8.86,6,17.7,10.76,26.25,16,8.75,5.32,17.5,10.7,26.78,15.53-.87,3.77.33,7.2.71,10.72.48,4.51-.84,9.16,1,13.57-.73,6.58,1.06,13,1.08,19.57C1610.1,842.64,1610.82,848.14,1611.26,854ZM1147.42,201a38,38,0,0,0,3.5-2.44c2.43-2.15,4.87-4.3,7.27-6.46,5.93-5.35,11.9-10.64,18-15.81,5.56-4.73,10.91-9.69,16.33-14.52a129.46,129.46,0,0,1,15,3.26c5,1.26,9.91,2.74,14.91,3.72s9.77,2.32,14.63,3.45a122.29,122.29,0,0,1,15.36,4.17c-1.4-3.76-2.82-6.62-4-9.58-3.12-8.05-6.84-15.83-10-23.83-2.46-6.14-5.53-12-8-18.17-1-2.47-2.42-5.12-.43-8,3.26-4.78,6.26-9.73,9.39-14.59,2.54-4,5.32-7.76,7.59-11.86,2.88-5.19,6.14-10.13,9.34-15.11,1.4-2.17,2.59-4.47,4.15-7.19-3.23,0-6.07-.62-8.42.18a15.77,15.77,0,0,1-6.64.74c-2.35-.2-4.38.91-6.59,1-3.87.25-7.69.18-11.6.86-5.74,1-11.69.84-17.55,1.17-.66,0-1.53-.27-2,0-2.73,2-5.67.45-8.48,1-1.55-2.06-2.8-3.93-4.27-5.63-2.87-3.33-5.88-6.55-8.8-9.85a66.07,66.07,0,0,1-5.95-7c-2.31-3.51-5.31-6.42-7.84-9.73-1.16-1.52-2.55-2.79-3.67-4.44-2.3-3.41-5.38-6.3-8.57-9.89-4.59,20.21-9,39.83-13.56,59.67-1.18.48-2.47,1-3.73,1.54-3.08,1.41-6.23,2.79-9.33,4-4.13,1.64-8.3,3.3-12.47,4.88s-8.23,3.59-12.4,5c-3.08,1-5.71,3-9.08,3.59-3,.51-5.75,2.62-8.73,4.09,1,1,1.6,2,2.45,2.38,5,2.24,9.48,5.31,14.11,8.16,4.1,2.53,8.26,5,12.41,7.43,4.42,2.6,8.9,5.09,13.27,7.76,3.44,2.1,7.35,3.53,9.86,6.37.48,5.48-.17,10.49.95,15.57,1,4.53,0,9.33,1,14.07.88,4.22.32,8.67,1,13.07C1146.63,189.52,1145.5,195.18,1147.42,201Z"/><path class="cls-1" d="M1314.25,707.43c-10.84,17.41-21.48,34.51-32.19,51.7a130.12,130.12,0,0,1,6.1,14.28c1.12,3.28,3.09,6.35,4.46,9.64,3.5,8.39,7.28,16.65,10.9,25,.91,2.11,1.65,4.31,2.63,6.88-5.28-.53-10.09-2.29-15-3.35s-10-2.4-15-3.69c-4.79-1.24-9.59-2.88-14.4-3.67-5.15-.84-9.94-3.2-15.57-3.26-5.75,5.22-11.54,10.72-17.6,15.91-5.31,4.55-10.61,9.09-15.84,13.73-2.8,2.48-5.61,4.95-8.36,7.5a16.72,16.72,0,0,1-2.8,1.74c-2-1.58-1.53-3.88-1.55-6,0-2.5.47-5.12-.11-7.48-1.13-4.53-.14-9.21-1.08-13.57-1-4.76-.09-9.5-.93-14.1s-.74-9.39-1-14.1a25.65,25.65,0,0,0-1.26-5.1c-17-10.12-34.29-20.36-52-30.88,5-2.07,9.53-4,14.15-5.84,5.74-2.23,11.31-4.9,17.21-6.74a71.63,71.63,0,0,0,7.18-3.15c5.52-2.39,11.26-4.22,16.68-6.83l1.56-.78c4.49-19.82,8.93-39.45,13.54-59.84,1.62,2.08,2.76,3.46,3.8,4.92s3.06,2,3.28,4.16c.06.51.87.95,1.33,1.43,5.42,5.77,10.38,11.92,15.24,18.17,2.49,3.21,5.41,6.09,8.08,9.17s5.07,5.95,7.47,8.77c2.65,0,5,.13,7.32,0,2-.15,4-.75,6.09-.92s4.19.49,6-.16c3.22-1.19,6.42-.63,9.63-.91,2-.18,4-.77,6.09-.93s4.54.54,6.45-.17c3.23-1.21,6.44-.49,9.62-.91S1310.56,706.33,1314.25,707.43Z"/><path class="cls-1" d="M981,450.15l-52.42-31.1c2.89-1.47,5.32-3.08,8-4,3.38-1.12,6.59-2.62,9.9-3.86s6.32-2.45,9.48-3.68c4.16-1.62,8.13-3.81,12.35-5.16s7.82-3.73,12.18-4.46c1.42-.25,2.68-1.48,4.56-2.57.55-2.26,1.33-5.1,1.94-8,.75-3.54.87-7.3,2.16-10.62s.7-7.22,2.86-10.3c.32-6,2.85-11.56,3.81-17.38.67-4.06,2.45-7.84,2.28-12.15.78.15,1.4.09,1.63.36,1.25,1.46,2.37,3,3.57,4.5s2.47,3,3.71,4.47c.63.74,1.3,1.46,1.94,2.2,4.84,5.49,9.81,10.88,14.45,16.53,3.17,3.86,6.11,7.9,9.56,11.54,2,2.08,3.63,4.48,5,6.2,3.93-.28,7.13-.6,10.33-.69,2.58-.06,4.88-1.44,7.6-1.13,2.32.27,4.88.75,7.1-.87.32-.23,1-.08,1.47,0,5.93.75,11.68-1.56,17.59-1,3.93-1.53,8-.8,12.08-1.05a35.09,35.09,0,0,0,5.4-1.3l-32.65,52.56c.28.64.71,1.62,1.13,2.61,1.37,3.27,2.86,6.49,4.08,9.81s3.16,6.32,4.05,9.85c.7,2.77,2.55,5.25,3.75,7.92,2.64,5.9,5,11.94,7.67,17.83,1.12,2.44,2.17,5,3.42,7.81-7-.45-13.39-2.61-19.86-4.18s-13-3.19-19.46-4.86l-20-5.14a91.19,91.19,0,0,1-7.43,6.29c-4.42,3.06-7.52,7.62-12.21,10.32a7.06,7.06,0,0,0-1.07,1c-4.46,4.12-8.84,8.33-13.39,12.35-4,3.48-8.07,6.75-12.59,10.51,0-1.8,0-3.09,0-4.38-.09-2.28.23-4.72-.47-6.81s-.36-4.2-.49-6.28c-.14-2.32.48-4.81-.14-7-1.16-4-.16-8.21-1-12.08-1.13-4.91-.15-9.83-1-14.6A66.54,66.54,0,0,1,981,450.15Z"/><path class="cls-1" d="M883.54,618c2,0,4.35.69,5.85-.18,1.84-1.05,3.47-.67,5.19-.79,2-.14,4.19.5,5.95-.14,3.38-1.23,6.85-.26,10.09-1,3.88-.89,7.85-.24,11.57-1s7.51-.21,11.08-1a46,46,0,0,1,9.61-.84,5.06,5.06,0,0,1,1.11.32q-16.07,25.8-32,51.47c2.09,4.88,4.4,9.57,6.15,14.53.91,2.56,2.29,5,3.37,7.59,2.56,6.1,5.42,12.08,8,18.15,2.21,5.08,4.26,10.23,6.4,15.4-.84,1.16-1.44,0-2.29-.23-4.68-1.21-9.5-2-14.14-3.3-6.27-1.82-12.7-3-19-4.69-5.85-1.57-11.77-3.13-17.76-4.25-2.33-.44-4.66-.92-6.81-1.34-5,4.62-9.56,9.11-14.42,13.25-5.32,4.52-10.69,9-15.79,13.77-4.48,4.21-9.29,8.06-14,12-.31.25-.87.21-1.29.3-.19-.39-.46-.68-.44-.94.74-7.9-1.52-15.68-1-23.57-1.54-5.11-.33-10.46-1.17-15.54-.68-4.07-.22-8.16-1-12.08a53.74,53.74,0,0,1-.85-8.29l-52.3-31.2c18.59-8,37.2-15.16,56.32-23.24a54.68,54.68,0,0,0,2-8.06c.91-4.93,2.06-9.81,3.2-14.68.84-3.61,1.87-7.27,2.54-10.87s2.41-7.23,2.25-11.1c2.21-1.43.17-4,1.62-5.87,1.11-1.47.89-3.91,1.35-5.9a23.27,23.27,0,0,1,1.12-2.86c.91,1.24,1.52,2.22,2.28,3.08,4.92,5.63,10,11.1,14.77,16.89q5.05,6.19,10.22,12.26C875.4,608.74,879,613.73,883.54,618Z"/><path class="cls-1" d="M1489.68,389.09c.56-3.45,1.72-6.82,2.49-10.35,1.07-5,1.94-10.08,3.48-15,1.17-3.72,1.55-7.69,2.36-11.53.71-3.36,1.52-6.69,2.32-10,.58-2.43,1.7-4.71,1.72-7.3,0-.87.7-1.7.92-2.59a22.47,22.47,0,0,0,.27-3.24l39.6,46.92c1.65-.25,4,.75,6-1,.2-.16.65,0,1,0,5.69-.33,11.39-.61,17.07-1,2.21-.16,4.38-.76,6.59-.93s4.59.58,6.44-.18c3.07-1.27,6.1-.57,9.13-.86,4.18-.39,8.31-1.39,12.55-1.12.31,0,.66-.53,1-.82,1.49,1.81,0,3.42-.73,4.42-5.43,7.85-10.2,16.09-15.19,24.2-2.2,3.59-4.42,7.19-6.73,10.71a76.21,76.21,0,0,0-6,10,10.83,10.83,0,0,1-2.12,2.31,11.15,11.15,0,0,0,.63,3.18c3.33,6.44,5.8,13.26,8.78,19.85,1.27,2.8,2.91,5.53,3.63,8.47s2.67,5.17,3.31,8.18c.7,3.38,2.92,6.41,4.34,9.66,1,2.39,1.88,4.88,3,7.88-5.33-1.43-10-2.72-14.72-3.93-1.67-.44-3.39-.67-5.08-1s-4-.32-5.39-1.35c-1.57-1.22-3.82.42-4.86-1.64-6.12-.56-11.84-2.88-17.83-4-3.64-.71-7.22-1.75-11.37-2.78-2.82,2.52-6,5.53-9.35,8.33-5.63,4.68-11.07,9.57-16.58,14.39-2.81,2.46-5.39,5.23-8.36,7.47A112.45,112.45,0,0,0,1491.5,504c-.17.17-.64,0-1,0-.11-.09-.33-.21-.33-.32.19-6-1.11-12-1.37-18-.25-5.69-.24-11.47-1-17.05-.59-4.08.12-8.25-.93-12.07-1.22-4.42-.4-8.76-.93-13.1-8.82-5.17-17.8-10.14-26.46-15.61-8.48-5.35-17.47-9.89-26-15.95Z"/><path class="cls-1" d="M1611.26,854c-.44-5.86-1.16-11.36-1.18-16.87,0-6.55-1.81-13-1.08-19.57-1.87-4.41-.55-9.06-1-13.57-.38-3.52-1.58-7-.71-10.72-9.28-4.83-18-10.21-26.78-15.53-8.55-5.21-17.39-10-26.25-16,6.48-2.14,11.93-4.94,17.76-6.82,2.77-.89,5.33-2.42,8.06-3.47,8.9-3.43,17.49-7.65,26.57-10.65a29,29,0,0,0,4.42-2.42l13.35-58.59c.6.22,1.18.26,1.45.56a75.91,75.91,0,0,1,5.64,6.67c3,4.26,6.81,7.76,9.89,11.89,4.15,5.54,9.15,10.34,13.19,16,2.85,4,6.46,7.38,9.94,11.27,4-1.67,8.3-.64,12.38-1.34,3.55-.61,7.21-.16,10.56-1,3.92-1,7.85-.12,11.59-1,3.56-.8,7.16-.31,10.58-1,4.22-.85,8.39-.79,12.6-.91.49,0,1-.56,1.44-.86,1.09,2.06-.32,3.53-1.19,4.84-4.37,6.65-8.66,13.33-12.51,20.31-2.26,4.1-5,7.9-7.56,11.87s-4.91,8-7.4,11.92c-.59.94-1.32,1.79-2.11,2.84a53,53,0,0,0,2.44,6.86c2.92,5.79,5.21,11.84,7.71,17.8,2.38,5.68,5.12,11.18,7.26,17,1.41,3.83,3.47,7.54,5.09,11.37a30.43,30.43,0,0,1,.94,3.25c-2.94-.43-5.51-.44-7.8-1.25-3.54-1.25-7.23-1.85-10.77-2.95a91.74,91.74,0,0,0-10.32-2.69c-3.25-.62-6.37-1.7-9.61-2.28-3.08-.56-6.13-1.25-9.17-2-3.61-.88-7.19-1.88-11.19-2.94-3,2.68-6.17,5.69-9.53,8.49-5.62,4.69-11.07,9.57-16.57,14.39-2.82,2.47-5.39,5.25-8.37,7.47a106.77,106.77,0,0,0-8.75,7.82A17.37,17.37,0,0,1,1611.26,854Z"/><path class="cls-1" d="M1147.42,201c-1.92-5.81-.79-11.47-1.6-16.89-.66-4.4-.1-8.85-1-13.07-1-4.74,0-9.54-1-14.07-1.12-5.08-.47-10.09-.95-15.57-2.51-2.84-6.42-4.27-9.86-6.37-4.37-2.67-8.85-5.16-13.27-7.76-4.15-2.45-8.31-4.9-12.41-7.43-4.63-2.85-9.12-5.92-14.11-8.16-.85-.38-1.43-1.36-2.45-2.38,3-1.47,5.72-3.58,8.73-4.09,3.37-.58,6-2.55,9.08-3.59,4.17-1.4,8.24-3.41,12.4-5s8.34-3.24,12.47-4.88c3.1-1.24,6.25-2.62,9.33-4,1.26-.57,2.55-1.06,3.73-1.54,4.51-19.84,9-39.46,13.56-59.67,3.19,3.59,6.27,6.48,8.57,9.89,1.12,1.65,2.51,2.92,3.67,4.44,2.53,3.31,5.53,6.22,7.84,9.73a66.07,66.07,0,0,0,5.95,7c2.92,3.3,5.93,6.52,8.8,9.85,1.47,1.7,2.72,3.57,4.27,5.63,2.81-.6,5.75.94,8.48-1,.43-.31,1.3,0,2,0,5.86-.33,11.81-.17,17.55-1.17,3.91-.68,7.73-.61,11.6-.86,2.21-.14,4.24-1.25,6.59-1a15.77,15.77,0,0,0,6.64-.74c2.35-.8,5.19-.18,8.42-.18-1.56,2.72-2.75,5-4.15,7.19-3.2,5-6.46,9.92-9.34,15.11-2.27,4.1-5,7.91-7.59,11.86-3.13,4.86-6.13,9.81-9.39,14.59-2,2.91-.56,5.56.43,8,2.46,6.14,5.53,12,8,18.17,3.21,8,6.93,15.78,10,23.83,1.15,3,2.57,5.82,4,9.58a122.29,122.29,0,0,0-15.36-4.17c-4.86-1.13-9.7-2.48-14.63-3.45s-9.94-2.46-14.91-3.72a129.46,129.46,0,0,0-15-3.26c-5.42,4.83-10.77,9.79-16.33,14.52-6.08,5.17-12.05,10.46-18,15.81-2.4,2.16-4.84,4.31-7.27,6.46A38,38,0,0,1,1147.42,201Z"/><path class="cls-1" d="M365,679c1.58-11.69,2.93-23.42,4.78-35.07a422.17,422.17,0,0,1,51.87-146.09,410.46,410.46,0,0,1,66.21-86.12,418.18,418.18,0,0,1,103.26-75.5c27.57-14.28,55.85-26.82,85.56-36a23.81,23.81,0,0,1,5.5-1.19C591.25,392.9,547,504.76,557.7,635.05c10.79,130.68,71.35,235.62,179.15,310.46,107.53,74.66,226.4,92.38,353.52,61.11-6.1,5.55-12.06,11.26-18.34,16.6a418.62,418.62,0,0,1-65.4,45.73c-50.64,28.62-103.94,49.65-162,57.37L817,1130H756c-11.2-1.45-22.44-2.67-33.59-4.4a420.61,420.61,0,0,1-304.86-212A414.91,414.91,0,0,1,369.8,776.06c-1.87-11.65-3.22-23.37-4.8-35.06Zm14.89,6.57-.42-.17v38h.42Z"/><path class="cls-1" d="M379.89,685.57V723.4h-.42v-38Z"/><polygon class="cls-2" points="0 0 2134.45 1.82 2134.45 1183.15 0 1183.15 0 0"/></g></g></svg>