<svg xmlns="http://www.w3.org/2000/svg" viewBox="0 0 862.29 477.98"><defs><style>.cls-1{fill:#ac0034;stroke:#ac0034;stroke-miterlimit:10;stroke-width:3px;}.cls-2{fill:none;}</style></defs><title>Asset 30</title><g id="Layer_2" data-name="Layer 2"><g id="Layer_1-2" data-name="Layer 1"><path class="cls-1" d="M339.19,405.65H328.67a8,8,0,0,0-.92-.36C314.31,401.94,306,393.58,303,380c-.32-1.46-1-1.85-2.4-1.88a74.33,74.33,0,0,1-9-.46c-5.19-.75-8.11-3.93-8.18-9.16a119.46,119.46,0,0,1,.65-15.72c1.08-8.91,6-15.08,14.88-17.09,5.15-1.16,10.56-1.2,15.85-1.73.94-.1,1.89-.11,2.76-.15.08-.51.18-.7.13-.83-3.6-9.07-7.17-18.15-10.87-27.18a2.58,2.58,0,0,0-2.17-1c-16.7,2.14-33.38,4.45-50.09,6.52-8.19,1-16.42,2-24.65,2.27-10.83.35-21.69.07-32.54-.08a88.48,88.48,0,0,1-12-.84c-7.75-1.18-11.31-4.89-12-12.75-.56-6.22-.72-12.49-.81-18.74-.13-8.84,0-17.69,0-26.53,0-3.67-.08-3.72-3.83-3.73-2.92,0-5.85.07-8.76,0-9.43-.32-16.82-4.35-22-12.31-1.78-2.77-3.22-3.27-6.83-2.08.13.85.21,1.75.4,2.63,4.49,21.32,8.21,42.76,10.12,64.48,1.05,12.06,1.82,24.18-.34,36.18a33.29,33.29,0,0,1-4.13,11.39c-3.78,6.12-11.41,5.69-14.77-.67a32.71,32.71,0,0,1-3.18-9.67c-2-11.77-1.33-23.63-.3-35.44,1.93-22.38,5.78-44.49,10.41-66.45.53-2.53,0-3.38-2.52-3.78-4.79-.78-9.5-2-13.37-5.21s-3.78-6.77,0-9.89a12,12,0,0,1,3.6-2.23c3.37-1.16,6.8-2.21,10.27-3.05,1.78-.43,2.56-.91,2.18-3-2.76-15.1-5.66-30.17-8-45.33-2.52-16.25-4.2-32.63-3.19-49.11A72.32,72.32,0,0,1,121,102.69c1.16-4.25,3.67-7.9,8.77-8s7.78,3.36,9.46,7.61a38.24,38.24,0,0,1,2.2,7.93c2.2,13.81,1.19,27.64-.21,41.43a569,569,0,0,1-9.72,59.73,24.23,24.23,0,0,0-.3,2.58c4.78.34,4.93.25,7.25-3.2,3.81-5.64,9-9.51,15.66-10.8,4-.77,8.13-.61,12.2-.73,6.84-.21,6.13,1.21,6.3-6.27.13-5.58.26-11.18.88-16.72.68-6.23,3.45-8.75,9.61-9.69a25.41,25.41,0,0,1,3.48-.3q24-.34,48-.63c5.76-.06,11.52,0,17.27,0,.87,0,1.74-.09,2.93-.16-.37-1.17-.56-2-.86-2.7q-12.54-31.25-25.08-62.49c-.71-1.78-1.69-2.28-3.56-2.25-9.43.16-18.86.32-28.28.13a73.13,73.13,0,0,1-12.36-1.67c-2.28-.45-4.77-1.52-5.13-4.18-.74-5.63.27-11,5.88-14a40.22,40.22,0,0,1,9.78-3.67c10.54-2.46,21.31-2.84,32.07-3.13,24.94-.65,49.68,1.84,74.3,5.38,24.34,3.5,48.6,7.56,72.84,11.73,11.08,1.9,22,4.62,33,7a60.57,60.57,0,0,1,5.77,1.87l-.1.74a10.36,10.36,0,0,1-1.79.5,112,112,0,0,1-12,.92c-26.11-.5-52.21-1.17-78.32-1.77-1,0-2,.09-3.5.16l19.23,47.75c1.07-.83,1.76-1.28,2.35-1.83,9.36-8.6,20.44-12.95,33.07-13.68,9.21-.53,11.28.77,14.33,9.4.08.23.15.48.23.71,2.92,8.22,1.77,15.71-4.46,22-2.88,2.89-3.39,6.12-3,9.81.18,1.66.34,3.33.61,5a12.18,12.18,0,0,0,5.53,8.46c1-2.36,2.87-3.87,1.75-6.55-.74-1.8.31-3.31,2.22-3.8a3.31,3.31,0,0,1,4.19,2.26,2.71,2.71,0,0,1-1.74,3.85c-2.76.78-3.21,3-4.27,5.5a25.81,25.81,0,0,0,4.38.72c13.27-.12,26.53-.34,39.8-.48,1.79,0,2.23-.72,2.17-2.44a101.39,101.39,0,0,1-.06-13.5,23.78,23.78,0,0,1,2.73-9.47c4.17-7.2,13-7.52,18.12-1a11.94,11.94,0,0,1,1.66,2.5c.71,1.65,1.9,2,3.58,2,7.26,0,14.52.21,21.78.24q71.71.39,143.45.73c4.19,0,4.14,0,4.79-4,2.43-15.05,8.58-28.35,19-39.52,15.24-16.3,35.35-20.75,55.71-12,13.53,5.79,23.18,15.3,26.38,30.22,1.44,6.72.41,13.48-.32,20.18-1,9.48-4.11,18.19-10.45,25.54a10.14,10.14,0,0,0-1,1.53l32.43,7.15v1c-3.32.2-6.66.61-10,.58-9.85-.08-19.69-.39-29.53-.45a10,10,0,0,0-4.61,1.33c-4.53,2.49-8.83,5.41-13.43,7.75-20.14,10.29-41.53,17.37-63.06,24C578.65,245.7,525.4,259.25,472,272.05Q400,289.27,327.08,301.24c-3.07.5-6.13,1.09-9.24,1.64a10.31,10.31,0,0,0,.29,1.41c4.22,10.53,8.41,21.08,12.74,31.57a4.52,4.52,0,0,0,2.56,2C355,345.37,375,356,393.94,368.65a78.49,78.49,0,0,1,8.59,6.86c2.17,1.93,1.93,3-.83,3.69a34.17,34.17,0,0,1-9.34,1.41c-7.82-.32-15.63-1.08-23.43-1.79-3.48-.32-3.59-.39-4.42,2.94-1.95,7.87-6.14,14.34-13,18.59C347.74,402.68,343.31,403.92,339.19,405.65ZM239.73,97.79c.46,1.41.72,2.35,1.08,3.25,8.3,20.66,16.64,41.3,24.87,62a3.73,3.73,0,0,0,4,2.75c18.43.05,36.86.22,55.29.35h2.5c.47-2.4,1-4.43,1.21-6.49a11.21,11.21,0,0,0-.23-5c-7.15-18.06-14.48-36.06-21.65-54.12-.9-2.28-2.1-3.18-4.59-3.16-18.34.09-36.69,0-55,.08C244.9,97.43,242.58,97.65,239.73,97.79Z"/><polygon class="cls-2" points="0 0 862.29 0.73 862.29 477.98 0 477.98 0 0"/></g></g></svg>