<svg xmlns="http://www.w3.org/2000/svg" viewBox="0 0 1056.07 585.39"><defs><style>.cls-1{fill:#ac0034;stroke:#ac0034;stroke-miterlimit:10;stroke-width:3px;}.cls-2{fill:none;}</style></defs><title>Asset 22</title><g id="Layer_2" data-name="Layer 2"><g id="Layer_1-2" data-name="Layer 1"><path class="cls-1" d="M854.08,566.39H834.46a10.55,10.55,0,0,0-1.7-.42c-27.54-1.89-54.17-8.32-80.43-16.39-47.82-14.7-93.47-34.71-138.07-57.21-63.41-32-123.87-68.91-182-109.7-60.25-42.3-117.56-88.21-170-140-28.31-27.94-55-57.34-77.78-90.05-12.88-18.5-24.54-37.7-31.57-59.29-2.28-7-3.46-14.39-5.15-21.6V59.85a4,4,0,0,0,.46-1.05c2.2-16.55,11.65-27.36,26.83-33.39s30.89-6.63,46.81-5.69c29.37,1.74,57.68,8.79,85.63,17.52C345.08,49,381.33,64.12,416.84,81A5.76,5.76,0,0,0,423,80.8C470.52,53,521.58,42.67,575.92,51.6c62.32,10.24,112.42,41.33,149,92.74C760.44,194.18,773.06,250,764.4,310.61a6.1,6.1,0,0,0,2.1,6.15c26.64,24.36,52,49.93,75.4,77.49,17.77,21,34.35,42.8,47.7,66.91,9.21,16.63,17.06,33.83,18.87,53.07,1.64,17.55-3.2,32.56-19.09,42a71.56,71.56,0,0,1-17.24,7C866.29,564.9,860.11,565.39,854.08,566.39ZM689.47,447.24c21.07,8,41.78,15,63.59,18,9.55,1.3,19.16,1.89,28.57-1,10.22-3.16,15-10.15,14.31-20.79-.52-8.29-3.7-15.76-7.46-23-7.87-15.11-18.24-28.49-29.27-41.37-3.46-4.05-7-8-10.9-12.39A227.82,227.82,0,0,1,689.47,447.24ZM377.29,116.67a323.72,323.72,0,0,0-44.83-13.89c-12.31-2.73-24.7-4.7-37.38-3.14-16.24,2-23.76,12.28-19.66,28.07a87.08,87.08,0,0,0,7.52,18.94c10.8,20.14,25.66,37.27,41.09,53.93.15.17.48.18.86.31A227.26,227.26,0,0,1,377.29,116.67Z"/><path class="cls-1" d="M593.63,497C457.24,529.69,331,434.5,314.79,309.08A1541.34,1541.34,0,0,0,593.63,497Z"/><polygon class="cls-2" points="0 0 1056.07 0.9 1056.07 585.39 0 585.39 0 0"/></g></g></svg>