<svg xmlns="http://www.w3.org/2000/svg" viewBox="0 0 1628 902.42"><defs><style>.cls-1{fill:none;}.cls-2{fill:#ac0034;stroke:#ac0034;stroke-miterlimit:10;stroke-width:3px;}</style></defs><title>Asset 40</title><g id="Layer_2" data-name="Layer 2"><g id="Layer_1-2" data-name="Layer 1"><polygon class="cls-1" points="0 0 1628 1.39 1628 902.42 0 902.42 0 0"/><path class="cls-2" d="M684.41,508.88,570.47,379.5l-13.38,11.77,27.43,31.18-52.22-12.6c-4.55,18.83-9,37.28-13.48,55.83l31.87,7.77-29.41,25.92,38,43.13,22.34-19.63c1.54,10.59,3,20.47,4.46,30.66l63.25-4.88c-3-20.88-5.91-41.3-8.83-61.72l.65-.21L671,520.67Zm342.94-146.57c-28.7-.09-52.13,22.52-52.24,50.42-.12,28.18,23.1,51,51.89,51.11s52.27-22.67,52.28-50.76S1056,362.39,1027.35,362.31Z"/><path class="cls-2" d="M440,846.05c1.34-.06,2.67-.19,4-.19h83V798.51h57.31l.2-.87L497.67,760l11.81-27.26,180,78.09c-4,9.2-7.85,18.07-11.83,27.26l-37.24-16.11v23.92H644q69.81,0,139.61.07c2.77,0,3.8-.76,4.38-3.48q18.31-85.89,36.81-171.72c.18-.85.24-1.72.41-3H473.69v-54h4.52q158.52,0,317.06-.06a20.62,20.62,0,0,0,7.29-1.62c3.53-1.36,6.83-3.31,10.32-4.78,28.78-12.1,49.33-33.18,64.79-59.67s24.16-55,27.85-85.26c5.16-42.3.76-83.47-14.91-123.26-1.06-2.69-2.26-5.32-3.62-8.51L692.45,501.83,578.5,372.4,919.18,72.5l114,129.42-52.24,46c31,27.9,51.19,62.19,62.91,102.17-4.19-.39-8.07-.67-11.93-1.11-30.67-3.49-60.1,16.24-68.26,45.8-9.53,34.54,13.45,70.29,49.32,77.07,9.53,1.81,18.87.87,28.29-.39,1.08-.15,2.16-.25,3.78-.44-18.54,63.61-55.16,111.4-116.09,139,0,.06.1.36.19.37,5.07.47,5.08.47,6.21,5.74q24.2,112.85,48.29,225.7c.69,3.27,1.92,4.21,5.19,4.14,10.6-.22,21.21-.08,31.81-.08h3.83v33.69H440ZM886.72,647.71c-11.12,0-20.64,7.42-22.27,17.43-1.74,10.65,5.28,20.71,16.33,23.41,11.64,2.84,23.64-3.2,27.27-13.72C912.69,661.37,902,647.75,886.72,647.71Z"/><path class="cls-2" d="M970.29,22.42q26.16,29.8,52.33,59.61,28.19,32.06,56.42,64.07c.73.83,1.44,1.69,2.36,2.77l-22.26,19.6-32.75-37.16-23.81,20.9-45.82-52,23.77-21L947.85,42.1c3-2.65,5.87-5.2,8.73-7.79,4.36-4,8.7-7.93,13-11.89Z"/><path class="cls-2" d="M684.41,508.88,671,520.67l-29.91-33.95-.65.21c2.92,20.42,5.84,40.84,8.83,61.72l-63.25,4.88c-1.48-10.19-2.92-20.07-4.46-30.66L559.25,542.5l-38-43.13,29.41-25.92-31.87-7.77c4.48-18.55,8.93-37,13.48-55.83l52.22,12.6-27.43-31.18,13.38-11.77Z"/><path class="cls-2" d="M1027.35,362.31c28.69.08,51.94,22.81,51.93,50.77s-23.42,50.82-52.28,50.76-52-22.93-51.89-51.11C975.22,384.83,998.65,362.22,1027.35,362.31Zm.29,76.89c15.16-.34,26.7-12.14,26.4-27-.28-14-12.72-25.56-27.16-25.31-15.24.26-26.86,12.2-26.53,27.23C1000.66,428.1,1013.08,439.51,1027.64,439.2Z"/><path class="cls-2" d="M886.72,647.71c15.26,0,26,13.66,21.33,27.12-3.63,10.52-15.63,16.56-27.27,13.72-11-2.7-18.07-12.76-16.33-23.41C866.08,655.13,875.6,647.68,886.72,647.71Z"/><path class="cls-2" d="M1027.64,439.2c-14.56.31-27-11.1-27.29-25.09-.33-15,11.29-27,26.53-27.23,14.44-.25,26.88,11.34,27.16,25.31C1054.34,427.06,1042.8,438.86,1027.64,439.2Z"/></g></g></svg>