<svg xmlns="http://www.w3.org/2000/svg" viewBox="0 0 1488.33 825"><defs><style>.cls-1{fill:#ac0034;stroke:#ac0034;stroke-miterlimit:10;stroke-width:3px;}.cls-2{fill:none;}</style></defs><title>Asset 27</title><g id="Layer_2" data-name="Layer 2"><g id="Layer_1-2" data-name="Layer 1"><path class="cls-1" d="M1342.77,161c-4.17,4.64-9.75,3.48-14.94,3.34-3.84-.1-6.24,1.12-8.74,4.24-21.69,27.16-50,39.07-84.3,33.2-33-5.66-55.38-25.36-67.43-56.66-.47-1.23-1-2.44-1.48-3.61-11,1.75-13.33.59-14.67-7.32-.07,4.11-1.15,7.6-5.52,8.55s-8.31.16-10.64-5.08c-2.24,5.37-6.1,6.61-10.81,5.62-6.06-1.26-5.18-6.46-6.86-11.66-1.24,1.45-2.83,2.72-3.66,4.37-7,14-18.08,22.88-33.37,26.15a62.5,62.5,0,0,1-12.92.88Q970.7,163.09,874,163c-5.06,0-8,1.43-10.68,6-13.22,22-32.72,35.44-57.78,41a14.15,14.15,0,0,0-6.5,3.16c-9,8.67-17.82,17.53-26.52,26.49-1.15,1.19-2.16,3.55-1.8,5,6.66,26.65,13.65,53.22,20.34,79.86Q817.52,430,843.76,535.73c1.08,4.33,2.93,5.8,7.45,5.76,26.33-.21,52.66-.12,79-.08,3.11,0,5.31-.08,6.81-3.92,2.47-6.31,8.74-4.12,13.64-4.24,4.49-.11,10.25-1.57,12.2,4.09,1.36,3.93,3.42,4.35,6.78,4.7,28.38,3,52.22,26.5,54.71,55.8a319.15,319.15,0,0,1,0,52.92c-2.23,27-21.95,48.23-48.37,54.64-1.75.43-3.46,1.06-5.19,1.6h-504a7.44,7.44,0,0,0-1.38-.57q-37.83-7.33-50.86-43.6c-.42-1.16-2.49-2.35-3.86-2.43-3.62-.2-5.73-1.72-7.22-5a11.72,11.72,0,0,0-4.35-4.47c-1.78-1.15-4-1.54-6-2.43-28.51-12.91-56.83-12.49-85.65-.28-28,11.87-56.54,11.33-84.55-.57-27.22-11.56-54.27-11.94-81.43-.17a106.33,106.33,0,0,1-38.71,8.94,8.06,8.06,0,0,0-5.38,3.12c-4.82,6.68-10.79,9.06-19.29,6.92a9.25,9.25,0,0,1-.26-2.31c.66-4.46-1.29-5.91-5.62-5.6-3.12.22-6.29-.31-9.44-.51v-3l14.5-1.81c1.24-3.14.1-4.34-3.28-4.38-3.74,0-7.48-.52-11.22-.81v-3l14.29-1.55c.11-.16.43-.4.46-.68.86-8,2.71-9.37,10.59-6.63a19.51,19.51,0,0,1,8,5.6,7.44,7.44,0,0,0,6.81,2.88c12.69-.47,24.61-3.83,36.17-8.88,22.18-9.68,45.16-10.89,68.52-5.69a113.79,113.79,0,0,1,18.86,6.46c26.43,11,52.84,11.31,79.11-.13,23-10,46.69-11.83,70.89-6.18,8.84,2.07,17.27,5.86,26.31,9,.52-5.14,3-8.64,9-8.77,0-8,0-15.63,0-23.27.07-37.32,25.58-64,62.93-65.67,2.5-.11,5-.18,7.5-.09,3.71.14,6.14-.14,8.41-4.49,3.54-6.75,11.12-3.35,16.94-3.51,2.82-.08,7.51,1.72,8.2,3.74,1.52,4.47,4.19,4.27,7.58,4.26,19.49,0,39-.14,58.48.07,4.25,0,5.62-1.34,6.24-5.52q14.58-98.57,29.48-197.08c3-20.25,6.07-40.5,8.91-60.77a9.66,9.66,0,0,0-1.55-5.94C606.06,243,609.6,208.5,634.1,183.94q31.06-31.14,62.27-62.14a20.75,20.75,0,0,0,6.25-12c7.45-43.64,45.07-74.32,89.32-72.67,23.53.88,43.6,10.09,59.85,27.17a11.91,11.91,0,0,0,9.56,4q103.73-.16,207.45-.08c18.64,0,33,7.76,43,23.59a7.88,7.88,0,0,0,4.39,3.22c.76.18,2.42-2,3.12-3.39,2.91-5.76,10.41-5.74,15.49.55,2.11-4.24,5.66-6.33,10.05-5,2.54.74,4.62,3,6.74,4.48,2.59-5.91,6.62-7.07,14.86-3.16.54-1.19,1.09-2.38,1.6-3.58,12.93-30.88,35.77-49.38,68.83-55.13a28.93,28.93,0,0,0,2.86-.8h20a32.66,32.66,0,0,0,3.32.91c21.31,3.5,39.41,13.12,52.86,30,5,6.22,10,8.84,17.51,7.8,3.93-.55,7.2.74,9.31,4.31V88c-2.41,1.27-4.82,3.62-7.24,3.64-28.64.26-57.29.19-85.93.15-4.59,0-7.29-2.52-7.35-7.06-.08-5.33.36-10.66.59-16.37-18,.53-32.75,8.3-41.83,24.85-9.81,17.9-8.25,35.64,3.79,52.11,9.44,12.93,27.66,21,38.59,18.32-.44-4.16-1.22-8.17-1.22-12.18,0-6.52,2.32-8.71,8.78-8.73,27.65,0,55.29,0,82.93-.07,3.84,0,6.81,1.08,8.89,4.34Z"/><polygon class="cls-2" points="0 0 1488.33 1.27 1488.33 825 0 825 0 0"/></g></g></svg>