<svg xmlns="http://www.w3.org/2000/svg" viewBox="0 0 1123 624.48"><defs><style>.cls-1{fill:#ac0034;stroke:#ac0034;stroke-miterlimit:10;stroke-width:3px;}.cls-2{fill:none;}</style></defs><title>Asset 7</title><g id="Layer_2" data-name="Layer 2"><g id="Layer_1-2" data-name="Layer 1"><path class="cls-1" d="M421.27,258.54a5.53,5.53,0,0,1,.27-.64c2.27-4.32,4.61-8.6,6.76-13a4.37,4.37,0,0,0,.06-3.22c-1.27-3-3.79-4.37-7-4.6-5.61-.42-10.84,1.18-15.94,3.19-13,5.12-24.76,12.51-36.22,20.38-26.84,18.45-51.67,39.38-75.78,61.21L291,324.07c-2.14-1.85-4.2-3.64-6.39-5.52,3.24-4.84,6.33-9.54,9.5-14.19,18.13-26.5,37.4-52.12,59.87-75.17C367.86,215,382.68,201.92,400,192c8.72-5,17.87-9,27.8-11,13.24-2.6,25.57-1.16,36.16,5.76.52-.71,1.05-1.43,1.57-2.16,28.7-40.68,62.24-76.7,102.27-106.47A401.48,401.48,0,0,1,644.41,33.5c18.89-8.41,38.69-14,58.33-20.27,11.45-3.64,23.17-4.74,34.83-6.64a296.27,296.27,0,0,1,52.81-3.74c3.78.07,7.58.22,11.34.6a25.21,25.21,0,0,1,5,1.52c.26,1.73.52,3.53.79,5.34V33c-.33,3.76-.67,7.52-1,11.28a318.16,318.16,0,0,1-11.07,62.48c-3.47,12.12-7.69,24-11.57,36a29.15,29.15,0,0,0-1.28,4.08c-1.08,6.67-5.29,11.94-8,17.87-23.3,51.15-56.67,94.89-98.1,132.65a500.13,500.13,0,0,1-57.21,44.82c-.48.32-.93.68-1,.73,1.79,5,4,9.67,5.12,14.58,2.44,10.66.62,21.09-3,31.23-5.68,15.85-15.14,29.39-26,42.06-17.74,20.71-38.27,38.4-60.25,54.37-16.33,11.87-33.26,22.9-49.93,34.3a13.64,13.64,0,0,1-1.47.78l-5.25-6.34c4.55-5,9.05-9.81,13.52-14.7,20.06-22,39.25-44.64,56-69.26,7.2-10.58,14-21.45,18-33.73,1.35-4.09,2.55-8.3,1.48-12.61a10.92,10.92,0,0,0-2.77-4.61c-1.61-1.67-3.45-1.83-5.87-.7-20.74,9.64-41.58,19.07-62.38,28.59a2.71,2.71,0,0,1-3.53-.73c-5.49-5.7-11.06-11.32-16.62-17-.57-.58-1.19-1.14-1.89-1.81-1.16,3.2-1.92,6.42-3.44,9.22-4.21,7.76-8.54,15.47-13.17,23-15,24.28-32.33,46.69-54,65.33-14.68,12.6-29.93,24.56-45.17,36.5a746.1,746.1,0,0,0-97.78,92.28,16.83,16.83,0,0,1-2.17,2.13c22.31-42.92,50.49-82,78.5-121.28C283,539.27,230.87,585.37,171.83,622.49l-.45-.56c9.9-9.46,20-18.71,29.63-28.44s19.15-19.9,28.33-30.21,18-20.92,26.74-31.63,17-21.61,25.25-32.68c-36.48,24.28-73.72,46.55-118.17,52.71,5.87-2.69,11.8-5.27,17.6-8.1,37.21-18.08,68.75-43.38,95.39-75a492.65,492.65,0,0,0,34.42-46.43c18.78-28.49,42.55-52.06,70.1-71.95,11-7.92,22.66-14.53,35.64-18.62.47-.15.92-.38,1.63-.67-.58-.66-1-1.22-1.53-1.74q-8.76-8.93-17.54-17.82c-.9-.91-1.35-1.63-.77-3m92.88,21c4.34,4.95,8.34,10,12.84,14.54,11.07,11.2,22.41,22.14,33.56,33.26,1.18,1.19,2,1,3.27.39,46.75-22.78,90.29-50.4,129-85.38,39.2-35.44,71.08-76.41,94.16-124.08.93-1.92.75-3-.72-4.51q-57.51-58.93-114.91-118c-3-3.08-3-3.05-6.83-1.27C584,70.86,536.4,109.86,496.32,158.34c-26.7,32.29-48.92,67.51-67.89,104.82-.79,1.57-.65,2.38.56,3.6q22,22.29,43.91,44.68c.82.83,1.5,1.77,2.35,2.78l58.53-57.45,15.88,15Zm-37.82,37.44c-.66.59-1.17,1-1.64,1.47-15,14.69-29.85,29.46-44.93,44a35.93,35.93,0,0,0-8.46,12.07c-1,2.33-2.08,4.6-3.07,6.92-7.39,17.34-16.15,33.89-28,48.65a6.72,6.72,0,0,0-.49,1.15,8.76,8.76,0,0,0,1-.61c13.63-13.57,28.72-25.45,43.55-37.64,14.2-11.67,27.23-24.39,36.13-40.74,4.8-8.82,9.23-17.81,10.75-27.89a4,4,0,0,0-.47-2.75A60.94,60.94,0,0,0,453.16,366.76Zm-69.32,36.4.33.21,53.6-52.43c-4.23-4.21-8.25-8.27-12.36-12.24a2.34,2.34,0,0,0-2.1-.46c-12,6-23.06,12.95-31.19,24.13q-19.51,26.85-39.93,53c-7.47,9.54-16,18.26-26.81,24.22-.14.08-.17.36-.44,1a26.89,26.89,0,0,0,3.9-1.11c3.2-1.5,6.55-2.81,9.44-4.79q15.9-10.92,31.53-22.26c5.15-3.73,10.05-7.8,15.07-11.72l.26.2Zm60.72-58.34L468.16,320l-45-45.94c-.45.88-.82,1.52-1.13,2.2-4.46,9.79-8.86,19.6-13.4,29.35-.84,1.81-.72,2.89.74,4.33C420.61,321,431.77,332.21,443,343.38,443.31,343.73,443.69,344,444.56,344.82Zm15.86,15.7c6.28,6.75,12.84,13.9,19.5,20.94,4.63,4.88,9.46,9.57,14.1,14.45a2.61,2.61,0,0,0,3.46.67c8-3.48,16.06-6.86,24.08-10.32,2.64-1.14,5.24-2.4,8-3.68L483.8,335.85Zm207-327.24.17.68c6.7-.5,13.42-.85,20.09-1.55,14.63-1.51,29.28-2.89,43.85-4.88,17.54-2.41,35-5.3,52.49-8.19,3.43-.57,6.73-2,10-3.22a2.64,2.64,0,0,0,1.41-1.8c.07-.39-.89-1.22-1.51-1.39a29.66,29.66,0,0,0-7.1-1.53,298.68,298.68,0,0,0-52.48,4.19A357.81,357.81,0,0,0,685,27.51C679.11,29.34,673.28,31.35,667.42,33.28ZM375.61,417c-9.09,12.49-18.17,25.32-27.63,37.86a263.48,263.48,0,0,1-31.52,34.69c26.55-17,48.7-39.19,71.92-60.54Z"/><path class="cls-1" d="M491,329.32l58.68-57.58-15.88-15-58.53,57.45c-.85-1-1.53-2-2.35-2.78Q451,289.07,429,266.76c-1.21-1.22-1.35-2-.56-3.6,19-37.31,41.19-72.53,67.89-104.82,40.08-48.48,87.65-87.48,145-114,3.84-1.78,3.83-1.81,6.83,1.27q57.43,59,114.91,118c1.47,1.51,1.65,2.59.72,4.51-23.08,47.67-55,88.64-94.16,124.08-38.67,35-82.21,62.6-129,85.38-1.25.61-2.09.8-3.27-.39-11.15-11.12-22.49-22.06-33.56-33.26C499.32,339.32,495.32,334.27,491,329.32Z"/><path class="cls-1" d="M453.16,366.76a60.94,60.94,0,0,1,4.37,4.65,4,4,0,0,1,.47,2.75c-1.52,10.08-5.95,19.07-10.75,27.89-8.9,16.35-21.93,29.07-36.13,40.74-14.83,12.19-29.92,24.07-43.55,37.64a8.76,8.76,0,0,1-1,.61,6.72,6.72,0,0,1,.49-1.15c11.87-14.76,20.63-31.31,28-48.65,1-2.32,2.1-4.59,3.07-6.92a35.93,35.93,0,0,1,8.46-12.07c15.08-14.56,30-29.33,44.93-44C452,367.77,452.5,367.35,453.16,366.76Z"/><path class="cls-1" d="M383.84,403.16l1.3-2.27-.26-.2c-5,3.92-9.92,8-15.07,11.72q-15.65,11.31-31.53,22.26c-2.89,2-6.24,3.29-9.44,4.79a26.89,26.89,0,0,1-3.9,1.11c.27-.6.3-.88.44-1,10.84-6,19.34-14.68,26.81-24.22q20.46-26.13,39.93-53c8.13-11.18,19.2-18.17,31.19-24.13a2.34,2.34,0,0,1,2.1.46c4.11,4,8.13,8,12.36,12.24l-53.6,52.43Z"/><path class="cls-1" d="M444.56,344.82c-.87-.78-1.25-1.09-1.6-1.44-11.19-11.17-22.35-22.37-33.61-33.48-1.46-1.44-1.58-2.52-.74-4.33,4.54-9.75,8.94-19.56,13.4-29.35.31-.68.68-1.32,1.13-2.2l45,45.94Z"/><path class="cls-1" d="M460.42,360.52l23.38-24.67,45.75,46.73c-2.75,1.28-5.35,2.54-8,3.68-8,3.46-16.07,6.84-24.08,10.32a2.61,2.61,0,0,1-3.46-.67c-4.64-4.88-9.47-9.57-14.1-14.45C473.26,374.42,466.7,367.27,460.42,360.52Z"/><path class="cls-1" d="M667.42,33.28c5.86-1.93,11.69-3.94,17.58-5.77a357.81,357.81,0,0,1,49.37-11.92,298.68,298.68,0,0,1,52.48-4.19,29.66,29.66,0,0,1,7.1,1.53c.62.17,1.58,1,1.51,1.39a2.64,2.64,0,0,1-1.41,1.8c-3.3,1.2-6.6,2.65-10,3.22-17.47,2.89-34.95,5.78-52.49,8.19-14.57,2-29.22,3.37-43.85,4.88-6.67.7-13.39,1.05-20.09,1.55Z"/><path class="cls-1" d="M375.61,417l12.77,12c-23.22,21.35-45.37,43.51-71.92,60.54A263.48,263.48,0,0,0,348,454.82C357.44,442.28,366.52,429.45,375.61,417Z"/><polygon class="cls-2" points="0 0 1123 0.96 1123 622.49 0 622.49 0 0"/></g></g></svg>