<svg xmlns="http://www.w3.org/2000/svg" viewBox="0 0 2647.71 1467.66"><defs><style>.cls-1{fill:#ac0034;stroke:#ac0034;stroke-miterlimit:10;stroke-width:3px;}.cls-2{fill:none;}</style></defs><title>Asset 33</title><g id="Layer_2" data-name="Layer 2"><g id="Layer_1-2" data-name="Layer 1"><path class="cls-1" d="M1578.71,145h35c1.45.28,2.89.63,4.35.83,11.37,1.49,22.9,2.26,34.11,4.55,83.72,17.15,146.95,63.08,190.09,136.66,13.25,22.6,24.06,46.46,29.73,72.11,3.25,14.72,4.6,29.92,5.94,45a337.41,337.41,0,0,1-4.73,93c-10.64,56.28-34.8,106.56-68.09,152.76-30.57,42.41-66.95,79.42-105.89,114.05-50.11,44.56-104,84.38-157.69,124.36-51.18,38.09-102.66,75.8-150.85,117.72-13.69,11.91-27,24.27-40.65,36.62-2.33-2.91-4.7-5.88-7.08-8.84-38-47.32-82.42-88.09-130.54-124.69-49-37.3-99.13-73.22-148.64-109.91-46.11-34.17-90.7-70.1-129.33-112.86-35.4-39.18-63.65-82.74-81.32-132.79-14.28-40.41-20.79-82.18-21.13-124.91-.1-12.75-.16-25.88,2.58-38.22,14.94-67.35,49.68-123.11,102.55-167.06,68.85-57.25,148.16-81.55,237.09-68.83,57.07,8.16,107.67,32.56,151.43,70.32,11.29,9.74,21.52,20.72,32.43,31.32.76-.85,1.87-2.05,2.93-3.28,49.26-57.15,111.56-91,185.6-103.82C1557.22,147.25,1568,146.34,1578.71,145Z"/><path class="cls-1" d="M1818.26,1089.32c-13.67-9.93-28.28-16.54-44.83-13.5-17.09,3.13-32.8,10.52-47,21-12.69,9.42-25.46,18.77-38.73,27.33-9.31,6-19.12,11.7-29.43,15.62-19.55,7.44-39.59,13.61-59.5,20.11-12.25,4-24.62,7.62-36.56,11.29l23.92,31.5,5.64-1.83c29.87-9.66,59.84-19,89.6-29.07,21.24-7.16,42.92-13.61,61.33-27.17,15.68-11.57,31-23.56,46.72-35.13C1798.68,1102.69,1808.21,1096.33,1818.26,1089.32Zm-317.84,36.37c15.29,10.84,30,20.58,43.87,31.44,6.06,4.75,11,7.67,18.15,3.19,1.21-.77,2.85-.85,4.27-1.31,26.27-8.39,52.57-16.69,78.75-25.35a10.36,10.36,0,0,0,5.71-5.92c4.35-13.78-2.64-30.43-16.12-35.28-18-6.48-36.32-6.8-54.17,2.21a323.7,323.7,0,0,1-31.46,13.7C1533.29,1114.47,1516.91,1119.9,1500.42,1125.69Zm336.7,102.75c2.21-.66,3.33-.88,4.34-1.32,21.89-9.63,43.88-19,65.6-29a66.56,66.56,0,0,0,27.78-23c8.62-12.75,10.69-26.77,3.53-40.65s-20.54-18.39-34.87-21C1892.93,1158.36,1869.62,1195.41,1837.12,1228.44Z"/><path class="cls-1" d="M672.71,953c4.36-2.28,8.49-5.25,13.1-6.73,41.64-13.32,83.27-26.69,125.1-39.41,27.19-8.26,54.57-16,82.12-23,18.89-4.77,38-2.38,56.93,1.5,41,8.38,79.48,23.78,117.51,40.84,40.63,18.22,78.89,40.16,113.88,67.69,7.19,5.66,14,11.77,21,17.79a84.45,84.45,0,0,0,29.89,16.57,238.3,238.3,0,0,1,25.82,10.51c12.57,5.79,25.34,10.72,38.93,13.79,9.83,2.22,19.35,5.94,28.89,9.3,24.46,8.6,48.64,18,73.33,25.88a278.11,278.11,0,0,1,56.5,24.79c27.16,15.87,54.92,30.79,79.78,50.31,13.93,10.94,27.16,22.64,36.58,37.93,13.13,21.32,14.72,43.39,3.81,66.12a43.35,43.35,0,0,1-4.13,6.81c-7.85,10.64-16.43,12.73-28.7,7.12,7.18-12.14,11-25.46,13.58-39.17,2.9-15.61-3.95-28.53-13.09-40-11.3-14.24-26.64-23.19-44.09-27.61-16.52-4.19-28.72,1.88-35.2,17.6-4.47,10.83-7.24,22.4-10.28,33.77-1.83,6.86-2.74,14-4.18,21.64l-315.16-78.37c2.54,5,4.13,8.52,6.08,11.79.54.9,2.11,1.37,3.3,1.67,85.39,21.13,170.57,43.14,256.27,62.93,42.73,9.86,83.46,24.74,124.07,40.52,7,2.71,14.09,5,21.22,7.31,12.74,4,25.62-.69,34.41-13a70.45,70.45,0,0,0,13.1-45.67c-.37-7.08-1.94-14.09-3.06-21.78,1.86-.65,4.14-1.5,6.44-2.26,40.36-13.42,80.82-26.54,121-40.37,16.5-5.67,30.49-16.06,44.49-26.37,22.36-16.49,45.12-32.46,67.88-48.4a47.84,47.84,0,0,1,24.26-8.43c13.25-.95,24.87,3.54,35.1,11.66,3.72,3,5,6.87,4,12-7.7,39.14-27.71,71.69-53.91,100.83-16.93,18.82-36.71,34.32-58.41,47.35-35.81,21.51-71.93,42.45-109.92,60-24.21,11.15-49.82,16.14-76.35,17.54q-57.39,3-114.72,7c-27.4,1.92-54.8,4.13-82.09,7.21-24.45,2.76-48.7,7.26-73.13,10.28a402.86,402.86,0,0,1-46.65,3.4c-7.19.06-14.61-2.93-21.57-5.47-21.53-7.87-42.46-17.68-64.4-24-40.23-11.6-81.1-20.94-121.55-31.79-48.15-12.93-96-27.11-144.28-39.43-21-5.36-42.8-8-64.37-10.84-21.26-2.79-42.65-5.13-64.06-6-19.41-.82-38.92.47-58.39,1-10.54.28-16.21-3.41-20.6-12.94-6.94-15-9.77-30.92-11-47.3a1329.87,1329.87,0,0,0-17.54-137.6c-4-22.09-6.78-44.39-10.66-66.5C678,974.1,675,965.61,672.71,957Z"/><path class="cls-1" d="M1818.26,1089.32c-10,7-19.58,13.37-28.79,20.17-15.67,11.57-31,23.56-46.72,35.13-18.41,13.56-40.09,20-61.33,27.17-29.76,10-59.73,19.41-89.6,29.07l-5.64,1.83-23.92-31.5c11.94-3.67,24.31-7.29,36.56-11.29,19.91-6.5,40-12.67,59.5-20.11,10.31-3.92,20.12-9.62,29.43-15.62,13.27-8.56,26-17.91,38.73-27.33,14.15-10.5,29.86-17.89,47-21C1790,1072.78,1804.59,1079.39,1818.26,1089.32Z"/><path class="cls-1" d="M1500.42,1125.69c16.49-5.79,32.87-11.22,49-17.32a323.7,323.7,0,0,0,31.46-13.7c17.85-9,36.13-8.69,54.17-2.21,13.48,4.85,20.47,21.5,16.12,35.28a10.36,10.36,0,0,1-5.71,5.92c-26.18,8.66-52.48,17-78.75,25.35-1.42.46-3.06.54-4.27,1.31-7.12,4.48-12.09,1.56-18.15-3.19C1530.44,1146.27,1515.71,1136.53,1500.42,1125.69Z"/><path class="cls-1" d="M1837.12,1228.44c32.5-33,55.81-70.08,66.38-115,14.33,2.63,27.74,7.22,34.87,21s5.09,27.9-3.53,40.65a66.56,66.56,0,0,1-27.78,23c-21.72,10-43.71,19.41-65.6,29C1840.45,1227.56,1839.33,1227.78,1837.12,1228.44Z"/><polygon class="cls-2" points="0 0 2647.72 2.25 2647.72 1467.66 0 1467.66 0 0"/></g></g></svg>