<svg xmlns="http://www.w3.org/2000/svg" viewBox="0 0 1805.84 1001"><defs><style>.cls-1{fill:#ac0034;stroke:#ac0034;stroke-miterlimit:10;stroke-width:3px;}.cls-2{fill:none;}</style></defs><title>Asset 39</title><g id="Layer_2" data-name="Layer 2"><g id="Layer_1-2" data-name="Layer 1"><path class="cls-1" d="M421,563.05c15.09.77,28.63-1.61,41.58-7.69,10.63-5,10.3-4.74,8.17-16.35-1.75-9.48-5.5-17.4-12.41-24.26-4.93-4.89-8.77-10.87-13-16.41-3.22-4.2-3.52-8.42-1.19-13.44,8-17.37,15.94-34.8,23.36-52.43C482,398,494.1,362.87,499,325.59c2.1-15.84,4.3-31.66,6.42-47.49,1.61-12,7.1-21.23,18.57-26.43Q549.71,240,575.19,228c1.8-.84,4.33-2.88,4.33-4.37,0-13.32-.37-26.6-5.77-39.22-8.4-19.6-9.53-40.09-4.82-60.58,4-17.53,15.68-25.49,33.54-25,16.51.41,28,9.82,31.07,27.58,1.75,10,1.58,20.54,1.19,30.79-.69,18-2.18,35.89-3.42,53.82-.2,2.95.46,4.5,3.75,5.09,19.48,3.51,38.89,7.47,58.4,10.78,6.6,1.12,11.87,4.2,16.82,8.15,17.17,13.69,31.52,30.12,45.17,47.2A385.12,385.12,0,0,1,816.81,392.6c1.37,3.78,4.12,7.2,6.71,10.38,8.27,10.16,12.63,22.21,17,34.27a5,5,0,0,1-.06,3.73c-4,7.1-7.66,14.4-12.33,21-3.83,5.44-7.56,5.89-12.11,1.18-9-9.3-17.5-19.15-25.75-29.14-1.68-2-1.6-5.66-2-8.6-1.11-8.92-2-17.87-3.09-26.79a12.36,12.36,0,0,0-1.77-5.6c-14.24-19.69-28.07-39.72-43.18-58.73-8.57-10.78-20.47-18.29-32.94-25.41-6.54,11-11.13,22.18-12.06,34.43-1.33,17.42-2.88,34.92-2.48,52.35.3,13.2,3.44,26.34,5.44,39.49.54,3.61,1.42,7.18,2.3,10.73,2.51,10.13.46,16.18-8.38,21.74-3.25,2-3.56,4.1-2.83,7.38,8.11,36.92,13.94,74.21,18.41,111.75,5.48,45.91,6.77,92,6.36,138.14-.34,39.3-1.1,78.61-2.05,117.9-.62,25.12-1.92,50.23-2.94,75.34a25.57,25.57,0,0,1-.6,5c-2.17,8.89-3.22,17.5,3,25.52,1.61,2.08,2.18,5.23,2.53,8,1.26,9.87-5.27,15.61-14.32,11.4-9.71-4.52-18.63-10.81-27.68-16.65-4.18-2.7-7.81-6.23-11.79-9.26s-8.45-5.38-14.18-3.54a18.85,18.85,0,0,1-.52-2.87q-.78-29.46-1.5-58.92c-1-38.95-2.06-77.9-2.91-116.86-.43-19.48-1.07-39-.5-58.46,1.1-37.6-7.21-73.36-19.51-108.46-2.88-8.25-6.24-16.32-9.38-24.48l-1.52.15c-1.52,7.21-3.11,14.41-4.55,21.63-4.54,22.66-9.63,45.24-13.38,68-4.35,26.42-7.69,53-11.14,79.59q-8.92,68.57-17.38,137.19c-.66,5.26-.43,10.64-.48,16a32.49,32.49,0,0,1-5.41,18.37,16.34,16.34,0,0,0-2.59,9.08c.29,8,1.29,15.93,2.15,23.87.28,2.65-.36,4.24-3,5.41-14.35,6.3-28.79,12.32-44.48,14.43a29.91,29.91,0,0,1-8.91,0c-9-1.58-11.14-5.94-7.27-14.24,4.42-9.48,9.44-18.71,13.27-28.42a49.2,49.2,0,0,0,3.11-17c.76-50.63.67-101.29,1.94-151.91.87-34.92,3.16-69.83,5.44-104.7,1.83-28.07,4.54-56.09,7-84.12,2.44-28.2,5.23-56.36,7.46-84.57,1.32-16.76,1.84-33.58,2.75-50.37.62-11.3,1.31-22.59,1.94-33.89a10.4,10.4,0,0,0-1-5.54c-2,6.3-4,12.6-6.11,18.89-5.38,16.39-16.73,29.45-24.92,44.28-6.67,12.1-14,23.83-20.71,35.91a11,11,0,0,0-.59,7.41c4.83,18.67,9.77,37.31,15,55.88,2.74,9.71.49,17.23-8,22.95-12.54,8.5-24.86,17.32-37.52,25.64-3.46,2.27-5.61,4.79-6.65,8.73q-6.68,25.32-13.65,50.55c-1.24,4.48-2.39,9.18-4.7,13.12-6.63,11.35-5.25,23-3.46,35.23,3.83,26.13,11.63,51.24,18.66,76.54,7.14,25.73,6,51.4.23,77.07-1.82,8.1-4.73,15.95-6.76,24a17.25,17.25,0,0,0,.32,7.51c1.7,7.9,4.33,15.67,5.34,23.64.86,6.72-2.63,11.18-7.89,13-6.37,2.17-11.72.69-15.88-4.93-6.07-8.18-7.48-18-9-27.68-.37-2.35-1.49-4.59-2.31-6.86-2.56-7.15-6.41-14.11-7.46-21.47-3.21-22.4-5.29-45-7.92-67.44a103.65,103.65,0,0,0-12.64-39.17c-1.13-2-2.58-3.8-3.87-5.68C362,763,357.33,775.8,362.5,789.89c5.52,15,7.63,30.65,8.27,46.5.75,18.62,1.52,37.25,1.51,55.88,0,5-2,10.55-4.65,15-1.62,2.73-5.9,4.68-9.32,5.37-4.87,1-7.34-1.63-7.83-6.68-.66-7-1.6-13.93-1.66-20.9-.13-16.08-9.9-26.26-21.15-35.5-5.27-4.32-10.58-8.61-11.48-15.71-1.72-13.68-7.76-25.79-13.49-37.91-4.53-9.58-5.28-18.91-1.38-28.43,10.16-24.77,20.64-49.4,31-74.08a25.81,25.81,0,0,1,2.21-4.47c9.44-14,7.72-30.24,8.9-45.85a239.13,239.13,0,0,0,.76-25.95c-.37-11.29-6.09-19.66-15.9-25.24-6.64-3.77-13.46-7.28-19.88-11.41-7-4.54-10.13-11.78-11.46-19.73a7.91,7.91,0,0,1,1.4-5.47c7.53-9.76,15.13-19.47,23.07-28.89,2.26-2.69,5.54-4.73,8.69-6.44,13-7,24.9-15.12,34.11-26.95a57.66,57.66,0,0,1,11.85-11.34c20-14.24,42.53-5.37,47.84,18.58,3.74,16.9,2,33.75-.68,50.57C422.62,554.71,421.8,558.59,421,563.05Zm-45.33-1.32c-4.11-5.2-7.58-9.62-11.09-14-.29-.37-.77-.86-1.15-.85-3.81.07-7.62.26-11.43.35a23.36,23.36,0,0,0-3-.22,65.15,65.15,0,0,0-9.15,1.77c-3.88,1.2-4.64,4.91-4.32,8.11.15,1.51,2.88,3,4.72,4a25.47,25.47,0,0,0,6.13,2C355.9,565.21,365.34,565.49,375.64,561.73Z"/><path class="cls-1" d="M654.7,131.52,668,133.9l-18.66-19.6c6.69-.34,10.65,5.35,17,6.33L651.52,103l1.11-1.49,19.71,13.81c-2.39-7.24-4.41-13.34-6.43-19.45l1.5-.8c1.5,1.64,3.13,3.17,4.48,4.92,6.26,8.12,13.4,15.24,22.42,20.34,4.93,2.78,6.78,2.43,8.5-2.89.81-2.52.11-5.51.37-8.26a34,34,0,0,1,1.29-5.17c1.71,1,4.31,1.69,5,3.19a88.52,88.52,0,0,1,4.43,13.75c2.19,8.71,4,17.5,6.16,26.23a11.1,11.1,0,0,0,2.35,4.79C753.8,186.19,784.61,221,817,254.33c24.67,25.39,56.09,37.45,91.57,38.72,4.58.16,5.84-1.61,5.57-5.83C913.94,284.29,913,283,910,283c-5.33.12-10.67.19-16-.09-1.51-.08-3.82-1.09-4.29-2.27-7.41-18.69-13.08-37.88-11.74-58.25,1.74-26.65,14.88-39.86,41.58-41.63a82.12,82.12,0,0,1,24.73,1.93c16.84,4.15,25.94,16.39,30.33,32.64,4.21,15.62,2.5,47.77-3.69,63.57-3.28-.17-6.76-.09-10.17-.59-3-.44-4.24.31-4.42,3.49-.56,9.84-.4,10,9.39,7.91,26.33-5.55,47.87-20,68.75-36.1,28.81-22.26,52-49.54,73.3-78.71,11.1-15.2,22.52-30.19,34.42-44.76,5.24-6.43,7.4-13.3,8.51-21.23,1.49-10.69,3.89-21.25,6.09-31.83.48-2.32,1.75-4.47,3.08-7.72,5.7,6.82,3.53,14.5,5.63,21.87,11.94-11.63,22.45-23.39,28.73-38.46l1.53.3c.31,4.41.62,8.82,1,14.67l7.88-12,1.15.43v28.2l8.39-1.54.72.93a39.22,39.22,0,0,1-3.31,3.72c-9.48,8.39-19.12,16.6-28.45,25.15a63.58,63.58,0,0,0-9.74,11.12c-20.09,29.82-39.92,59.83-60,89.68-11.61,17.28-23.9,34.12-35.15,51.64-12.92,20.13-29.18,37.11-46.89,52.93a23.69,23.69,0,0,0-5.77,7.87,287.78,287.78,0,0,0-20.14,65.17c-2.78,15.65-.3,31.21,0,46.82.47,22.13-.07,44.29.4,66.42.3,14.43,1.38,28.87,2.56,43.27,3.71,45.11,9.94,90,9.5,135.45-.08,8.16-.09,16.33-.55,24.48-1.17,20.65,3.56,40,10.22,59.49,12.62,37,23.41,74.57,34.94,111.91.43,1.41.65,2.89,1,4.61-4.33.58-8.44,1.08-12.52,1.71-2.47.38-5.46-.29-6.47,3.36-.18.65-2.34,1.2-3.48,1.06-4.43-.57-6.52,1.29-6.66,5.64a7.88,7.88,0,0,1-.36,1.45c-3.79,15.91-7.14,18.85-23.38,19.79a162.23,162.23,0,0,1-16.94.09c-4.93-.23-6.49-3.44-3-6.84,7.27-7.16,5.35-16.75,7.16-25.25.6-2.83-1.88-6.87-4-9.52-1.25-1.57-4.51-1.91-6.92-2.09-3.44-.26-4.73-1.78-5.5-5.1C970,819,958.67,770,946.72,721.21c-9.54-38.93-19.88-77.66-29.89-116.48a17.13,17.13,0,0,0-2.08-4.85c-8.17,88.52-23.36,176-34.23,264.13l-11.84-3.15c-1.82,5.41-3.16,10.09-4.95,14.59Q858.2,889.33,852.25,903c-2,4.55-5.6,5.78-10.3,4.41-2.71-.8-5.51-1.28-8.22-2.07-13.82-4-10.3-2.35-13-15.35a23.76,23.76,0,0,1,2-16.5c3.32-6.29,2.16-8.93-3.29-13.56a5.72,5.72,0,0,1-1.42-4.67c1.85-8.43-.11-14.87-8.38-18.78-5.27-2.5-6.43-6.28-5.67-12.47,5.4-43.44,10.56-86.92,15-130.47,3.62-35.44,5.38-71.07,9.47-106.44,2.18-18.9,7.73-37.4,11.43-56.14,5-25.4,17.17-48.16,26.09-72.12,3.3-8.88,5.89-18,8.88-27,6.47-19.45,3.31-37.92-7.87-54.36-10.74-15.78-23.19-30.41-35-45.48-16.92-21.64-34-43.15-50.84-64.88-26.1-33.72-51.46-68-78.3-101.15-11.33-14-26.56-24.17-43.85-30.51-1.63-.59-3.2-1.36-4.79-2Z"/><path class="cls-1" d="M1398.16,494.86c-5.13.63-9.17,1.2-13.23,1.62-4.47.46-9,1.27-13.43,1-5.23-.26-8.71,2.15-12.18,5.52-15.86,15.44-31.87,30.74-47.71,46.2-2.12,2.06-3.63,4.76-5.29,7.25-2.59,3.87-3.78,7.9-2.53,12.73s1.62,10.19,2.73,15.21c.61,2.72-.26,3.94-2.64,4.93-4,1.67-7.78,3.82-11.82,5.34-3.45,1.3-4.26,3.51-4.1,6.94,1.18,24.1,2.14,48.22,3.39,72.32.22,4.25-1,7.45-4.09,10.12-6.33,5.41-12.51,11-19,16.19-2.53,2-3.5,4-3,7.17,3.53,24.37,7.53,48.7,10.14,73.17,1.94,18.18,2.29,36.55,2.88,54.85s.56,36.63,1,54.95c.09,4-.4,7.44-3.53,10.38-1.09,1-1.43,3.15-1.6,4.81-.69,6.94-.88,13.94-1.94,20.81-.27,1.73-2.81,3.87-4.71,4.45-6,1.78-12.14,2.91-19.29,4.53-.29-6.25-1.06-11.37-.63-16.39.69-8.07-1.25-14.25-9.13-17.82-2.28-1-4.19-2.88-6.85-4.78.22-36.31-2.83-72.93-13.32-110.1-1.32,3-2.31,4.73-2.93,6.63-8.36,25.52-12.2,51.77-12.66,78.56-.09,5.16-.45,10.38.1,15.49.74,7-1.68,11-7.48,15.42-5.29,4-12.39,8.47-11.94,17.42.19,3.8-2,6.18-6.15,7.16-4.66,1.09-9.09,3.17-13.6,4.89-3.37,1.29-5.08.47-4.94-3.4.25-7.12.57-14.26.45-21.38,0-2-.91-4.76-2.38-5.89-5.12-4-7.64-8.34-7.49-15.25,1-49.48,6.9-98.23,20.74-145.88,1.11-3.83,1.79-7.82,3.24-11.52,3.68-9.37,3-18.8,1.31-28.4-3.86-21.94-7.28-43.95-11.43-65.83-1.32-7-4.61-13.53-6.59-20.4-1.54-5.32-4.55-8.73-10.06-9.55s-8.21-3.85-7.19-9.44c2.17-11.84-3.87-19.22-12.78-25.73-24.75-18.06-49.27-36.44-73.86-54.71q-10.63-7.89-21.22-15.87c-1.14-.86-2.13-1.92-3.79-3.44l12.93-2.18a23.41,23.41,0,0,0-1.07-4.37c-3.46-7-1-13.13,2.46-19.25,1.78-3.2,3.53-3.36,5.54-.43,3.55,5.18,7,10.41,11,16.34,2-3.89,3.67-7,5.31-10.14l1.22,0c.81,6.24,2,12.47,2.29,18.74.21,5.2,2.41,8.47,6.42,11.53,19.25,14.64,38.67,29,60.48,39.68,14.76,7.22,30.09,12.68,46.89,12.26,2.26-.06,4.52-.33,7.84-.58-2.23-3.72-4-6.62-5.72-9.55-1.6-2.72-3.28-5.42-4.71-8.23-3-5.91-2.61-6.77,3-8.59.57-8.93.37-17.79,1.85-26.37,4.08-23.77,30.48-35,51-22.07,8,5.05,11.39,13,11.93,22,.53,8.72.12,17.51.12,26.56,4.1.94,5.18,2.56,3.34,8-1.74,5.17-4,10.15-6.45,16.25,48.92-18.47,88.48-48.71,123.87-84.92,1.67.36,3.83,1.24,6,1.22,7-.06,14-.52,21-.69,3-.07,6.35-.56,7.64,3.15,1.33,3.86,1.93,7.68-1.29,11.21C1398,487.37,1394.32,489.7,1398.16,494.86Z"/><polygon class="cls-2" points="0 0 1805.84 1.54 1805.84 1001 0 1001 0 0"/></g></g></svg>