<svg xmlns="http://www.w3.org/2000/svg" viewBox="0 0 1809.45 1003"><defs><style>.cls-1{fill:#ac0034;stroke:#ac0034;stroke-miterlimit:10;stroke-width:3px;}.cls-2{fill:none;}</style></defs><title>Asset 35</title><g id="Layer_2" data-name="Layer 2"><g id="Layer_1-2" data-name="Layer 1"><path class="cls-1" d="M453.27,422.23l-1.72.44a47.2,47.2,0,0,1-2.61-5.23c-3-8.31-6-16.6-8.73-25-4.5-13.94-8.19-28.17-13.38-41.84-2.72-7.17-7.41-13.78-12.1-20-5.09-6.73-8.82-6.72-14.7-1.07-3,2.86-4.93,1.91-7.58-.45-6.28-5.6-14.14-3.16-16.17,5A34.27,34.27,0,0,0,375.05,345c1.6,19.23,3.32,38.45,5.43,57.63a187.79,187.79,0,0,0,9.25,41.27c7.06,20.4,12.06,41.5,17.93,62.3a6.56,6.56,0,0,1,.14,1c1.09,8.88-3.67,14.79-12.6,15.77a22.52,22.52,0,0,1-16.12-4.12c-9.39-6.86-19-13.54-27.57-21.37-14.55-13.33-44.7-17.07-61.31-6.36a15.47,15.47,0,0,0-6,7.52c-1.85,5.68,1.16,9.4,8.64,11.51,21,5.91,39,16.39,54.13,32.4,22.67,24.05,47.34,46,74.61,64.74,12,8.25,19.47,19.18,24.24,32.62,7.18,20.25,5.51,41.16,4.75,61.9-1.11,30.6-3,61.18-4.77,91.75-.9,15.29-2.22,30.55-3.61,45.8-1.63,17.9-3.48,35.78-5.4,53.66-.4,3.76.84,5,4.58,5q68.73-.09,137.47,0c3.79,0,5.58-1.26,5.29-5.22-1.58-21.24-2-42.62-4.87-63.67-6.28-46-13.92-91.86-20.78-137.81-2.2-14.71-2.36-29.36,6.65-42.36,5.17-7.46,7-15.75,6.87-24.6-.2-18.42-3.08-36.49-7.49-54.32-9.56-38.64-19.46-77.2-28.82-115.89-3.45-14.23-5.5-28.79-8.8-43.07-1-4.53-3.59-8.93-6.3-12.81-2.51-3.59-6.72-4.12-10.86-2.56s-5.84,4.79-5.78,9c0,2.15.29,4.31.51,6.45,1.49,14.39,3.32,28.76,4.28,43.18.31,4.64-1.33,9.52-2.69,14.1-1,3.21-3.45,3.61-5.51.7a41.76,41.76,0,0,1-4.46-7.75c-8.5-19.88-13.82-40.65-17-62-1.59-10.7-3-21.45-5-32.06-1.48-7.7-5-14.52-12.13-18.74-4.84-2.86-9.62-2.25-13.75,1.58-4.31,4-5.47,8.79-4.16,14.54,2,8.75,4,17.54,5.37,26.4C451,401.47,452,411.87,453.27,422.23Zm886.9,218.69c3,2,6.76,3.6,9.42,6.3a195.41,195.41,0,0,0,31.8,26.44A179.86,179.86,0,0,1,1396.55,685c4.18,3.43,5.31,8.15,4.93,13.5a88.72,88.72,0,0,0,.12,12.94c1.38,17.92,4.28,35.84,4.07,53.72-.39,33.95-2.53,67.88-4,101.82-.33,7.65-.66,15.3-1.26,22.93-.5,6.28-.13,6.95,6.25,7,21.66,0,43.33-.11,65,.11,5,0,6.84-1.61,6.56-6.63-1.14-21.11-1.37-42.29-3.21-63.33-3-34.65-6.86-69.24-10.72-103.81-1.66-14.93-2-29.54,4-43.73,1.42-3.33,2-7,2.83-10.6,3.07-13.94,3.42-28.07,2.87-42.26-.22-5.77,2.14-10.24,5.38-15,6-8.9,10.95-18.55,15.83-28.14,1.87-3.68,0-7.37-3.5-9.44s-6,.6-8,3.06c-2.54,3.08-4.78,6.4-7.28,9.53-3.53,4.41-6.77,9.18-10.94,12.9-1.9,1.68-6.08,2.23-8.56,1.36-1.85-.64-3.24-4.25-3.73-6.76-.63-3.21-.14-6.63-.14-10,0-10.33.2-20.66-.09-31-.16-5.66-5-10.11-9.5-9.56s-7,4.79-7,10.54c0,11-.43,22-.78,32.93a24.7,24.7,0,0,1-1,4.57,9.08,9.08,0,0,1-3.24-5.2c-1-5.9-1.63-11.84-2.42-17.77-1.22-9.23-2.2-18.5-3.79-27.66-.68-3.9-3.09-7.19-7.86-7s-6.27,3.73-6.88,7.81a20.63,20.63,0,0,0-.44,4c.52,11.62,1.22,23.24,1.58,34.87.09,2.9-.84,5.82-1.3,8.74-1.71-2.41-4.38-4.61-5-7.26-2.47-11-4.33-22.22-6.36-33.36-.51-2.78-.53-5.68-1.29-8.39-1.08-3.86-3.24-7.34-7.76-7.26-4.72.08-6.88,3.67-7.84,7.8a20,20,0,0,0-.26,6.46c1.43,14.41,3.08,28.8,4.45,43.21.72,7.61,1.69,15.28,1.41,22.88-.55,15-13.7,22.48-27.35,16.13-2.11-1-4.07-2.29-6.08-3.46a25.65,25.65,0,0,0-31.59,4.48c-1,1.06-2.6,2.77-2.31,3.63,2.2,6.37-3.33,10-5.05,14.88-1.37,3.92-3.42,7.59-5.17,11.38a9.21,9.21,0,0,1-.46-5.27c.78-7.78,1.72-15.54,2.19-23.33a6.89,6.89,0,0,0-5.79-7.67c-4.09-.89-7.36.56-9.15,4.31a64.11,64.11,0,0,0-3.89,10.25c-2.19,7.69-3.56,15.66-6.25,23.16-3.81,10.61-8.38,21-13,31.28-.79,1.77-3.27,2.79-5,4.15-.64-1.93-1.75-3.84-1.84-5.8-.79-16.13-1.38-32.27-2-48.41-.14-3.65-.6-7.3-5-8.13-4.21-.79-7.89.84-9.45,4.84-1.66,4.28-3.23,8.88-3.44,13.41-.72,14.95-.62,29.95-1.28,44.91a24.48,24.48,0,0,1-3.22,10.74c-3.46,6-8.11,6.19-12.21.67a42.06,42.06,0,0,1-4.91-9.75c-2.13-5.42-3.76-11-5.89-16.46-1.52-3.85-4.44-6.53-8.83-6s-5.74,4.28-6.32,8a15.31,15.31,0,0,0,.39,6.87c2.94,9,5.76,18.11,9.46,26.82a44.06,44.06,0,0,1,2.91,25.89c-1.86,10.15-4,20.24-5.85,30.4s-3.14,20.72,1.23,30.52c4.25,9.54,3.78,18.47.24,28-7.11,19.22-13.63,38.66-20.35,58-.56,1.62-.8,3.34-1.32,5.54,2.57.17,4.36.39,6.15.4,20.33,0,40.67-.14,61,.16,5.14.08,6.88-1.9,7.79-6.62,4.5-23.24,8.44-46.52,9-70.28a37.19,37.19,0,0,1,9.53-24.19c5.18-5.86,10.29-11.91,16.19-17,13.13-11.31,25.42-24.46,45.11-23.74,2,.07,5.5-2.67,6-4.66.57-2.36-.57-6.3-2.41-7.83a28.6,28.6,0,0,0-11.37-5.8c-11.79-2.78-22.22,1.82-32.41,7.14-1.94,1-4.27,1.31-6.42,1.93-.38-2.35-1.15-4.72-1-7.05a21.06,21.06,0,0,1,1.72-6.74c2.73-6.8,5.54-13.57,8.48-20.28C1318.82,689.38,1329.23,665.78,1340.17,640.92ZM777.82,546.65l-2.8-2.3c1.93-4.15,3.6-8.46,5.84-12.43,5.07-9,10.46-17.81,15.65-26.74,2.12-3.66,2.32-7.18-1-10.46s-7.24-3.84-10.92-1.43a31,31,0,0,0-8.2,7.78c-5.66,8-10.33,16.79-16.38,24.49a139.09,139.09,0,0,1-18.41,18.87c-2.1,1.83-6.87,2.44-9.5,1.36-3.72-1.53-1.64-5.53-.63-8.42,3.73-10.7,7.65-21.33,11.41-32a78.88,78.88,0,0,0,2.84-9.57c1.24-5.84-1.51-8.92-7.48-8.87-4.74,0-8,2.57-9.85,6.54-3.13,6.62-5.9,13.41-8.73,20.16-4.06,9.67-7.92,19.43-12.11,29a8,8,0,0,1-8.87,5.11c-4.08-.53-6-3.31-6.64-7.09-1.1-7.21-2.1-14.44-3-21.68-.43-3.3-.49-6.65-1-9.93-.59-3.87-3-5.32-6.85-4.56a11.11,11.11,0,0,0-9.15,11c-.17,6,.25,12,.57,18,.47,8.47,1.6,16.92-2.85,24.9a157.84,157.84,0,0,0-8.35,17c-7.8,19.12-16,38.1-14.62,59.62.34,5.29-1.71,10.82-3.09,16.12-8.36,32.09-16.88,64.13-25.28,96.21a1147.35,1147.35,0,0,0-28.14,143.1c-.89,6.87-.41,7.48,6.59,7.5,26.66.07,53.33,0,80,.26,4.45,0,6-1.32,6.37-5.89,1.48-19.59,3.24-39.16,5.15-58.71,3.48-35.62,7.25-71.22,10.7-106.84A310.65,310.65,0,0,1,710.21,670c2-7,5.77-12.79,12.43-16.16,28-14.12,55.67-28.77,85.55-38.61,7.9-2.6,16-4.58,23.94-7.13,6.46-2.07,8-7.57,2.59-11.51-4.06-3-9.57-5.24-14.51-5.39-7.71-.25-15.55,1.21-23.21,2.62-7.36,1.35-14.55,3.58-21.82,5.39-4.06,1-7.38-.21-9.29-3.94s.58-6.29,3-8.67c.72-.69,1.57-1.24,2.29-1.93,5.62-5.36,11.86-10.23,16.69-16.23,10.74-13.35,20.94-27.16,31-41,3.48-4.81,2.79-9.31-.48-12.29s-7.39-3.15-12.06,1.13c-8.71,8-17,16.39-25.35,24.79C779.56,542.5,778.87,544.76,777.82,546.65ZM821.3,676.23l-.55.21c-1.93-3.85-3.83-7.7-5.78-11.54a83.38,83.38,0,0,0-4.18-7.95c-3.21-4.93-9.75-7-13.9-4.58-3.48,2-3.88,5.78-1,12.11,9.55,21.27,19.3,42.45,28.67,63.79a228.38,228.38,0,0,1,8.14,22.49,6.23,6.23,0,0,1-1.39,5.3c-.77.76-3.42.1-5-.53-5.09-2-9.91-4.85-15.12-6.49-8.55-2.7-17.15-2.59-24.95,2.6-3.08,2.06-6,4.72-4.61,9.06,1.34,4.19,5,4.53,8.63,4.26,6.45-.49,12,1.52,17.46,4.82,13.42,8.09,24.7,18.61,35.32,30,6.81,7.28,11.51,15.8,11.81,25.82.66,22.08,4.36,43.69,8.74,65.25.94,4.62,2.7,6.43,7.54,6.37,18.65-.23,37.32-.09,56-.11,1.58,0,3.16-.26,5.26-.44a51.37,51.37,0,0,0-1.17-5.36c-6.5-19.08-13-38.17-19.63-57.18-2.42-6.9-3.12-13.6.13-20.36,3.61-7.49,4-15.5,3-23.48a193.8,193.8,0,0,0-4.33-22.53c-3.79-15.2-5.44-30.08,2.41-44.72,2.49-4.64,3.73-10,5.3-15.07a26.87,26.87,0,0,0,1.54-8.3c-.07-3.84-.71-8.21-5.24-9.23-4.69-1-7.47,2.21-9,6.21-1.9,5-3.26,10.16-5.21,15.12a37.79,37.79,0,0,1-4.83,9.21c-3.31,4.32-7.86,4.47-10.73-.12a28.88,28.88,0,0,1-4.4-12.86c-.86-13.61-.73-27.27-1.36-40.9a38.19,38.19,0,0,0-2.61-11.1c-1.37-3.76-4.47-6-8.6-5.38-4.55.7-4.65,4.44-4.73,8.11q-.44,21.46-1.05,42.93a23.39,23.39,0,0,1-.66,4.93c-.78,3.15-2.6,4-4.84,1.35a30.81,30.81,0,0,1-5-7.39c-3.31-7.62-6.58-15.29-9.2-23.17-3.14-9.47-5.51-19.2-8.41-28.76-.61-2-1.67-4.53-3.28-5.38-2.42-1.27-5.69-2.08-8.23-1.5-1.47.34-3.22,3.84-3.14,5.84C819.51,657.12,820.51,666.67,821.3,676.23Z"/><path class="cls-1" d="M962,107c11.9,6.37,13.36,17.6,15.18,29.55,4,26.16,9.1,52.15,14.15,78.12.89,4.61,3.31,9.1,5.83,13.14,1.13,1.83,4.6,3.75,6.33,3.26s3.84-3.78,4-6a42.68,42.68,0,0,0-1-12.37c-5.95-28.06-3.09-56.45-3.38-84.72a28.76,28.76,0,0,1,.9-5.92c1.55-7.68,5.78-11.94,12.68-12.85,6.65-.87,13.59,2.52,15.93,9.5a131.18,131.18,0,0,1,6.17,26.15c2.23,19,3,38.17,5.4,57.14,1.29,10.12,4.65,20,7.29,29.91.46,1.73,2,3.16,3,4.73l1.45-.13c.6-2.27,1.55-4.52,1.72-6.82.85-11.62,1.85-23.25,2.12-34.89.36-15.12-.14-30.27.25-45.39.11-4.11,1.12-8.9,3.46-12.12C1071.8,126,1088,128.54,1093,142a48.79,48.79,0,0,1,2.85,16.61c0,24.15-.56,48.3-.88,72.45,0,3.5,0,7,.13,10.5.34,6.6,2.56,12.31,9.36,14.54s13.52,2,18.52-3.62c7.62-8.57,14.79-17.54,22-26.46s13.66-18.08,21.18-26.52c6.86-7.7,14.43-6.59,19,2.78,2,4,3.47,10.06,1.85,13.69-8.26,18.51-15.67,37.53-27.61,54.18a30.46,30.46,0,0,1-4.85,5.68c-12.51,10.5-15.53,24.46-14.28,39.72a264.49,264.49,0,0,1-3.85,74.11,452.93,452.93,0,0,1-12.91,49.71,134.81,134.81,0,0,0-5.81,59.08c5.83,46.92,11.75,93.83,17,140.82,2.5,22.32,3.59,44.79,5.37,67.19,1.85,23.4,3.9,46.78,5.63,70.18,1.26,17.1,2.49,34.21,3.1,51.34.73,20.63.86,41.29,1.12,61.94.09,6.73-.41,7.09-7.08,7.09q-77.75,0-155.49,0c-6.1,0-6.57-.71-6.14-6.59q1-13.46,1.59-26.92c1.13-25.94,2.09-51.9,3.27-77.84,1.6-35.09,3.48-70.17,5-105.26,1.17-27.78,3-55.59,2.53-83.35-.36-22.06-3.25-44.14-5.94-66.09-2.66-21.71-4.84-43.42-3.57-65.26.87-15.08-5.36-26.16-17.05-34.56C948.77,418,930,405.5,912,392.1c-8.62-6.4-16.44-14-24.08-21.61-9.33-9.31-18.41-18.8-29.89-25.6-6.62-3.92-13.7-5.54-21.36-6a121.94,121.94,0,0,1-23.1-3.4c-7.51-2-8.86-7.32-3.89-13.29,14.57-17.48,45.27-28.13,69.26-13.57,8.66,5.26,17,11.3,27.43,12.77,10.74,1.52,20.93.15,30.43-5.27,12-6.85,15.53-18.39,17.23-31,2.74-20.49-1.24-40.43-4-60.57-3-21.58-4.76-43.34-7-65-.84-8.27-1.4-16.58-2.12-24.87-1-12.16,3.48-21.44,14.14-27.59Z"/><path class="cls-1" d="M453.27,422.23c-1.26-10.36-2.24-20.76-3.86-31.07-1.4-8.86-3.37-17.65-5.37-26.4-1.31-5.75-.15-10.53,4.16-14.54,4.13-3.83,8.91-4.44,13.75-1.58,7.14,4.22,10.65,11,12.13,18.74,2.05,10.61,3.43,21.36,5,32.06,3.19,21.35,8.51,42.12,17,62a41.76,41.76,0,0,0,4.46,7.75c2.06,2.91,4.55,2.51,5.51-.7,1.36-4.58,3-9.46,2.69-14.1-1-14.42-2.79-28.79-4.28-43.18-.22-2.14-.49-4.3-.51-6.45-.06-4.23,1.68-7.48,5.78-9s8.35-1,10.86,2.56c2.71,3.88,5.26,8.28,6.3,12.81,3.3,14.28,5.35,28.84,8.8,43.07,9.36,38.69,19.26,77.25,28.82,115.89C569,587.9,571.83,606,572,624.39c.1,8.85-1.7,17.14-6.87,24.6-9,13-8.85,27.65-6.65,42.36,6.86,45.95,14.5,91.78,20.78,137.81,2.88,21.05,3.29,42.43,4.87,63.67.29,4-1.5,5.23-5.29,5.22q-68.73-.12-137.47,0c-3.74,0-5-1.27-4.58-5,1.92-17.88,3.77-35.76,5.4-53.66,1.39-15.25,2.71-30.51,3.61-45.8,1.8-30.57,3.66-61.15,4.77-91.75.76-20.74,2.43-41.65-4.75-61.9-4.77-13.44-12.25-24.37-24.24-32.62-27.27-18.75-51.94-40.69-74.61-64.74-15.1-16-33.14-26.49-54.13-32.4-7.48-2.11-10.49-5.83-8.64-11.51a15.47,15.47,0,0,1,6-7.52c16.61-10.71,46.76-7,61.31,6.36,8.55,7.83,18.18,14.51,27.57,21.37a22.52,22.52,0,0,0,16.12,4.12c8.93-1,13.69-6.89,12.6-15.77a6.56,6.56,0,0,0-.14-1c-5.87-20.8-10.87-41.9-17.93-62.3a187.79,187.79,0,0,1-9.25-41.27c-2.11-19.18-3.83-38.4-5.43-57.63a34.27,34.27,0,0,1,1.23-10.86c2-8.17,9.89-10.61,16.17-5,2.65,2.36,4.61,3.31,7.58.45,5.88-5.65,9.61-5.66,14.7,1.07,4.69,6.19,9.38,12.8,12.1,20,5.19,13.67,8.88,27.9,13.38,41.84,2.71,8.4,5.74,16.69,8.73,25a47.2,47.2,0,0,0,2.61,5.23Z"/><path class="cls-1" d="M1340.17,640.92c-10.94,24.86-21.35,48.46-31.69,72.09-2.94,6.71-5.75,13.48-8.48,20.28a21.06,21.06,0,0,0-1.72,6.74c-.1,2.33.67,4.7,1,7.05,2.15-.62,4.48-.91,6.42-1.93,10.19-5.32,20.62-9.92,32.41-7.14a28.6,28.6,0,0,1,11.37,5.8c1.84,1.53,3,5.47,2.41,7.83-.49,2-3.94,4.73-6,4.66-19.69-.72-32,12.43-45.11,23.74-5.9,5.08-11,11.13-16.19,17a37.19,37.19,0,0,0-9.53,24.19c-.53,23.76-4.47,47-9,70.28-.91,4.72-2.65,6.7-7.79,6.62-20.33-.3-40.67-.13-61-.16-1.79,0-3.58-.23-6.15-.4.52-2.2.76-3.92,1.32-5.54,6.72-19.36,13.24-38.8,20.35-58,3.54-9.57,4-18.5-.24-28-4.37-9.8-3.05-20.28-1.23-30.52s4-20.25,5.85-30.4a44.06,44.06,0,0,0-2.91-25.89c-3.7-8.71-6.52-17.81-9.46-26.82a15.31,15.31,0,0,1-.39-6.87c.58-3.72,1.94-7.46,6.32-8s7.31,2.14,8.83,6c2.13,5.42,3.76,11,5.89,16.46a42.06,42.06,0,0,0,4.91,9.75c4.1,5.52,8.75,5.32,12.21-.67a24.48,24.48,0,0,0,3.22-10.74c.66-15,.56-30,1.28-44.91.21-4.53,1.78-9.13,3.44-13.41,1.56-4,5.24-5.63,9.45-4.84,4.38.83,4.84,4.48,5,8.13.65,16.14,1.24,32.28,2,48.41.09,2,1.2,3.87,1.84,5.8,1.71-1.36,4.19-2.38,5-4.15,4.58-10.31,9.15-20.67,13-31.28,2.69-7.5,4.06-15.47,6.25-23.16a64.11,64.11,0,0,1,3.89-10.25c1.79-3.75,5.06-5.2,9.15-4.31a6.89,6.89,0,0,1,5.79,7.67c-.47,7.79-1.41,15.55-2.19,23.33a9.21,9.21,0,0,0,.46,5.27c1.75-3.79,3.8-7.46,5.17-11.38,1.72-4.91,7.25-8.51,5.05-14.88-.29-.86,1.31-2.57,2.31-3.63a25.65,25.65,0,0,1,31.59-4.48c2,1.17,4,2.48,6.08,3.46,13.65,6.35,26.8-1.18,27.35-16.13.28-7.6-.69-15.27-1.41-22.88-1.37-14.41-3-28.8-4.45-43.21a20,20,0,0,1,.26-6.46c1-4.13,3.12-7.72,7.84-7.8,4.52-.08,6.68,3.4,7.76,7.26.76,2.71.78,5.61,1.29,8.39,2,11.14,3.89,22.31,6.36,33.36.59,2.65,3.26,4.85,5,7.26.46-2.92,1.39-5.84,1.3-8.74-.36-11.63-1.06-23.25-1.58-34.87a20.63,20.63,0,0,1,.44-4c.61-4.08,2-7.57,6.88-7.81s7.18,3.06,7.86,7c1.59,9.16,2.57,18.43,3.79,27.66.79,5.93,1.46,11.87,2.42,17.77a9.08,9.08,0,0,0,3.24,5.2,24.7,24.7,0,0,0,1-4.57c.35-11,.74-21.95.78-32.93,0-5.75,2.51-10,7-10.54s9.34,3.9,9.5,9.56c.29,10.33.09,20.66.09,31,0,3.34-.49,6.76.14,10,.49,2.51,1.88,6.12,3.73,6.76,2.48.87,6.66.32,8.56-1.36,4.17-3.72,7.41-8.49,10.94-12.9,2.5-3.13,4.74-6.45,7.28-9.53,2-2.46,4.43-5.2,8-3.06s5.37,5.76,3.5,9.44c-4.88,9.59-9.83,19.24-15.83,28.14-3.24,4.81-5.6,9.28-5.38,15,.55,14.19.2,28.32-2.87,42.26-.79,3.57-1.41,7.27-2.83,10.6-6,14.19-5.66,28.8-4,43.73,3.86,34.57,7.69,69.16,10.72,103.81,1.84,21,2.07,42.22,3.21,63.33.28,5-1.52,6.68-6.56,6.63-21.66-.22-43.33-.08-65-.11-6.38,0-6.75-.68-6.25-7,.6-7.63.93-15.28,1.26-22.93,1.44-33.94,3.58-67.87,4-101.82.21-17.88-2.69-35.8-4.07-53.72a88.72,88.72,0,0,1-.12-12.94c.38-5.35-.75-10.07-4.93-13.5a179.86,179.86,0,0,0-15.16-11.37,195.41,195.41,0,0,1-31.8-26.44C1346.93,644.52,1343.18,642.89,1340.17,640.92Z"/><path class="cls-1" d="M777.82,546.65c1-1.89,1.74-4.15,3.21-5.63,8.32-8.4,16.64-16.81,25.35-24.79,4.67-4.28,8.69-4.21,12.06-1.13s4,7.48.48,12.29c-10.07,13.88-20.27,27.69-31,41-4.83,6-11.07,10.87-16.69,16.23-.72.69-1.57,1.24-2.29,1.93-2.46,2.38-5,4.93-3,8.67s5.23,4.94,9.29,3.94c7.27-1.81,14.46-4,21.82-5.39,7.66-1.41,15.5-2.87,23.21-2.62,4.94.15,10.45,2.43,14.51,5.39,5.39,3.94,3.87,9.44-2.59,11.51-7.93,2.55-16,4.53-23.94,7.13-29.88,9.84-57.6,24.49-85.55,38.61C716,657.2,712.25,663,710.21,670A310.65,310.65,0,0,0,699,726.78c-3.45,35.62-7.22,71.22-10.7,106.84-1.91,19.55-3.67,39.12-5.15,58.71-.34,4.57-1.92,5.92-6.37,5.89-26.66-.22-53.33-.19-80-.26-7,0-7.48-.63-6.59-7.5a1147.35,1147.35,0,0,1,28.14-143.1c8.4-32.08,16.92-64.12,25.28-96.21,1.38-5.3,3.43-10.83,3.09-16.12-1.41-21.52,6.82-40.5,14.62-59.62a157.84,157.84,0,0,1,8.35-17c4.45-8,3.32-16.43,2.85-24.9-.32-6-.74-12-.57-18a11.11,11.11,0,0,1,9.15-11c3.82-.76,6.26.69,6.85,4.56.5,3.28.56,6.63,1,9.93.95,7.24,1.95,14.47,3,21.68.59,3.78,2.56,6.56,6.64,7.09a8,8,0,0,0,8.87-5.11c4.19-9.62,8.05-19.38,12.11-29,2.83-6.75,5.6-13.54,8.73-20.16,1.88-4,5.11-6.5,9.85-6.54,6-.05,8.72,3,7.48,8.87a78.88,78.88,0,0,1-2.84,9.57c-3.76,10.69-7.68,21.32-11.41,32-1,2.89-3.09,6.89.63,8.42,2.63,1.08,7.4.47,9.5-1.36A139.09,139.09,0,0,0,760,525.56c6-7.7,10.72-16.47,16.38-24.49a31,31,0,0,1,8.2-7.78c3.68-2.41,7.57-1.86,10.92,1.43s3.13,6.8,1,10.46c-5.19,8.93-10.58,17.74-15.65,26.74-2.24,4-3.91,8.28-5.84,12.43Z"/><path class="cls-1" d="M821.3,676.23c-.79-9.56-1.79-19.11-2.2-28.69-.08-2,1.67-5.5,3.14-5.84,2.54-.58,5.81.23,8.23,1.5,1.61.85,2.67,3.39,3.28,5.38,2.9,9.56,5.27,19.29,8.41,28.76,2.62,7.88,5.89,15.55,9.2,23.17a30.81,30.81,0,0,0,5,7.39c2.24,2.62,4.06,1.8,4.84-1.35a23.39,23.39,0,0,0,.66-4.93q.58-21.47,1.05-42.93c.08-3.67.18-7.41,4.73-8.11,4.13-.64,7.23,1.62,8.6,5.38a38.19,38.19,0,0,1,2.61,11.1c.63,13.63.5,27.29,1.36,40.9a28.88,28.88,0,0,0,4.4,12.86c2.87,4.59,7.42,4.44,10.73.12a37.79,37.79,0,0,0,4.83-9.21c1.95-5,3.31-10.14,5.21-15.12,1.53-4,4.31-7.26,9-6.21,4.53,1,5.17,5.39,5.24,9.23a26.87,26.87,0,0,1-1.54,8.3c-1.57,5.1-2.81,10.43-5.3,15.07-7.85,14.64-6.2,29.52-2.41,44.72a193.8,193.8,0,0,1,4.33,22.53c1,8,.56,16-3,23.48-3.25,6.76-2.55,13.46-.13,20.36,6.68,19,13.13,38.1,19.63,57.18a51.37,51.37,0,0,1,1.17,5.36c-2.1.18-3.68.43-5.26.44-18.66,0-37.33-.12-56,.11-4.84.06-6.6-1.75-7.54-6.37-4.38-21.56-8.08-43.17-8.74-65.25-.3-10-5-18.54-11.81-25.82-10.62-11.35-21.9-21.87-35.32-30-5.47-3.3-11-5.31-17.46-4.82-3.59.27-7.29-.07-8.63-4.26-1.39-4.34,1.53-7,4.61-9.06,7.8-5.19,16.4-5.3,24.95-2.6,5.21,1.64,10,4.44,15.12,6.49,1.56.63,4.21,1.29,5,.53a6.23,6.23,0,0,0,1.39-5.3,228.38,228.38,0,0,0-8.14-22.49c-9.37-21.34-19.12-42.52-28.67-63.79-2.85-6.33-2.45-10.11,1-12.11C801,650,807.58,652,810.79,657A83.38,83.38,0,0,1,815,664.9c1.95,3.84,3.85,7.69,5.78,11.54Z"/><polygon class="cls-2" points="0 0 1809.45 1.54 1809.45 1003 0 1003 0 0"/></g></g></svg>