<svg xmlns="http://www.w3.org/2000/svg" viewBox="0 0 1652.5 916"><defs><style>.cls-1{fill:#ac0034;stroke:#ac0034;stroke-miterlimit:10;stroke-width:3px;}.cls-2{fill:none;}</style></defs><title>Asset 32</title><g id="Layer_2" data-name="Layer 2"><g id="Layer_1-2" data-name="Layer 1"><path class="cls-1" d="M1421.05,170.31l-1.87.89c0,5.44-.25,10.88,0,16.3.67,12.45,2.45,24.91,2.23,37.33a198.25,198.25,0,0,1-9.86,57.91c-9.37,28.94-25.29,53.4-48.71,73-19.41,16.22-41.37,27.89-64.8,37-29.8,11.56-60.07,14.55-90.95,4.58-23.83-7.7-45.09-20.38-63.8-36.59-24.14-20.91-47.43-42.86-70.33-65.13-28.06-27.29-55-55.78-85.51-80.4-21.23-17.11-43.46-32.56-68.85-43-32.58-13.39-66.41-14.8-100.72-9.8-39.51,5.77-76.17,19.29-108.73,42.78-21.49,15.5-39.61,34.14-50.77,58.64-9.47,20.8-15,42.71-17.65,65.36-1.79,15.44-2.9,31.15,1,46.23,10,38.51,32.65,65.78,72.33,76.6,19.6,5.35,39.54,7.65,59.8,5.91,16.16-1.39,29.63-9.6,42.7-18.35,10-6.7,19.38-14.23,25.71-24.76a104.88,104.88,0,0,0,14-72.55c-4.86-30.4-21.3-52.76-50.15-64.18-22.5-8.91-45.67-7.52-67.65,2.31-18.24,8.16-30.57,21.76-32,42.94-.06.83-.33,1.64-.46,2.46-3.72,22.33,12.85,47.5,36.29,49.77,10.52,1,19.81-2,26.7-10.53.78-1,.65-2.65.94-4-1.25-.2-2.59-.8-3.72-.53-3.41.79-6.67,2.27-10.09,2.85-10.11,1.71-19.69.06-26.26-8.31-11.07-14.08-7.35-37.15,7-47.91,7.2-5.41,15.54-7.76,24.21-8.57,20.47-1.9,38.61,3.21,51.4,20.35,19.14,25.68,12.75,66.95-12.9,86.21-15,11.24-32,15.19-50.41,13.92-19.93-1.38-36.63-9.75-49.4-25-14-16.72-17.43-36.44-15.24-57.72,3.77-36.55,20.92-65.52,49.19-88.27,25.53-20.55,55.42-30.8,87.32-35.82,26.9-4.24,53.44-3.21,79.19,6.83a200.45,200.45,0,0,1,57.85,35.11c22.36,19.17,44,39.19,66,58.83,28,25.06,55.7,50.58,84.31,75,24.39,20.82,51.58,37.18,83.06,45.48,29.3,7.73,58.48,10.39,88.14,1.28a265,265,0,0,0,94.57-51.45c28.3-23.93,46.68-54,55.87-89.69a192.93,192.93,0,0,0,5.61-67.33c-1.58-16.11-4-32.08-9.86-47.31C1424.68,175.88,1422.67,173.17,1421.05,170.31ZM693.22,183a51.43,51.43,0,0,0,6-2.19c13.42-7,26.79-14.19,40.19-21.27,32.2-17,65.64-30.14,102.3-33.72a161.64,161.64,0,0,1,86.53,14.91c30.62,14.52,56.67,35.5,81.11,58.54,15.86,15,30.85,30.84,46.43,46.1,15.82,15.49,31.75,30.89,47.91,46A316.18,316.18,0,0,0,1161,334.54c25.36,14.75,52.55,22.68,81.9,22.32,22.94-.28,44.86-5.7,65.69-15.32a79.63,79.63,0,0,0,11.27-6.38c1.26-.85,1.65-3,2.43-4.52-1.62-.35-3.38-1.3-4.85-1-7.47,1.7-14.91,3.56-22.27,5.66-38,10.85-74.22,5.8-109.1-11.62-24.15-12.06-44.1-29.9-63.24-48.41-35.45-34.29-70-69.45-105.31-103.92a283.6,283.6,0,0,0-57.95-43.18C906.48,97.79,851.3,94,794.13,115.27c-25.64,9.56-49,23.36-71.46,38.71-8.23,5.62-15.88,12.12-23.59,18.46C696.17,174.84,693,177.46,693.22,183ZM570.31,341.22c-14.68,21.42-32.89,34.59-59.69,33.7,1.75,3.42,2.87,5.95,4.28,8.31,38.69,65,81.28,127.17,131.68,183.72,5.6,6.28,12.29,11.72,19,16.85,4.82,3.68,8.13,1.64,8.36-4.52a29.9,29.9,0,0,0-.59-8.93c-4-14.59-7.52-29.41-12.75-43.58-21.3-57.65-48.68-112.47-78.87-165.92C578.23,354.65,574.57,348.54,570.31,341.22ZM510.86,272.7a34.42,34.42,0,0,0-34.1,34.11c-.17,18.72,15.48,34.43,34.3,34.45,19.17,0,34-15,34-34.38S530.15,272.66,510.86,272.7Z"/><path class="cls-1" d="M476.77,856c-.07-2.33-.2-4.66-.2-7q0-227.43,0-454.86v-6.86l1.19-.5a26.93,26.93,0,0,1,2.51,3.07q31.17,50.64,62.19,101.39a17.93,17.93,0,0,1,2.46,8.87q.18,175.7.09,351.4c0,1.49-.15,3-.23,4.48Z"/><path class="cls-1" d="M1469.77,328c-2.58,6.65-5.56,13.17-7.68,20-10.06,32.28-28.47,59.73-49.58,85.52-19.88,24.27-43,45-70.25,60.82a215.69,215.69,0,0,1-90.61,28.94c-32.35,2.8-64-1-94.87-9.82-23.79-6.84-45.34-19.21-65.58-33.57-26.33-18.67-48.36-41.78-68.32-66.88-18-22.68-35.12-46.1-53.12-68.81C951,320.47,931,297.71,904,283.05c-12.08-6.55-25.27-11.07-38-16.46-3.06-1.3-6.31-2.19-9.26-3.71-1.38-.7-2.23-2.43-3.32-3.7,1.56-.73,3.15-2.13,4.68-2.08,7.14.24,14.4.15,21.36,1.49,31.45,6.05,58.21,21.36,82,42.47,25.1,22.31,46.47,48.09,68.49,73.27,13,14.91,26.11,29.83,40,44,25.6,26.08,54.71,47.19,89.52,59.52,29.41,10.41,59.55,14.9,90.84,12.45,47.29-3.72,87.86-22.56,123.8-52.78,31.83-26.75,57.56-58.55,79.5-93.68,4.53-7.24,8.13-15.44,16.27-19.8Z"/><path class="cls-1" d="M672.77,31c0,5.56,1.35,11.55-.25,16.61-7,22.2-13.95,44.49-22.55,66.11A1218.11,1218.11,0,0,1,573.89,271c-.73,1.27-1.61,2.46-2.94,4.47-6.53-10.67-13.62-20.41-24.74-25.15-10.58-4.5-21.84-7.39-33.27-11.15a15.61,15.61,0,0,1,1.17-2.73c32.5-56.74,68-111.47,109.37-162.22,10.17-12.48,21.75-23.82,32.94-35.44,3-3.07,6.88-5.21,10.35-7.78Z"/><path class="cls-1" d="M189.77,305c10.76-7.39,23.29-10.07,35.71-12,33.68-5.24,67.43-10.18,101.27-14.19a938.64,938.64,0,0,1,117.58-6.16c2.14,0,4.27,0,7.94,0-14.23,22.8-12.14,45.1-1,68-2.49.3-4,.64-5.57.66A1223.72,1223.72,0,0,1,321,336.39c-36-3.3-71.93-7-106.94-16.34-8.39-2.25-16.21-6.64-24.3-10.05Z"/><path class="cls-1" d="M1421.05,170.31c1.62,2.86,3.63,5.57,4.79,8.61,5.81,15.23,8.28,31.2,9.86,47.31a192.93,192.93,0,0,1-5.61,67.33c-9.19,35.73-27.57,65.76-55.87,89.69a265,265,0,0,1-94.57,51.45c-29.66,9.11-58.84,6.45-88.14-1.28-31.48-8.3-58.67-24.66-83.06-45.48-28.61-24.41-56.26-49.93-84.31-75-22-19.64-43.6-39.66-66-58.83A200.45,200.45,0,0,0,900.33,219c-25.75-10-52.29-11.07-79.19-6.83-31.9,5-61.79,15.27-87.32,35.82-28.27,22.75-45.42,51.72-49.19,88.27-2.19,21.28,1.25,41,15.24,57.72,12.77,15.26,29.47,23.63,49.4,25,18.39,1.27,35.44-2.68,50.41-13.92,25.65-19.26,32-60.53,12.9-86.21-12.79-17.14-30.93-22.25-51.4-20.35-8.67.81-17,3.16-24.21,8.57-14.35,10.76-18.07,33.83-7,47.91,6.57,8.37,16.15,10,26.26,8.31,3.42-.58,6.68-2.06,10.09-2.85,1.13-.27,2.47.33,3.72.53-.29,1.35-.16,3-.94,4-6.89,8.48-16.18,11.55-26.7,10.53-23.44-2.27-40-27.44-36.29-49.77.13-.82.4-1.63.46-2.46,1.47-21.18,13.8-34.78,32-42.94,22-9.83,45.15-11.22,67.65-2.31,28.85,11.42,45.29,33.78,50.15,64.18a104.88,104.88,0,0,1-14,72.55c-6.33,10.53-15.7,18.06-25.71,24.76-13.07,8.75-26.54,17-42.7,18.35-20.26,1.74-40.2-.56-59.8-5.91-39.68-10.82-62.29-38.09-72.33-76.6-3.94-15.08-2.83-30.79-1-46.23,2.61-22.65,8.18-44.56,17.65-65.36,11.16-24.5,29.28-43.14,50.77-58.64,32.56-23.49,69.22-37,108.73-42.78,34.31-5,68.14-3.59,100.72,9.8,25.39,10.44,47.62,25.89,68.85,43,30.56,24.62,57.45,53.11,85.51,80.4,22.9,22.27,46.19,44.22,70.33,65.13,18.71,16.21,40,28.89,63.8,36.59,30.88,10,61.15,7,90.95-4.58,23.43-9.09,45.39-20.76,64.8-37,23.42-19.58,39.34-44,48.71-73a198.25,198.25,0,0,0,9.86-57.91c.22-12.42-1.56-24.88-2.23-37.33-.3-5.42,0-10.86,0-16.3Z"/><path class="cls-1" d="M693.22,183c-.27-5.52,2.95-8.14,5.86-10.54,7.71-6.34,15.36-12.84,23.59-18.46,22.46-15.35,45.82-29.15,71.46-38.71C851.3,94,906.48,97.79,959.61,128.2a283.6,283.6,0,0,1,57.95,43.18c35.26,34.47,69.86,69.63,105.31,103.92,19.14,18.51,39.09,36.35,63.24,48.41,34.88,17.42,71.15,22.47,109.1,11.62,7.36-2.1,14.8-4,22.27-5.66,1.47-.33,3.23.62,4.85,1-.78,1.55-1.17,3.67-2.43,4.52a79.63,79.63,0,0,1-11.27,6.38c-20.83,9.62-42.75,15-65.69,15.32-29.35.36-56.54-7.57-81.9-22.32a316.18,316.18,0,0,1-57.36-43.16c-16.16-15.14-32.09-30.54-47.91-46-15.58-15.26-30.57-31.14-46.43-46.1-24.44-23-50.49-44-81.11-58.54A161.64,161.64,0,0,0,841.7,125.8c-36.66,3.58-70.1,16.71-102.3,33.72-13.4,7.08-26.77,14.22-40.19,21.27A51.43,51.43,0,0,1,693.22,183Z"/><path class="cls-1" d="M570.31,341.22c4.26,7.32,7.92,13.43,11.42,19.63,30.19,53.45,57.57,108.27,78.87,165.92,5.23,14.17,8.71,29,12.75,43.58a29.9,29.9,0,0,1,.59,8.93c-.23,6.16-3.54,8.2-8.36,4.52-6.71-5.13-13.4-10.57-19-16.85-50.4-56.55-93-118.75-131.68-183.72-1.41-2.36-2.53-4.89-4.28-8.31C537.42,375.81,555.63,362.64,570.31,341.22Z"/><path class="cls-1" d="M510.86,272.7c19.29,0,34.21,14.86,34.23,34.18s-14.86,34.4-34,34.38c-18.82,0-34.47-15.73-34.3-34.45A34.42,34.42,0,0,1,510.86,272.7Z"/><polygon class="cls-2" points="0 0 1652.5 1.41 1652.5 916 0 916 0 0"/></g></g></svg>